0
SECTION
2
HEADER
9
$INSUNITS
70
4
9
$ACADVER
1
AC1014
9
$HANDSEED
5
FFFF
0
ENDSEC
0
SECTION
2
TABLES
0
TABLE
2
VPORT
5
8
100
AcDbSymbolTable
0
ENDTAB
0
TABLE
2
LTYPE
5
5
100
AcDbSymbolTable
0
LTYPE
5
14
100
AcDbSymbolTableRecord
100
AcDbLinetypeTableRecord
2
BYBLOCK
70
0
0
LTYPE
5
15
100
AcDbSymbolTableRecord
100
AcDbLinetypeTableRecord
2
BYLAYER
70
0
0
ENDTAB
0
TABLE
2
LAYER
5
2
100
AcDbSymbolTable
70
2
0
LAYER
5
50
100
AcDbSymbolTableRecord
100
AcDbLayerTableRecord
2
0
70
0
6
CONTINUOUS
0
ENDTAB
0
TABLE
2
STYLE
5
3
100
AcDbSymbolTable
70
1
0
STYLE
5
11
100
AcDbSymbolTableRecord
100
AcDbTextStyleTableRecord
2
STANDARD
70
0
0
ENDTAB
0
TABLE
2
VIEW
5
6
100
AcDbSymbolTable
70
0
0
ENDTAB
0
TABLE
2
UCS
5
7
100
AcDbSymbolTable
70
0
0
ENDTAB
0
TABLE
2
APPID
5
9
100
AcDbSymbolTable
70
2
0
APPID
5
12
100
AcDbSymbolTableRecord
100
AcDbRegAppTableRecord
2
ACAD
70
0
0
ENDTAB
0
TABLE
2
DIMSTYLE
5
A
100
AcDbSymbolTable
70
1
0
ENDTAB
0
TABLE
2
BLOCK_RECORD
5
1
100
AcDbSymbolTable
70
1
0
BLOCK_RECORD
5
1F
100
AcDbSymbolTableRecord
100
AcDbBlockTableRecord
2
*MODEL_SPACE
0
BLOCK_RECORD
5
1B
100
AcDbSymbolTableRecord
100
AcDbBlockTableRecord
2
*PAPER_SPACE
0
ENDTAB
0
ENDSEC
0
SECTION
2
BLOCKS
0
BLOCK
5
20
100
AcDbEntity
100
AcDbBlockBegin
2
*MODEL_SPACE
0
ENDBLK
5
21
100
AcDbEntity
100
AcDbBlockEnd
0
BLOCK
5
1C
100
AcDbEntity
100
AcDbBlockBegin
2
*PAPER_SPACE
0
ENDBLK
5
1D
100
AcDbEntity
100
AcDbBlockEnd
0
ENDSEC
0
SECTION
2
ENTITIES
0
LWPOLYLINE
5
100
100
AcDbEntity
8
0
100
AcDbPolyline
90
34
70
1
43
0.0
10
145.85368200000002
20
169.86177000000001
42
-0.033808999999981104
10
146.76283000000001
20
169.07101200000002
42
-0.19941699999993376
10
147
20
168.5
42
-0.19941700000003248
10
146.76283000000001
20
167.928988
42
-0.033808999999981305
10
145.85368200000002
20
167.13823000000002
42
-0.032401999999991812
10
144.59206799999998
20
166.305351
42
-0.023773999999994692
10
143.09763999999998
20
165.54403000000002
42
0.058107000000002546
10
139.07275300000003
20
163.13294600000003
42
0.04419099999999751
10
135.28733400000002
20
159.64777800000002
42
0.042782999999998648
10
132.04887100000002
20
155.41274099999998
42
0.045350999999996811
10
129.650081
20
150.76748799999999
10
127.393219
20
145.21460099999999
10
125.68548200000002
20
150.02284400000002
42
0.059948000000002423
10
123.208882
20
155.00869299999999
42
0.047361000000002061
10
119.44024499999999
20
159.712852
42
0.047142999999999567
10
114.83126000000001
20
163.64644899999999
42
0.057773000000003322
10
109.85730000000001
20
166.34353400000003
10
104.21460100000002
20
168.60678100000001
10
109.24492200000002
20
170.393393
42
0.065833999999996284
10
114.19340900000002
20
172.92420300000001
42
0.0453229999999957
10
119.03801100000003
20
176.96198899999999
42
0.045323000000000946
10
123.07579699999999
20
181.806591
42
0.065834000000000045
10
125.60660700000001
20
186.75507800000003
10
127.393219
20
191.78539900000001
10
129.650081
20
186.23251200000001
42
0.027004000000000791
10
130.77935900000003
20
183.83397999999997
42
0.018033000000003116
10
132.31446399999999
20
181.21451900000005
42
0.018180999999996127
10
133.99197000000001
20
178.775679
42
0.033668999999999019
10
135.55111200000002
20
176.94765700000002
42
0.024827999999988946
10
137.23107199999998
20
175.38995400000002
42
0.017232999999984795
10
139.27112399999996
20
173.79503700000001
42
0.017422999999996774
10
141.34124600000001
20
172.39622900000001
42
0.033953999999988223
10
143.09763999999998
20
171.45597000000004
42
-0.023773999999984158
10
144.59206799999998
20
170.694649
42
-0.032402000000012247
0
LWPOLYLINE
5
101
100
AcDbEntity
8
0
100
AcDbPolyline
90
36
70
1
43
0.0
10
51.246915999999999
20
168.01059500000002
42
-0.23149400000000131
10
51.007497000000008
20
168.5
42
-0.23149400000000131
10
51.246915999999999
20
168.98940500000003
42
-0.023968000000004333
10
52.326582000000002
20
169.74871200000001
42
-0.025908999999983008
10
53.777685000000005
20
170.56648999999999
42
-0.017808999999984081
10
55.498001000000002
20
171.346678
42
0.070437999999998446
10
59.864214000000011
20
173.90962200000001
42
0.040929999999999446
10
64.306612999999999
20
178.07527300000001
42
0.040956999999999959
10
68.005150000000015
20
182.90174300000001
42
0.071339999999998932
10
70.101515000000006
20
187.47824300000002
42
-0.0038889999999944347
10
70.628093000000007
20
189.211885
42
-0.0063609999999918575
10
71.104404000000017
20
190.67173400000001
42
-0.0016869999999677308
10
71.535910999999999
20
191.925466
42
-0.31921000000003436
10
71.640763000000021
20
192.00000000000003
42
-0.31131499999984913
10
71.746304000000009
20
191.927235
42
-0.0023739999999797877
10
72.132171999999997
20
190.898438
42
-0.0075420000000052329
10
72.559091000000024
20
189.68769699999999
42
-0.0046370000000200097
10
73.02699100000001
20
188.25
42
0.062067999999997986
10
75.856780000000001
20
182.06908200000001
42
0.058191000000000763
10
80.168741000000011
20
176.62164300000001
42
0.059431000000004751
10
85.518736000000004
20
172.415637
42
0.071088999999999028
10
91.404119000000009
20
169.88846699999999
10
95.5
20
168.78284500000004
10
90.062581000000023
20
166.751622
42
0.058759999999997523
10
84.756037000000006
20
164.02330800000001
42
0.049770999999998781
10
79.896354000000002
20
159.998176
42
0.050378999999999508
10
75.98661700000001
20
155.15266599999998
42
0.064480999999999081
10
73.497807999999992
20
149.99339900000001
10
71.707578000000012
20
144.60352399999999
10
70.181454000000002
20
149.38528600000001
42
0.065234999999998655
10
67.961022
20
154.111321
42
0.041208000000001466
10
64.259368000000009
20
158.96168500000002
42
0.041407000000001193
10
59.852072999999997
20
163.098758
42
0.070329999999999337
10
55.498001000000002
20
165.653322
42
-0.017809000000013727
10
53.777685000000005
20
166.43351000000001
42
-0.025908999999983008
10
52.326582000000002
20
167.25128799999999
42
-0.023968000000011008
0
LWPOLYLINE
5
102
100
AcDbEntity
8
0
100
AcDbPolyline
90
28
70
1
43
0.0
10
108.002179
20
148.90258300000002
42
0.024485999999995584
10
110.31140000000001
20
146.809099
42
0.024743999999996647
10
112.806431
20
144.95920000000001
42
0.025895999999999947
10
115.33807500000002
20
143.45286200000001
42
0.035937000000001856
10
117.755078
20
142.393393
10
122.785399
20
140.60678100000001
10
117.1427
20
138.32985300000001
42
0.054677999999998408
10
112.10259800000003
20
135.62348300000002
42
0.048390000000000016
10
107.538634
20
131.78917899999999
42
0.048971999999996484
10
103.849296
20
127.20344699999998
42
0.059660000000000199
10
101.402411
20
122.270312
10
99.606781000000026
20
117.21460100000002
10
97.343368000000012
20
122.85730000000001
42
0.058743000000000767
10
94.493955
20
128.08771100000001
42
0.047285000000000812
10
90.313637
20
132.94456
42
0.04851899999999687
10
85.44974000000002
20
136.787396
42
0.074815000000000811
10
80.569365000000005
20
138.98057900000001
10
75.932873999999998
20
140.278716
10
81.716437000000013
20
142.61289600000001
42
0.053454999999997831
10
86.855305000000001
20
145.35657900000001
42
0.049253999999999527
10
91.451993000000002
20
149.19419299999998
42
0.049961000000000685
10
95.148360000000011
20
153.79438300000001
42
0.059011999999998246
10
97.621067000000025
20
158.79579200000001
10
99.440175000000011
20
163.917608
10
101.359888
20
158.77138400000001
42
0.034860000000002639
10
102.46759600000001
20
156.335138
42
0.024001000000006829
10
104.03888700000002
20
153.739925
42
0.023190000000003957
10
105.92956399999998
20
151.19411000000005
42
0.02506500000000245
0
LWPOLYLINE
5
103
100
AcDbEntity
8
0
100
AcDbPolyline
90
22
70
1
43
0.0
10
145.54531300000002
20
147.18807800000002
42
-0.0011820000000070112
10
146.575254
20
147.87891299999998
42
-0.099014000000082841
10
146.75
20
147.950963
42
-0.46082600000020635
10
146.85179699999998
20
147.87032199999999
42
-0.001087000000024392
10
146.92656200000002
20
145.736943
42
-0.0051530000000030709
10
146.98204800000002
20
143.27695900000003
42
-0.0030609999999950139
10
147.00000000000003
20
140.345012
42
-0.0030760000000041657
10
146.969089
20
135.31971899999999
42
-0.075158999999998366
10
146.74406399999998
20
133.94576599999999
42
-0.44853499999999058
10
146.18469400000004
20
133.69921100000002
42
-0.07701399999999739
10
145.08695900000001
20
134.42130299999999
42
0.048427000000002322
10
143.990229
20
135.23579699999999
42
0.012936999999994779
10
142.09690399999999
20
136.310146
42
0.012988000000003885
10
139.870811
20
137.42497600000002
42
0.013070000000006726
10
137.59444900000003
20
138.42024699999999
10
132.01498000000001
20
140.68791299999998
10
135.75748999999999
20
141.815764
42
0.027216000000003439
10
137.44335100000001
20
142.42566200000002
42
0.015134000000008977
10
139.42876299999998
20
143.34056000000001
42
0.01505900000000851
10
141.387854
20
144.391029
42
0.023502000000005862
10
143
20
145.42277000000004
42
-0.0022749999999865469
10
144.35951200000002
20
146.37649400000001
42
-0.0035009999999726965
0
LWPOLYLINE
5
104
100
AcDbEntity
8
0
100
AcDbPolyline
90
40
70
1
43
0.0
10
52.316493000000008
20
111.73575100000001
42
-0.011792999999994579
10
51.184674000000001
20
112.48920700000001
42
-0.24618700000000523
10
51.003748000000009
20
112.83920600000002
42
-0.25609700000002872
10
51.191501000000002
20
113.17716900000001
42
-0.013019999999991755
10
52.310053000000011
20
113.84197200000003
42
-0.018135999999996519
10
53.744468999999995
20
114.57773400000001
42
-0.01188499999999202
10
55.445479000000013
20
115.32495500000002
42
0.066085000000001018
10
59.709240000000001
20
117.77820200000001
42
0.044394999999999268
10
63.854997999999995
20
121.58517400000001
42
0.0436470000000002
10
67.348388999999997
20
126.16145000000002
42
0.055932000000001113
10
69.66628399999999
20
130.923104
42
-0.0050979999999903672
10
70.809779000000006
20
134.04150200000001
42
-0.10137400000001223
10
71.350149000000002
20
134.89632
42
-0.47260700000000611
10
71.83102199999999
20
134.85874999999999
42
-0.056434000000011843
10
72.415173999999993
20
133.78203200000002
42
0.003752000000020832
10
72.877189999999928
20
132.66392599999995
42
0.0015079999999895548
10
73.524801999999909
20
131.14222199999998
42
0.0014919999999811278
10
74.232281999999998
20
129.507139
42
0.0018869999999845764
10
74.896530000000013
20
128
42
0.065751999999998131
10
77.439425
20
123.85440700000002
42
0.042901000000002902
10
81.340944000000007
20
119.80886000000001
42
0.042596999999995902
10
85.922370000000001
20
116.45000300000001
42
0.060603999999999734
10
90.513722999999999
20
114.364152
10
95.911417
20
112.66267900000001
10
90.853803999999997
20
110.95050800000003
42
0.016253999999995626
10
88.723318999999989
20
110.15118999999999
42
0.013374999999990084
10
86.503986999999995
20
109.16492699999999
42
0.013590000000003969
10
84.513580000000005
20
108.148573
42
0.03460999999998976
10
83.14809600000001
20
107.27625900000001
42
0.049899000000005175
10
80.044824000000006
20
104.45749900000001
42
0.030192000000001173
10
76.946471000000003
20
100.57327800000002
42
0.030319000000001043
10
74.374669999999995
20
96.400480000000002
42
0.056146999999999801
10
72.901792
20
92.707949999999997
10
71.749141000000009
20
88.5
10
70.376459000000011
20
93.139746000000002
42
0.07112100000000092
10
68.282450000000011
20
97.709838000000019
42
0.037953000000001028
10
64.525334000000001
20
102.677572
42
0.037704999999998622
10
59.985561000000004
20
107.097549
42
0.061531000000001126
10
55.477927999999999
20
110.01068500000001
42
-0.011206999999996645
10
53.762182000000003
20
110.88926100000002
42
-0.017022999999998657
0
LWPOLYLINE
5
105
100
AcDbEntity
8
0
100
AcDbPolyline
90
14
70
1
43
0.0
10
58.140910000000005
20
144.24742800000001
42
0.014898000000006269
10
60.428228000000004
20
143.154292
42
0.0219110000000011
10
62.503053000000008
20
142.34426000000002
10
67.280940999999999
20
140.71626899999998
10
62.582936000000004
20
138.93293899999998
42
0.02007000000000261
10
60.533114000000012
20
138.059211
42
0.013332000000003156
10
58.253744999999995
20
136.902164
42
0.013429999999989376
10
56.097639999999998
20
135.658355
42
0.025380000000004482
10
54.44246500000002
20
134.52391300000002
10
51.000000000000007
20
131.89821699999999
10
51.000000000000007
20
140.5
10
51.000000000000007
20
149.10178300000001
10
54.362582000000003
20
146.53701599999999
42
0.028972000000006309
10
55.992385999999996
20
145.437073
42
0.015034000000007573
0
LWPOLYLINE
5
106
100
AcDbEntity
8
0
100
AcDbPolyline
90
34
70
1
43
0.0
10
124.14680700000002
20
127.33737900000001
42
0.084550999999999821
10
126.57010800000003
20
133.31919800000003
10
127.25175400000001
20
136.42271299999999
10
129.13073600000001
20
131.38567900000001
42
0.026945000000008514
10
130.097633
20
129.166639
42
0.016439000000004263
10
131.46239000000003
20
126.654597
42
0.016459999999999645
10
132.98327
20
124.247331
42
0.027898000000003968
10
134.42971299999999
20
122.353148
42
0.028920000000002069
10
136.07068300000003
20
120.64645800000001
42
0.017613000000002346
10
138.18903500000005
20
118.81836599999998
42
0.017629000000006004
10
140.42457400000001
20
117.14867900000002
42
0.029633999999998672
10
142.42485500000001
20
115.930543
42
-0.017498999999992819
10
144.17738899999998
20
114.920717
42
-0.024756000000007571
10
145.65605099999999
20
113.89331900000001
42
-0.022686000000006489
10
146.755696
20
112.963138
42
-0.2087889999999871
10
147
20
112.40359099999999
42
-0.20930699999998334
10
146.76659899999999
20
111.87046100000002
42
-0.029648000000008581
10
145.81864899999999
20
111.09411299999999
42
-0.029615999999996551
10
144.518698
20
110.265072
42
-0.021220000000006529
10
142.97838100000001
20
109.490251
42
0.063744000000002146
10
138.93401699999998
20
107.005348
42
0.04132900000000337
10
134.952922
20
103.214871
42
0.040841000000001078
10
131.58639099999999
20
98.746426000000014
42
0.05574899999999984
10
129.38320200000001
20
94.216229000000013
10
127.60678100000001
20
89.214601000000016
10
125.33035100000001
20
94.815634000000003
42
0.049477999999999807
10
122.67129500000001
20
99.862508000000005
42
0.051755000000001064
10
119.10678900000001
20
104.20601300000001
42
0.051341000000001871
10
114.698095
20
107.75353600000003
42
0.047272999999997393
10
109.53894699999999
20
110.44280500000001
10
103.661226
20
112.83169000000001
10
107.67649399999999
20
113.91288899999999
42
0.07982100000000085
10
113.71763300000001
20
116.627647
42
0.05433899999999893
10
119.53837700000001
20
121.43379400000001
42
0.054656000000004139
0
LWPOLYLINE
5
107
100
AcDbEntity
8
0
100
AcDbPolyline
90
30
70
1
43
0.0
10
112.79396399999999
20
88.995291000000009
42
0.030881999999995087
10
115.33314500000002
20
87.578057999999999
42
0.031672999999999944
10
118.00660100000002
20
86.497808000000006
10
123.39647600000001
20
84.707577999999998
10
118.56241499999999
20
83.164762999999994
42
0.067406999999998218
10
113.54536000000002
20
80.781056000000007
42
0.047255000000000942
10
108.64547700000001
20
76.878341000000006
42
0.046574000000000088
10
104.484058
20
72.043447999999998
42
0.05910300000000332
10
101.66420100000002
20
66.875923
10
99.408356000000012
20
61.251846
10
98.145724000000016
20
65.297467000000012
42
0.06425399999999977
10
95.512935999999996
20
71.025268000000011
42
0.054707999999997141
10
91.387745999999993
20
76.248356999999999
42
0.053960999999997178
10
86.162840000000003
20
80.51850300000001
42
0.058621000000002886
10
80.283564999999996
20
83.433255000000031
42
-0.0076709999999880797
10
78.183312000000001
20
84.220175000000012
42
-0.1184510000000116
10
77.555218000000011
20
84.658818999999994
42
-0.46922700000005213
10
77.613396999999992
20
85.038374000000005
42
-0.055691999999995141
10
78.5
20
85.444961000000006
42
0.048550000000001467
10
85.032378000000008
20
88.32872900000001
42
0.056547000000000729
10
90.530470999999991
20
92.301568000000017
42
0.059337000000002561
10
94.786602999999999
20
97.217712000000006
42
0.063524999999997417
10
97.65401
20
102.88854499999999
10
99.440175000000011
20
107.917608
10
101.359888
20
102.771384
42
0.034773000000001407
10
102.462181
20
100.345922
42
0.02377799999999522
10
104.02794200000002
20
97.755199000000005
42
0.023047000000001969
10
105.90491100000001
20
95.219774000000001
42
0.025517999999996065
10
107.94816300000001
20
92.956599000000011
42
0.024133999999999427
10
110.34674000000001
20
90.779034999999993
42
0.029522999999997315
0
LWPOLYLINE
5
108
100
AcDbEntity
8
0
100
AcDbPolyline
90
24
70
1
43
0.0
10
136.77618200000001
20
83.028746000000012
42
0.032840000000007849
10
134.006474
20
84.009637999999995
42
-0.015949000000007645
10
132.54423
20
84.472566999999998
42
-0.52013899999991708
10
132.45909
20
84.776600999999999
42
-0.15036100000001157
10
132.94337900000002
20
85.098123999999984
42
-0.0038120000000242942
10
135.5
20
85.83323399999999
42
0.027514000000004271
10
137.285281
20
86.439492999999999
42
0.016094000000013015
10
139.35312500000003
20
87.349497
42
0.016066000000001728
10
141.36978400000001
20
88.396529999999998
42
0.026165000000000299
10
143
20
89.426170999999997
42
-0.0022730000000087875
10
144.35951200000005
20
90.378591000000029
42
-0.0034980000000015402
10
145.54531300000002
20
91.189076999999997
42
-0.0011810000000008738
10
146.57522700000001
20
91.878965000000008
42
-0.098858000000065518
10
146.75
20
91.950963000000016
42
-0.46082599999993712
10
146.85179699999998
20
91.870322000000016
42
-0.0010870000000371592
10
146.92656199999999
20
89.736943000000025
42
-0.0051530000000030709
10
146.98204799999996
20
87.276958999999991
42
-0.0030610000000154168
10
147
20
84.345011999999997
42
-0.0036140000000115724
10
146.965316
20
79.546961999999994
42
-0.066103999999997984
10
146.74295900000001
20
78.039768000000009
42
-0.40563899999997927
10
146.19697500000001
20
77.726005000000001
42
-0.11822699999999853
10
145.25
20
78.224423000000002
42
0.044081999999999864
10
143.180644
20
79.738748999999999
42
0.017108000000000012
10
140.07873999999998
20
81.471475999999996
42
0.017297999999999258
0
LWPOLYLINE
5
109
100
AcDbEntity
8
0
100
AcDbPolyline
90
16
70
1
43
0.0
10
66.458534999999998
20
84.434149000000005
42
-0.017248000000006876
10
64.993526000000017
20
83.982402000000022
42
0.035154000000003488
10
62.034767000000002
20
82.952749000000011
42
0.021372999999999809
10
58.695155999999997
20
81.348126000000036
42
0.021451999999997976
10
55.559843000000015
20
79.496116000000001
42
0.041087000000000776
10
53.25
20
77.708713000000003
10
51.000000000000007
20
75.651371999999995
10
51.000000000000007
20
84.373727000000002
10
51.000000000000007
20
93.096081000000027
10
55.25
20
90.192600000000013
42
0.018778999999995553
10
57.168934
20
88.984739000000005
42
0.012920999999996808
10
59.426562000000004
20
87.756096000000014
42
0.013044000000006124
10
61.663630000000005
20
86.685203000000001
42
0.025765000000000069
10
63.500000000000007
20
85.975348000000025
42
-0.0039360000000245032
10
66.069258000000005
20
85.109028000000023
42
-0.14975199999998262
10
66.556321999999994
20
84.753618000000003
42
-0.5080659999999847
0
LWPOLYLINE
5
110
100
AcDbEntity
8
0
100
AcDbPolyline
90
36
70
1
43
0.0
10
135.720552
20
64.889811000000009
42
0.032157000000002413
10
138.46493799999999
20
62.455242999999996
42
0.03321600000000316
10
141.39897500000001
20
60.469650000000001
42
0.041327999999999608
10
144.369394
20
59.049656000000006
42
-0.078275999999994697
10
146.23804000000001
20
57.980844000000005
42
-0.21587899999999596
10
146.908897
20
56.659431000000005
42
-0.25027000000001148
10
146.322564
20
55.432892000000002
42
-0.097431999999994676
10
144.56743899999998
20
54.606281999999993
42
0.10834600000000291
10
140.915457
20
52.788925000000006
42
0.033793999999997305
10
136.39023500000002
20
48.613914000000008
42
0.034363000000001281
10
132.24778700000002
20
43.58833400000001
42
0.05986999999999832
10
129.656632
20
38.857300000000009
10
127.393219
20
33.214601000000002
10
125.59191200000001
20
38.357300000000002
42
0.069406000000000689
10
122.91616000000002
20
43.553894
42
0.045057999999999911
10
118.535003
20
48.711837000000003
42
0.045434999999998456
10
113.37420900000001
20
52.934801
42
0.077971999999998459
10
108.35423
20
55.294122000000002
10
103.558288
20
56.692553000000004
10
108.63843500000002
20
58.379906999999996
42
0.030120999999998191
10
110.878067
20
59.276800999999999
42
0.018212000000001088
10
113.41669400000001
20
60.590544000000008
42
0.018214999999999322
10
115.85140500000001
20
62.08460500000001
42
0.030289999999998828
10
117.77102499999999
20
63.536001000000006
42
0.054199000000001024
10
120.868089
20
66.830235000000002
42
0.029783999999998249
10
123.93553700000001
20
71.444268999999991
42
0.028867000000005593
10
126.312648
20
76.130370999999997
42
0.099282000000000842
10
127.032646
20
79.446343999999996
42
-0.46896499999999136
10
127.24576200000001
20
79.617936
42
-0.21395200000004977
10
127.58027300000001
20
79.378771999999998
42
-0.037307999999991508
10
128.15987300000003
20
78.190964000000022
42
-0.011665000000009166
10
128.851066
20
76.33245500000001
42
0.020981000000007955
10
129.73006999999998
20
74.097285999999997
42
0.014614999999993101
10
130.89931000000001
20
71.65101199999998
42
0.014770999999993097
10
132.16120000000001
20
69.366367000000025
42
0.029365999999991843
10
133.31612900000005
20
67.652180000000016
42
0.032325000000000735
0
LWPOLYLINE
5
111
100
AcDbEntity
8
0
100
AcDbPolyline
90
40
70
1
43
0.0
10
73.542397999999991
20
38.679186000000001
42
0.031559999999997604
10
72.529954000000004
20
35.5
10
71.779229000000001
20
32.5
10
70.472472999999979
20
36.826684
42
0.058986999999997805
10
67.949937000000006
20
42.612347000000014
42
0.054321999999999107
10
64.087418
20
47.827016000000015
42
0.054726000000000601
10
59.224580000000003
20
52.052570000000017
42
0.061907999999998797
10
53.75
20
54.919362000000007
42
-0.045979999999996177
10
51.60323300000001
20
55.958038999999999
42
-0.31976599999998123
10
51.164671000000013
20
56.969051000000007
42
-0.23464500000000665
10
51.969484000000001
20
57.983559000000007
42
-0.03011600000000186
10
54.627397000000002
20
59.042044999999995
42
0.08113900000000171
10
58.878377
20
61.258918000000016
42
0.041819999999998261
10
63.376917000000013
20
65.254148000000001
42
0.041340000000000834
10
67.255760999999993
20
70.066874000000013
42
0.064823999999999923
10
69.641631000000004
20
74.807585000000003
10
71.5
20
80.115169999999992
10
72.704895999999991
20
77.307585000000003
42
-0.0097790000000009258
10
73.171290999999997
20
76.159365000000008
42
-0.010801000000005039
10
73.576385999999999
20
75.030978000000005
42
-0.010246999999997449
10
73.880985999999993
20
74.055210000000002
42
-0.05312600000000673
10
73.979686999999998
20
73.5
42
0.11259699999998507
10
74.163537000000005
20
72.892852000000005
42
0.0086510000000016747
10
75.039789999999996
20
71.416291999999999
42
0.011516000000000885
10
76.167388000000003
20
69.679777999999999
42
0.0085219999999999151
10
77.490397999999999
20
67.810781000000006
42
0.03206899999999982
10
79.536038000000005
20
65.368017000000009
42
0.038724999999997421
10
81.760643000000002
20
63.368673000000008
42
0.033648000000005944
10
84.515008999999992
20
61.534672
42
0.016839999999998946
10
88.215606999999991
20
59.577456000000019
42
-0.0091809999999989383
10
90.892460999999997
20
58.213737000000016
42
-0.021234000000001231
10
92.836382
20
57.069532999999993
42
-0.043129999999987609
10
93.826315000000008
20
56.300182999999997
42
-0.67877999999993066
10
93.716756000000018
20
56.016675000000006
42
0.1035860000000018
10
90.807241000000033
20
55.378911000000002
42
0.026281999999998799
10
86.482421000000016
20
53.156013000000009
42
0.027717999999998681
10
82.202159999999992
20
50.334891000000006
42
0.05307399999999976
10
79.17868
20
47.550724000000002
42
0.022805000000000131
10
76.783631999999997
20
44.558083999999994
42
0.031300000000000314
10
74.933048999999997
20
41.650154999999998
42
0.033202999999997283
0
LWPOLYLINE
5
112
100
AcDbEntity
8
0
100
AcDbPolyline
90
24
70
1
43
0.0
10
99.555292000000009
20
51.932893
42
-0.3068269999999485
10
99.654352000000017
20
52
42
-0.31318399999996005
10
99.752220000000051
20
51.932031999999992
42
-0.0010400000000112758
10
100.288374
20
50.484327
42
-0.0049580000000046687
10
100.88266899999999
20
48.818546000000005
42
-0.0030229999999918018
10
101.553057
20
46.840260999999998
42
0.061054999999996702
10
103.636832
20
42.444220000000001
42
0.043173000000000128
10
106.950568
20
38.093286999999997
42
0.04234399999999873
10
111.053856
20
34.278535000000005
42
0.051258999999998785
10
115.5
20
31.479196999999996
10
119.50000000000001
20
29.5
10
109.80319399999999
20
29.21443
42
-0.0047179999999857388
10
105.34734700000001
20
29.125273999999948
42
-0.0026429999999924209
10
99.928261000000006
20
29.096631999999971
42
-0.0026360000000070958
10
94.451583000000014
20
29.125508000000018
42
-0.0042910000000014352
10
89.803193999999991
20
29.21443
10
79.5
20
29.5
10
84.247326000000001
20
31.837911999999996
42
0.054409999999996544
10
88.466654000000005
20
34.520503999999995
42
0.043690000000002407
10
92.359826999999996
20
38.238278000000001
42
0.043403999999998735
10
95.574066000000002
20
42.606546999999999
42
0.051630000000003937
10
97.773700000000019
20
47.225539000000012
42
-0.0032210000000043016
10
98.437160000000006
20
49.056077999999999
42
-0.0052700000000027673
10
99.025634000000025
20
50.597501999999999
42
-0.0011820000000539754
0
LWPOLYLINE
5
113
100
AcDbEntity
8
0
100
AcDbPolyline
90
18
70
1
43
0.0
10
51.799037000000006
20
36.584005000000005
42
-0.019798999999996739
10
53.25
20
35.624513000000007
42
0.013900999999994586
10
54.373414000000011
20
34.862430000000003
42
0.0056680000000130792
10
55.940624999999983
20
33.886573999999982
42
0.0056029999999960365
10
57.649466999999987
20
32.875250999999977
42
0.0071210000000008905
10
59.250000000000007
20
31.982218000000017
42
-0.0092620000000086158
10
60.687155000000004
20
31.172255000000003
42
-0.014183999999998979
10
61.898437999999999
20
30.412664000000007
42
-0.0086050000000016617
10
62.864641000000006
20
29.743560000000002
42
-0.24151499999998757
10
63.000000000000007
20
29.479676000000001
42
-0.38404999999995054
10
62.826768000000008
20
29.287407999999999
42
-0.0060730000000043432
10
61.237500000000011
20
29.140905000000004
42
-0.012447999999999316
10
59.300567000000008
20
29.034495999999976
42
-0.007496999999995084
10
57
20
29.000000000000004
10
51.000000000000007
20
29.000000000000004
10
51.000000000000014
20
33.121972
42
-0.0061169999999920819
10
51.033594999999998
20
35.867865999999999
42
-0.17883099999999508
10
51.288243999999999
20
36.508421000000006
42
-0.36026399999998798
0
LWPOLYLINE
5
114
100
AcDbEntity
8
0
100
AcDbPolyline
90
18
70
1
43
0.0
10
142.168814
20
33.062451000000003
42
0.010192999999999385
10
143.5
20
33.934113999999994
10
146.5
20
35.987087000000002
10
146.82052899999999
20
32.897406000000004
42
-0.015098000000000077
10
146.909741
20
31.680474000000004
42
-0.020564000000011576
10
146.91179
20
30.580206000000004
42
-0.017940000000006451
10
146.84461399999998
20
29.687821999999997
42
-0.17021200000001385
10
146.68110100000001
20
29.347767999999999
42
-0.18491600000001202
10
146.29861599999998
20
29.177098999999991
42
-0.0077399999999986551
10
144.781589
20
29.118636999999996
42
-0.012482000000001228
10
142.94796100000002
20
29.122165000000013
42
-0.008455999999993578
10
140.86057199999999
20
29.213645999999933
42
-0.0033610000000001551
10
137.51124799999999
20
29.439837000000004
42
-0.10232600000000062
10
136.70754600000004
20
29.669288000000002
42
-0.58458000000003296
10
136.696943
20
30.013990999999997
42
-0.026392999999992849
10
138
20
30.710309999999996
42
0.015673000000001457
10
139.17070900000002
20
31.304014999999985
42
0.00737200000000021
10
140.64687499999997
20
32.14026999999998
42
0.0072970000000044423
0
LWPOLYLINE
5
115
100
AcDbEntity
8
0
100
AcDbPolyline
90
8
70
1
43
0.0
10
153.5
20
259.5
10
99.25
20
259.75861200000003
10
45
20
260.017225
10
45
20
142.508612
10
45
20
25
10
99.504131000000001
20
25
10
154.008263
20
25
10
153.754131
20
142.25
0
LWPOLYLINE
5
116
100
AcDbEntity
8
0
100
AcDbPolyline
90
10
70
1
43
0.0
10
61.59072900000001
20
250.42674500000004
42
0.023693999999997637
10
59.851604000000009
20
249.694356
42
0.014033999999984254
10
57.848467000000014
20
248.66665699999999
42
0.0140270000000038
10
55.902937000000001
20
247.52635600000002
42
0.023356000000009577
10
54.340729000000003
20
246.44631500000003
10
51.000000000000007
20
243.89821699999999
10
51.000000000000007
20
247.94910900000002
10
51.000000000000007
20
252.00000000000003
10
58.25
20
251.92953799999998
10
65.5
20
251.85907600000002
0
LWPOLYLINE
5
117
100
AcDbEntity
8
0
100
AcDbPolyline
90
18
70
1
43
0.0
10
99.980861000000019
20
230.03816099999997
42
-0.54671499999987327
10
99.566341999999992
20
229.92873599999999
42
-0.10816300000001232
10
99.034085000000047
20
230.68581200000006
42
-0.0028099999999935702
10
97.445332000000008
20
234.53272899999999
42
0.040660999999996748
10
95.013483000000008
20
239.35217000000006
42
0.049451000000003048
10
91.964939000000001
20
243.38394199999999
42
0.049549000000004756
10
88.189505000000011
20
246.73247000000003
42
0.041079000000002794
10
83.591917000000024
20
249.51606600000005
10
78.607310999999996
20
252.00000000000003
10
100.05365600000002
20
251.95610699999975
42
-0.0013260000000066352
10
112.69266100000003
20
251.89672799999997
42
-0.017663000000003547
10
117.33878900000001
20
251.69834800000004
42
-0.28406899999997554
10
118.026596
20
251.19522400000005
42
-0.4268390000000617
10
117.747969
20
250.57324700000004
42
0.069980000000001666
10
112.104889
20
247.61737799999997
42
0.051225000000004128
10
106.80351999999999
20
242.92439100000001
42
0.051947000000000396
10
102.65309200000002
20
237.35033999999999
42
0.080178999999999834
10
100.450513
20
231.77468900000005
42
-0.02397100000000707
0
LWPOLYLINE
5
118
100
AcDbEntity
8
0
100
AcDbPolyline
90
38
70
1
43
0.0
10
52.431546000000004
20
225.46193700000003
42
-0.017914000000009863
10
54.005928000000011
20
226.43281099999999
42
-0.011934999999995588
10
55.873349000000005
20
227.435821
42
0.053905000000000279
10
60.391376000000001
20
230.374818
42
0.040460000000003597
10
64.672716000000008
20
234.48752500000001
42
0.041267999999998667
10
68.120829000000001
20
239.09825900000001
42
0.068237000000000825
10
70.114778999999999
20
243.52316700000003
42
-0.0038739999999937544
10
70.636069000000006
20
245.239586
42
-0.0063360000000018636
10
71.107474000000011
20
246.68492999999998
42
-0.0016739999999820518
10
71.534530000000004
20
247.926469
42
-0.31926699999994185
10
71.637949000000006
20
248
42
-0.31228500000015225
10
71.744281000000001
20
247.92641200000006
42
-0.0012120000000349789
10
72.286668000000006
20
246.47495600000002
42
-0.0053570000000011725
10
72.888026000000039
20
244.79885800000002
42
-0.0032710000000072087
10
73.563652000000005
20
242.80836300000001
42
0.066618000000000732
10
76.014425000000017
20
237.78272000000001
42
0.048313000000000404
10
79.949876999999987
20
232.94893900000005
42
0.048133999999998484
10
84.760820999999993
20
228.93982200000005
42
0.064407000000006431
10
89.821182000000007
20
226.36991499999999
10
94.917608000000001
20
224.55982500000002
10
89.771383999999998
20
222.64011200000002
42
0.061429000000000865
10
84.630573000000012
20
219.965385
42
0.048806999999999934
10
79.840636000000003
20
215.93095300000002
42
0.049044000000001822
10
75.947890999999998
20
211.07018600000001
42
0.063920000000002905
10
73.473159999999993
20
205.94163700000001
42
-0.004543999999996229
10
72.362994
20
202.711085
42
-0.090995000000003448
10
71.845957999999996
20
201.81136600000002
42
-0.53385099999997865
10
71.423741000000007
20
201.85927900000002
42
-0.053082999999996744
10
70.979967000000002
20
203
42
0.061693000000000213
10
68.540537
20
208.96546200000003
42
0.049333000000001806
10
64.559196
20
214.661978
42
0.05063000000000193
10
59.690418000000008
20
219.29919900000002
42
0.078383999999995471
10
54.614656999999994
20
222.09469999999999
42
-0.017910999999978215
10
53.229801999999999
20
222.65231800000004
42
-0.026379000000001061
10
52.061805999999997
20
223.24761400000003
42
-0.024535000000007318
10
51.192786000000005
20
223.80851200000001
42
-0.24169100000000462
10
51.000000000000007
20
224.18404300000003
42
-0.23685199999998033
10
51.208083000000002
20
224.598668
42
-0.013030000000017288
0
LWPOLYLINE
5
119
100
AcDbEntity
8
0
100
AcDbPolyline
90
12
70
1
43
0.0
10
134.808763
20
251.48427800000002
42
-0.67143900000009726
10
134.80481599999999
20
251.75511400000005
42
-0.098032000000026986
10
135.555072
20
251.91293100000001
42
-0.0013469999999313684
10
140.25
20
251.95610700000015
10
147
20
252.00000000000003
10
147
20
248.431906
10
147
20
244.86381200000005
10
143.86492900000002
20
247.09617900000001
42
0.021555999999983696
10
142.40290100000004
20
248.04503100000002
42
0.012848000000006563
10
140.5889
20
249.05226499999998
42
0.012850000000020711
10
138.726403
20
249.96456499999999
42
0.021643000000011875
10
137.11492900000005
20
250.62038000000001
42
-0.0076029999999968944
0
LWPOLYLINE
5
120
100
AcDbEntity
8
0
100
AcDbPolyline
90
34
70
1
43
0.0
10
104.21460100000002
20
224.39321899999999
10
109.85730000000001
20
226.67014700000004
42
0.054678000000004182
10
114.897402
20
229.37651700000001
42
0.048390000000006379
10
119.46136600000001
20
233.21082100000001
42
0.048971999999995908
10
123.15070400000002
20
237.79655300000002
42
0.059660000000000428
10
125.59758899999999
20
242.72968800000001
10
127.393219
20
247.78539900000001
10
129.650081
20
242.23251200000004
42
0.027003999999994348
10
130.779359
20
239.83397999999997
42
0.018033000000000035
10
132.31446399999999
20
237.21451900000002
42
0.018180999999996891
10
133.99197000000001
20
234.775679
42
0.033668999999995702
10
135.55111200000002
20
232.94765699999999
42
0.024828000000000711
10
137.23107199999998
20
231.38995400000002
42
0.017232999999985198
10
139.27112399999999
20
229.79503700000004
42
0.017422999999996774
10
141.34124600000001
20
228.39622900000001
42
0.033953999999988223
10
143.09763999999998
20
227.45597000000004
42
-0.021866000000002116
10
144.59222600000001
20
226.70173399999999
42
-0.030335999999977926
10
145.85368200000002
20
225.89009000000001
42
-0.030726999999990685
10
146.770624
20
225.12739400000001
42
-0.20675800000001843
10
147
20
224.59640899999999
42
-0.20878899999995768
10
146.755696
20
224.03686200000004
42
-0.022686000000015378
10
145.65605099999999
20
223.10668100000001
42
-0.024755999999998581
10
144.17738899999998
20
222.07928300000003
42
-0.017499000000014257
10
142.42485500000001
20
221.06945699999997
42
0.05064499999999602
10
138.28256600000003
20
218.30224999999999
42
0.042000000000001238
10
134.489195
20
214.59359900000004
42
0.042027000000003589
10
131.37145699999999
20
210.30615699999998
42
0.05090799999999978
10
129.24093200000002
20
205.81565700000002
10
127.55982500000002
20
201.082392
10
125.64011200000003
20
206.22861599999999
42
0.062291000000004884
10
123.0211
20
211.24130300000002
42
0.045038999999998906
10
118.975617
20
216.08437600000002
42
0.045279000000004545
10
114.16151000000001
20
220.09319000000002
42
0.065747000000000222
10
109.24492200000002
20
222.60660700000003
0
LWPOLYLINE
5
121
100
AcDbEntity
8
0
100
AcDbPolyline
90
28
70
1
43
0.0
10
86.203447000000011
20
192.15070400000002
42
0.059660000000000428
10
81.270312000000018
20
194.597589
10
76.214601000000002
20
196.39321899999999
10
81.857299999999995
20
198.67014699999999
42
0.054656999999994779
10
86.912079000000006
20
201.38412399999999
42
0.048739000000003599
10
91.475233000000017
20
205.22251299999999
42
0.04926600000000473
10
95.162349000000006
20
209.823308
42
0.059037000000003691
10
97.621067000000025
20
214.79579200000003
10
99.440175000000011
20
219.91760800000003
10
101.277568
20
214.99206200000003
42
0.034135000000002753
10
102.28109400000001
20
212.77643500000005
42
0.018021999999991191
10
103.80677900000002
20
210.16995899999998
42
0.017851000000005359
10
105.567706
20
207.603252
42
0.026246999999988356
10
107.30748
20
205.49311500000002
42
0.027848000000005604
10
109.47394299999999
20
203.37912900000003
42
0.027511000000003592
10
111.87041600000001
20
201.50978899999998
42
0.027653000000000958
10
114.44476700000001
20
199.923812
42
0.02886100000000193
10
117.1427
20
198.65646600000002
10
122.785399
20
196.39321899999999
10
117.755078
20
194.60660700000003
42
0.065834000000001225
10
112.806591
20
192.07579699999999
42
0.045322999999998941
10
107.961989
20
188.03801100000001
42
0.045322999999995853
10
103.92420300000001
20
183.193409
42
0.065834000000000045
10
101.39339300000002
20
178.24492200000003
10
99.606781000000026
20
173.21460099999999
10
97.329853000000014
20
178.85730000000001
42
0.054678000000003286
10
94.623483000000007
20
183.89740200000003
42
0.048390000000002473
10
90.789179000000004
20
188.461366
42
0.048972000000000349
0
LWPOLYLINE
5
122
100
AcDbEntity
8
0
100
AcDbPolyline
90
14
70
1
43
0.0
10
51.000000000000007
20
196.381485
10
51.000000000000007
20
204.86475200000001
10
55.973900999999998
20
201.51756300000002
42
0.017630999999991397
10
58.114369999999994
20
200.18428500000002
42
0.015580000000007123
10
60.432368000000011
20
198.94591200000005
42
0.015842000000000855
10
62.591522000000012
20
197.96135500000003
42
0.045016000000010922
10
64.167034999999998
20
197.46331300000003
10
67.386268000000001
20
196.75625100000002
10
62.635599000000006
20
194.95293000000004
42
0.019886999999992685
10
60.565540999999996
20
194.07147100000003
42
0.013313999999979162
10
58.26921500000001
20
192.90803700000001
42
0.013419000000010346
10
56.101156999999986
20
191.65972600000001
42
0.025593999999993625
10
54.442465000000013
20
190.52391299999999
10
51.000000000000007
20
187.89821700000002
0
LWPOLYLINE
5
123
100
AcDbEntity
8
0
100
AcDbPolyline
90
20
70
1
43
0.0
10
138.23156499999999
20
194.22912100000002
42
0.014956000000012157
10
136.19997200000003
20
195.106697
42
0.040431999999975252
10
134.69902400000001
20
195.56610500000002
10
131.613732
20
196.24374900000004
10
136.26891899999998
20
198.01082600000001
42
0.016203000000005161
10
138.25536800000003
20
198.83945500000004
42
0.012346000000005866
10
140.37560400000001
20
199.86963799999998
42
0.012521000000012897
10
142.31651299999999
20
200.93506000000005
42
0.02845099999999175
10
143.712053
20
201.85727100000003
42
-0.0033289999999972608
10
144.798598
20
202.65645800000001
42
-0.0050570000000124951
10
145.75447800000001
20
203.33513100000005
42
-0.0020329999999350056
10
146.58002400000001
20
203.90383400000005
42
-0.11883200000007398
10
146.75
20
203.96832000000003
42
-0.44023300000004334
10
146.85178399999998
20
203.882003
42
-0.0011190000000352613
10
146.92656200000002
20
201.794039
42
-0.0052569999999941466
10
146.982043
20
199.38727400000002
42
-0.0031340000000024391
10
147
20
196.52202399999999
10
147
20
189.04404800000003
10
142.39215799999999
20
191.96625500000005
42
0.017171999999991416
10
140.40173100000001
20
193.134713
42
0.014708999999988412
0
ENDSEC
0
SECTION
2
OBJECTS
0
DICTIONARY
5
C
100
AcDbDictionary
3
ACAD_GROUP
350
D
3
ACAD_MLINESTYLE
350
17
0
DICTIONARY
5
D
100
AcDbDictionary
0
DICTIONARY
5
1A
330
C
100
AcDbDictionary
0
DICTIONARY
5
17
100
AcDbDictionary
0
ENDSEC
0
EOF
