0
SECTION
2
HEADER
9
$INSUNITS
70
4
9
$ACADVER
1
AC1014
9
$HANDSEED
5
FFFF
0
ENDSEC
0
SECTION
2
TABLES
0
TABLE
2
VPORT
5
8
100
AcDbSymbolTable
0
ENDTAB
0
TABLE
2
LTYPE
5
5
100
AcDbSymbolTable
0
LTYPE
5
14
100
AcDbSymbolTableRecord
100
AcDbLinetypeTableRecord
2
BYBLOCK
70
0
0
LTYPE
5
15
100
AcDbSymbolTableRecord
100
AcDbLinetypeTableRecord
2
BYLAYER
70
0
0
ENDTAB
0
TABLE
2
LAYER
5
2
100
AcDbSymbolTable
70
2
0
LAYER
5
50
100
AcDbSymbolTableRecord
100
AcDbLayerTableRecord
2
0
70
0
6
CONTINUOUS
0
ENDTAB
0
TABLE
2
STYLE
5
3
100
AcDbSymbolTable
70
1
0
STYLE
5
11
100
AcDbSymbolTableRecord
100
AcDbTextStyleTableRecord
2
STANDARD
70
0
0
ENDTAB
0
TABLE
2
VIEW
5
6
100
AcDbSymbolTable
70
0
0
ENDTAB
0
TABLE
2
UCS
5
7
100
AcDbSymbolTable
70
0
0
ENDTAB
0
TABLE
2
APPID
5
9
100
AcDbSymbolTable
70
2
0
APPID
5
12
100
AcDbSymbolTableRecord
100
AcDbRegAppTableRecord
2
ACAD
70
0
0
ENDTAB
0
TABLE
2
DIMSTYLE
5
A
100
AcDbSymbolTable
70
1
0
ENDTAB
0
TABLE
2
BLOCK_RECORD
5
1
100
AcDbSymbolTable
70
1
0
BLOCK_RECORD
5
1F
100
AcDbSymbolTableRecord
100
AcDbBlockTableRecord
2
*MODEL_SPACE
0
BLOCK_RECORD
5
1B
100
AcDbSymbolTableRecord
100
AcDbBlockTableRecord
2
*PAPER_SPACE
0
ENDTAB
0
ENDSEC
0
SECTION
2
BLOCKS
0
BLOCK
5
20
100
AcDbEntity
100
AcDbBlockBegin
2
*MODEL_SPACE
0
ENDBLK
5
21
100
AcDbEntity
100
AcDbBlockEnd
0
BLOCK
5
1C
100
AcDbEntity
100
AcDbBlockBegin
2
*PAPER_SPACE
0
ENDBLK
5
1D
100
AcDbEntity
100
AcDbBlockEnd
0
ENDSEC
0
SECTION
2
ENTITIES
0
LWPOLYLINE
5
100
100
AcDbEntity
8
0
100
AcDbPolyline
90
4
70
1
43
0.0
10
154
20
260
10
45
20
260
10
45
20
23.999999999999986
10
154
20
24.000000000000004
0
LINE
5
101
100
AcDbEntity
8
0
100
AcDbLine
10
128.3056
20
92.2089
30
0
11
127.75120000000001
21
92.555000000000007
31
0
0
LINE
5
102
100
AcDbEntity
8
0
100
AcDbLine
10
131.91589999999999
20
89.434799999999996
30
0
11
131.42959999999999
21
89.866700000000009
31
0
0
LINE
5
103
100
AcDbEntity
8
0
100
AcDbLine
10
123.608
20
94.588099999999997
30
0
11
122.9795
21
94.819500000000005
31
0
0
LINE
5
104
100
AcDbEntity
8
0
100
AcDbLine
10
137.3031
20
82.906499999999994
30
0
11
136.952
21
83.461600000000004
31
0
0
LINE
5
105
100
AcDbEntity
8
0
100
AcDbLine
10
132.85830000000001
20
88.537700000000001
30
0
11
132.3921
21
88.991699999999994
31
0
0
LINE
5
106
100
AcDbEntity
8
0
100
AcDbLine
10
139.93819999999999
20
51.94230000000001
30
0
11
140.19540000000001
21
52.538800000000009
31
0
0
LINE
5
107
100
AcDbEntity
8
0
100
AcDbLine
10
121.69560000000001
20
95.23520000000002
30
0
11
121.04040000000001
21
95.418900000000008
31
0
0
LINE
5
108
100
AcDbEntity
8
0
100
AcDbLine
10
57.518700000000003
20
81.193100000000001
30
0
11
57.642099999999999
21
80.543700000000001
31
0
0
LINE
5
109
100
AcDbEntity
8
0
100
AcDbLine
10
133.7602
20
87.598299999999995
30
0
11
133.31440000000001
21
88.073099999999997
31
0
0
LINE
5
110
100
AcDbEntity
8
0
100
AcDbLine
10
142.49799999999999
20
64.004499999999993
30
0
11
142.50069999999999
21
64.664299999999997
31
0
0
LINE
5
111
100
AcDbEntity
8
0
100
AcDbLine
10
141.96010000000001
20
70.593800000000016
30
0
11
141.8383
21
71.246499999999997
31
0
0
LINE
5
112
100
AcDbEntity
8
0
100
AcDbLine
10
139.45349999999999
20
78.825500000000005
30
0
11
139.1797
21
79.427400000000006
31
0
0
LINE
5
113
100
AcDbEntity
8
0
100
AcDbLine
10
140.4349
20
76.364599999999996
30
0
11
140.20670000000001
21
76.987200000000001
31
0
0
LINE
5
114
100
AcDbEntity
8
0
100
AcDbLine
10
139.71600000000001
20
78.2179
30
0
11
139.45349999999999
21
78.825500000000005
31
0
0
LINE
5
115
100
AcDbEntity
8
0
100
AcDbLine
10
139.38159999999999
20
50.767899999999997
30
0
11
139.667
21
51.351900000000008
31
0
0
LINE
5
116
100
AcDbEntity
8
0
100
AcDbLine
10
139.667
20
51.351900000000008
30
0
11
139.93819999999999
21
51.94230000000001
31
0
0
LINE
5
117
100
AcDbEntity
8
0
100
AcDbLine
10
142.46809999999999
20
65.985299999999995
30
0
11
142.43279999999999
21
66.645900000000012
31
0
0
LINE
5
118
100
AcDbEntity
8
0
100
AcDbLine
10
57.432400000000001
20
81.847899999999996
30
0
11
57.518700000000003
21
81.193100000000001
31
0
0
LINE
5
119
100
AcDbEntity
8
0
100
AcDbLine
10
142.50069999999999
20
64.664299999999997
30
0
11
142.4907
21
65.324700000000007
31
0
0
LINE
5
120
100
AcDbEntity
8
0
100
AcDbLine
10
142.25200000000001
20
68.624899999999997
30
0
11
142.167
21
69.282700000000006
31
0
0
LINE
5
121
100
AcDbEntity
8
0
100
AcDbLine
10
126.61380000000001
20
93.206900000000005
30
0
11
126.03110000000001
21
93.512100000000004
31
0
0
LINE
5
122
100
AcDbEntity
8
0
100
AcDbLine
10
142.35820000000001
20
61.376300000000008
30
0
11
142.4126
21
62.031100000000009
31
0
0
LINE
5
123
100
AcDbEntity
8
0
100
AcDbLine
10
142.167
20
69.282700000000006
30
0
11
142.06960000000004
21
69.939099999999996
31
0
0
LINE
5
124
100
AcDbEntity
8
0
100
AcDbLine
10
142.4907
20
65.324700000000007
30
0
11
142.46809999999999
21
65.985299999999995
31
0
0
LINE
5
125
100
AcDbEntity
8
0
100
AcDbLine
10
133.31440000000001
20
88.073099999999997
30
0
11
132.85830000000001
21
88.537700000000001
31
0
0
LINE
5
126
100
AcDbEntity
8
0
100
AcDbLine
10
140.19540000000001
20
52.538800000000009
30
0
11
140.43860000000001
21
53.141199999999998
31
0
0
LINE
5
127
100
AcDbEntity
8
0
100
AcDbLine
10
141.75530000000003
20
57.497800000000005
30
0
11
141.88910000000001
21
58.136800000000008
31
0
0
LINE
5
128
100
AcDbEntity
8
0
100
AcDbLine
10
142.1164
20
59.424600000000005
30
0
11
142.21019999999999
21
60.072699999999998
31
0
0
LINE
5
129
100
AcDbEntity
8
0
100
AcDbLine
10
141.44739999999999
20
56.230800000000009
30
0
11
141.60810000000001
21
56.862300000000005
31
0
0
LINE
5
130
100
AcDbEntity
8
0
100
AcDbLine
10
132.3921
20
88.991699999999994
30
0
11
131.91589999999999
21
89.434799999999996
31
0
0
LINE
5
131
100
AcDbEntity
8
0
100
AcDbLine
10
141.8383
20
71.246499999999997
30
0
11
141.7045
21
71.897099999999995
31
0
0
LINE
5
132
100
AcDbEntity
8
0
100
AcDbLine
10
140.66800000000001
20
53.749099999999999
30
0
11
140.88339999999999
21
54.362300000000005
31
0
0
LINE
5
133
100
AcDbEntity
8
0
100
AcDbLine
10
57.642099999999999
20
80.543700000000001
30
0
11
57.801800000000007
21
79.901799999999994
31
0
0
LINE
5
134
100
AcDbEntity
8
0
100
AcDbLine
10
142.48240000000004
20
63.345500000000001
30
0
11
142.49799999999999
21
64.004499999999993
31
0
0
LINE
5
135
100
AcDbEntity
8
0
100
AcDbLine
10
140.6515
20
75.7376
30
0
11
140.4349
21
76.364599999999996
31
0
0
LINE
5
136
100
AcDbEntity
8
0
100
AcDbLine
10
130.42740000000003
20
90.696100000000001
30
0
11
129.91149999999999
21
91.093000000000018
31
0
0
LINE
5
137
100
AcDbEntity
8
0
100
AcDbLine
10
140.43860000000001
20
53.141199999999998
30
0
11
140.66800000000001
21
53.749099999999999
31
0
0
LINE
5
138
100
AcDbEntity
8
0
100
AcDbLine
10
142.21019999999999
20
60.072699999999998
30
0
11
142.29079999999999
21
60.723400000000005
31
0
0
LINE
5
139
100
AcDbEntity
8
0
100
AcDbLine
10
142.29079999999999
20
60.723400000000005
30
0
11
142.35820000000001
21
61.376300000000008
31
0
0
LINE
5
140
100
AcDbEntity
8
0
100
AcDbLine
10
57.741700000000009
20
85.759500000000003
30
0
11
57.587200000000003
21
85.121000000000009
31
0
0
LINE
5
141
100
AcDbEntity
8
0
100
AcDbLine
10
140.20670000000001
20
76.987200000000001
30
0
11
139.96710000000002
21
77.605099999999993
31
0
0
LINE
5
142
100
AcDbEntity
8
0
100
AcDbLine
10
122.9795
20
94.819500000000005
30
0
11
122.34200000000001
21
95.035300000000007
31
0
0
LINE
5
143
100
AcDbEntity
8
0
100
AcDbLine
10
114.01690000000002
20
96.306700000000021
30
0
11
113.26880000000001
21
96.29440000000001
31
0
0
LINE
5
144
100
AcDbEntity
8
0
100
AcDbLine
10
62.485199999999999
20
91.573599999999999
30
0
11
61.807200000000009
21
91.178600000000003
31
0
0
LINE
5
145
100
AcDbEntity
8
0
100
AcDbLine
10
57.475099999999998
20
84.474100000000021
30
0
11
57.404400000000003
21
83.820999999999998
31
0
0
LINE
5
146
100
AcDbEntity
8
0
100
AcDbLine
10
63.216099999999997
20
91.9328
30
0
11
62.485199999999999
21
91.573599999999999
31
0
0
LINE
5
147
100
AcDbEntity
8
0
100
AcDbLine
10
58.467700000000001
20
87.601700000000008
30
0
11
58.181000000000004
21
87.002200000000002
31
0
0
LINE
5
148
100
AcDbEntity
8
0
100
AcDbLine
10
57.996699999999997
20
79.269800000000004
30
0
11
58.226000000000006
21
78.650000000000006
31
0
0
LINE
5
149
100
AcDbEntity
8
0
100
AcDbLine
10
58.226000000000006
20
78.650000000000006
30
0
11
58.488900000000008
21
78.044700000000006
31
0
0
LINE
5
150
100
AcDbEntity
8
0
100
AcDbLine
10
111.74860000000001
20
96.210999999999999
30
0
11
110.97660000000002
21
96.13930000000002
31
0
0
LINE
5
151
100
AcDbEntity
8
0
100
AcDbLine
10
138.5984
20
80.613500000000016
30
0
11
138.2911
21
81.197100000000006
31
0
0
LINE
5
152
100
AcDbEntity
8
0
100
AcDbLine
10
141.88910000000001
20
58.136800000000008
30
0
11
142.0094
21
58.7791
31
0
0
LINE
5
153
100
AcDbEntity
8
0
100
AcDbLine
10
142.06960000000004
20
69.939099999999996
30
0
11
141.96010000000001
21
70.593800000000016
31
0
0
LINE
5
154
100
AcDbEntity
8
0
100
AcDbLine
10
57.801800000000007
20
79.901799999999994
30
0
11
57.996699999999997
21
79.269800000000004
31
0
0
LINE
5
155
100
AcDbEntity
8
0
100
AcDbLine
10
59.606400000000008
20
89.285799999999995
30
0
11
59.179500000000004
21
88.745800000000003
31
0
0
LINE
5
156
100
AcDbEntity
8
0
100
AcDbLine
10
127.75120000000001
20
92.555000000000007
30
0
11
127.18720000000002
21
92.887800000000013
31
0
0
LINE
5
157
100
AcDbEntity
8
0
100
AcDbLine
10
116.9273
20
96.166600000000017
30
0
11
116.21210000000002
21
96.229500000000016
31
0
0
LINE
5
158
100
AcDbEntity
8
0
100
AcDbLine
10
58.181000000000004
20
87.002200000000002
30
0
11
57.939300000000003
21
86.3874
31
0
0
LINE
5
159
100
AcDbEntity
8
0
100
AcDbLine
10
108.61360000000002
20
95.801299999999998
30
0
11
107.81059999999999
21
95.646600000000021
31
0
0
LINE
5
160
100
AcDbEntity
8
0
100
AcDbLine
10
118.3325
20
95.986800000000002
30
0
11
117.63420000000002
21
96.085599999999999
31
0
0
LINE
5
161
100
AcDbEntity
8
0
100
AcDbLine
10
57.374299999999998
20
83.164100000000019
30
0
11
57.383899999999997
21
82.505600000000001
31
0
0
LINE
5
162
100
AcDbEntity
8
0
100
AcDbLine
10
126.03110000000001
20
93.512100000000004
30
0
11
125.4391
21
93.803100000000001
31
0
0
LINE
5
163
100
AcDbEntity
8
0
100
AcDbLine
10
64.000771000000015
20
92.253860000000003
30
0
11
63.216099999999997
21
91.9328
31
0
0
LINE
5
164
100
AcDbEntity
8
0
100
AcDbLine
10
109.40900000000001
20
95.934799999999996
30
0
11
108.61360000000002
21
95.801299999999998
31
0
0
LINE
5
165
100
AcDbEntity
8
0
100
AcDbLine
10
58.800300000000007
20
88.183700000000002
30
0
11
58.467700000000001
21
87.601700000000008
31
0
0
LINE
5
166
100
AcDbEntity
8
0
100
AcDbLine
10
120.37640000000002
20
95.586299999999994
30
0
11
119.70370000000001
21
95.736900000000006
31
0
0
LINE
5
167
100
AcDbEntity
8
0
100
AcDbLine
10
129.91149999999999
20
91.093000000000018
30
0
11
129.38579999999999
21
91.477599999999995
31
0
0
LINE
5
168
100
AcDbEntity
8
0
100
AcDbLine
10
59.179500000000004
20
88.745800000000003
30
0
11
58.800300000000007
21
88.183700000000002
31
0
0
LINE
5
169
100
AcDbEntity
8
0
100
AcDbLine
10
57.587200000000003
20
85.121000000000009
30
0
11
57.475099999999998
21
84.474100000000021
31
0
0
LINE
5
170
100
AcDbEntity
8
0
100
AcDbLine
10
114.7568
20
96.299800000000019
30
0
11
114.01690000000002
21
96.306700000000021
31
0
0
LINE
5
171
100
AcDbEntity
8
0
100
AcDbLine
10
107.81059999999999
20
95.646600000000021
30
0
11
107.00000000000001
21
95.470600000000005
31
0
0
LINE
5
172
100
AcDbEntity
8
0
100
AcDbLine
10
83
20
241.47067300000003
30
0
11
82.190799999999996
21
241.27600000000001
31
0
0
LINE
5
173
100
AcDbEntity
8
0
100
AcDbLine
10
60.081699999999998
20
89.801400000000001
30
0
11
59.606400000000008
21
89.285799999999995
31
0
0
LINE
5
174
100
AcDbEntity
8
0
100
AcDbLine
10
127.18720000000002
20
92.887800000000013
30
0
11
126.61380000000001
21
93.206900000000005
31
0
0
LINE
5
175
100
AcDbEntity
8
0
100
AcDbLine
10
113.26880000000001
20
96.29440000000001
30
0
11
112.5127
21
96.26260000000002
31
0
0
LINE
5
176
100
AcDbEntity
8
0
100
AcDbLine
10
124.8379
20
94.079600000000013
30
0
11
124.22750000000001
21
94.341399999999993
31
0
0
LINE
5
177
100
AcDbEntity
8
0
100
AcDbLine
10
131.42959999999999
20
89.866700000000009
30
0
11
130.93340000000001
21
90.287300000000016
31
0
0
LINE
5
178
100
AcDbEntity
8
0
100
AcDbLine
10
110.97660000000002
20
96.13930000000002
30
0
11
110.19670000000002
21
96.047300000000021
31
0
0
LINE
5
179
100
AcDbEntity
8
0
100
AcDbLine
10
119.0224
20
95.870500000000021
30
0
11
118.3325
21
95.986800000000002
31
0
0
LINE
5
180
100
AcDbEntity
8
0
100
AcDbLine
10
60.606400000000001
20
90.290200000000013
30
0
11
60.081699999999998
21
89.801400000000001
31
0
0
LINE
5
181
100
AcDbEntity
8
0
100
AcDbLine
10
124.22750000000001
20
94.341399999999993
30
0
11
123.608
21
94.588099999999997
31
0
0
LINE
5
182
100
AcDbEntity
8
0
100
AcDbLine
10
117.63420000000002
20
96.085599999999999
30
0
11
116.9273
21
96.166600000000017
31
0
0
LINE
5
183
100
AcDbEntity
8
0
100
AcDbLine
10
61.181200000000004
20
90.750100000000003
30
0
11
60.606400000000001
21
90.290200000000013
31
0
0
LINE
5
184
100
AcDbEntity
8
0
100
AcDbLine
10
125.4391
20
93.803100000000001
30
0
11
124.8379
21
94.079600000000013
31
0
0
LINE
5
185
100
AcDbEntity
8
0
100
AcDbLine
10
57.404400000000003
20
83.820999999999998
30
0
11
57.374299999999998
21
83.164100000000019
31
0
0
LINE
5
186
100
AcDbEntity
8
0
100
AcDbLine
10
112.5127
20
96.26260000000002
30
0
11
111.74860000000001
21
96.210999999999999
31
0
0
LINE
5
187
100
AcDbEntity
8
0
100
AcDbLine
10
57.383899999999997
20
82.505600000000001
30
0
11
57.432400000000001
21
81.847899999999996
31
0
0
LINE
5
188
100
AcDbEntity
8
0
100
AcDbLine
10
110.19670000000002
20
96.047300000000021
30
0
11
109.40900000000001
21
95.934799999999996
31
0
0
LINE
5
189
100
AcDbEntity
8
0
100
AcDbLine
10
115.48860000000002
20
96.274000000000015
30
0
11
114.7568
21
96.299800000000019
31
0
0
LINE
5
190
100
AcDbEntity
8
0
100
AcDbLine
10
61.807200000000009
20
91.178600000000003
30
0
11
61.181200000000004
21
90.750100000000003
31
0
0
LINE
5
191
100
AcDbEntity
8
0
100
AcDbLine
10
122.34200000000001
20
95.035300000000007
30
0
11
121.69560000000001
21
95.23520000000002
31
0
0
LINE
5
192
100
AcDbEntity
8
0
100
AcDbLine
10
130.93340000000001
20
90.287300000000016
30
0
11
130.42740000000003
21
90.696100000000001
31
0
0
LINE
5
193
100
AcDbEntity
8
0
100
AcDbLine
10
128.85050000000001
20
91.849600000000009
30
0
11
128.3056
21
92.2089
31
0
0
LINE
5
194
100
AcDbEntity
8
0
100
AcDbLine
10
116.21210000000002
20
96.229500000000016
30
0
11
115.48860000000002
21
96.274000000000015
31
0
0
LINE
5
195
100
AcDbEntity
8
0
100
AcDbLine
10
121.04040000000001
20
95.418900000000008
30
0
11
120.37640000000002
21
95.586299999999994
31
0
0
LINE
5
196
100
AcDbEntity
8
0
100
AcDbLine
10
129.38579999999999
20
91.477599999999995
30
0
11
128.85050000000001
21
91.849600000000009
31
0
0
LINE
5
197
100
AcDbEntity
8
0
100
AcDbLine
10
119.70370000000001
20
95.736900000000006
30
0
11
119.0224
21
95.870500000000021
31
0
0
LINE
5
198
100
AcDbEntity
8
0
100
AcDbLine
10
57.939300000000003
20
86.3874
30
0
11
57.741700000000009
21
85.759500000000003
31
0
0
LINE
5
199
100
AcDbEntity
8
0
100
AcDbLine
10
65.5655
20
92.711400000000012
30
0
11
64.791899999999998
21
92.516099999999994
31
0
0
LINE
5
200
100
AcDbEntity
8
0
100
AcDbLine
10
63.941100000000006
20
72.739500000000007
30
0
11
64.560299999999998
21
72.530000000000001
31
0
0
LINE
5
201
100
AcDbEntity
8
0
100
AcDbLine
10
73.596599999999995
20
74.570099999999996
30
0
11
74.124700000000004
21
75.047700000000006
31
0
0
LINE
5
202
100
AcDbEntity
8
0
100
AcDbLine
10
74.604500000000002
20
75.555300000000017
30
0
11
75.036799999999999
21
76.090599999999995
31
0
0
LINE
5
203
100
AcDbEntity
8
0
100
AcDbLine
10
66.541899999999998
20
72.189499999999995
30
0
11
67.240900000000011
21
72.179599999999994
31
0
0
LINE
5
204
100
AcDbEntity
8
0
100
AcDbLine
10
65.200700000000012
20
72.367000000000004
30
0
11
65.861599999999996
21
72.252700000000004
31
0
0
LINE
5
205
100
AcDbEntity
8
0
100
AcDbLine
10
75.761700000000019
20
77.233800000000002
30
0
11
76.055899999999994
21
77.836699999999993
31
0
0
LINE
5
206
100
AcDbEntity
8
0
100
AcDbLine
10
70.421499999999995
20
92.410200000000003
30
0
11
69.793199999999999
21
92.614500000000021
31
0
0
LINE
5
207
100
AcDbEntity
8
0
100
AcDbLine
10
76.796599999999998
20
80.399799999999999
30
0
11
76.876599999999996
21
81.065899999999999
31
0
0
LINE
5
208
100
AcDbEntity
8
0
100
AcDbLine
10
76.055899999999994
20
77.836699999999993
30
0
11
76.305700000000002
21
78.457300000000004
31
0
0
LINE
5
209
100
AcDbEntity
8
0
100
AcDbLine
10
71.605500000000006
20
91.862600000000015
30
0
11
71.025899999999993
21
92.15870000000001
31
0
0
LINE
5
210
100
AcDbEntity
8
0
100
AcDbLine
10
76.675299999999993
20
79.741299999999995
30
0
11
76.796599999999998
21
80.399799999999999
31
0
0
LINE
5
211
100
AcDbEntity
8
0
100
AcDbLine
10
76.305700000000002
20
78.457300000000004
30
0
11
76.511899999999997
21
79.093000000000004
31
0
0
LINE
5
212
100
AcDbEntity
8
0
100
AcDbLine
10
59.470100000000002
20
76.338099999999997
30
0
11
59.858400000000003
21
75.813400000000001
31
0
0
LINE
5
213
100
AcDbEntity
8
0
100
AcDbLine
10
62.21990000000001
20
73.623800000000003
30
0
11
62.77000000000001
21
73.288600000000002
31
0
0
LINE
5
214
100
AcDbEntity
8
0
100
AcDbLine
10
69.141800000000003
20
92.769300000000001
30
0
11
68.468000000000004
21
92.871900000000011
31
0
0
LINE
5
215
100
AcDbEntity
8
0
100
AcDbLine
10
69.440799999999996
20
72.492699999999999
30
0
11
70.205500000000001
21
72.718900000000005
31
0
0
LINE
5
216
100
AcDbEntity
8
0
100
AcDbLine
10
76.9161
20
81.737099999999998
30
0
11
76.915999999999997
21
82.411000000000016
31
0
0
LINE
5
217
100
AcDbEntity
8
0
100
AcDbLine
10
59.858400000000003
20
75.813400000000001
30
0
11
60.2759
21
75.314599999999999
31
0
0
LINE
5
218
100
AcDbEntity
8
0
100
AcDbLine
10
67.240900000000011
20
72.179599999999994
30
0
11
67.957599999999999
21
72.225300000000004
31
0
0
LINE
5
219
100
AcDbEntity
8
0
100
AcDbLine
10
76.511899999999997
20
79.093000000000004
30
0
11
76.675299999999993
21
79.741299999999995
31
0
0
LINE
5
220
100
AcDbEntity
8
0
100
AcDbLine
10
72.391999999999996
20
73.715000000000003
30
0
11
73.019199999999998
21
74.125
31
0
0
LINE
5
221
100
AcDbEntity
8
0
100
AcDbLine
10
76.876599999999996
20
81.065899999999999
30
0
11
76.9161
21
81.737099999999998
31
0
0
LINE
5
222
100
AcDbEntity
8
0
100
AcDbLine
10
76.915999999999997
20
82.411000000000016
30
0
11
76.876999999999995
21
83.085099999999997
31
0
0
LINE
5
223
100
AcDbEntity
8
0
100
AcDbLine
10
76.685300000000012
20
84.423900000000017
30
0
11
76.534300000000002
21
85.083500000000001
31
0
0
LINE
5
224
100
AcDbEntity
8
0
100
AcDbLine
10
67.7727
20
92.919899999999998
30
0
11
67.056700000000006
21
92.910799999999995
31
0
0
LINE
5
225
100
AcDbEntity
8
0
100
AcDbLine
10
58.488900000000008
20
78.044700000000006
30
0
11
58.784500000000008
21
77.456000000000003
31
0
0
LINE
5
226
100
AcDbEntity
8
0
100
AcDbLine
10
68.468000000000004
20
92.871900000000011
30
0
11
67.7727
21
92.919899999999998
31
0
0
LINE
5
227
100
AcDbEntity
8
0
100
AcDbLine
10
60.721699999999998
20
74.843900000000019
30
0
11
61.194800000000001
21
74.403700000000001
31
0
0
LINE
5
228
100
AcDbEntity
8
0
100
AcDbLine
10
76.534300000000002
20
85.083500000000001
30
0
11
76.3476
21
85.733400000000003
31
0
0
LINE
5
229
100
AcDbEntity
8
0
100
AcDbLine
10
71.025899999999993
20
92.15870000000001
30
0
11
70.421499999999995
21
92.410200000000003
31
0
0
LINE
5
230
100
AcDbEntity
8
0
100
AcDbLine
10
60.2759
20
75.314599999999999
30
0
11
60.721699999999998
21
74.843900000000019
31
0
0
LINE
5
231
100
AcDbEntity
8
0
100
AcDbLine
10
67.056700000000006
20
92.910799999999995
30
0
11
66.320700000000002
21
92.842100000000002
31
0
0
LINE
5
232
100
AcDbEntity
8
0
100
AcDbLine
10
72.159700000000001
20
91.524300000000011
30
0
11
71.605500000000006
21
91.862600000000015
31
0
0
LINE
5
233
100
AcDbEntity
8
0
100
AcDbLine
10
61.194800000000001
20
74.403700000000001
30
0
11
61.694500000000005
21
73.996200000000002
31
0
0
LINE
5
234
100
AcDbEntity
8
0
100
AcDbLine
10
70.205500000000001
20
72.718900000000005
30
0
11
70.984499999999997
21
73.010000000000005
31
0
0
LINE
5
235
100
AcDbEntity
8
0
100
AcDbLine
10
66.320700000000002
20
92.842100000000002
30
0
11
65.5655
21
92.711400000000012
31
0
0
LINE
5
236
100
AcDbEntity
8
0
100
AcDbLine
10
58.784500000000008
20
77.456000000000003
30
0
11
59.111800000000009
21
76.886399999999995
31
0
0
LINE
5
237
100
AcDbEntity
8
0
100
AcDbLine
10
61.694500000000005
20
73.996200000000002
30
0
11
62.21990000000001
21
73.623800000000003
31
0
0
LINE
5
238
100
AcDbEntity
8
0
100
AcDbLine
10
59.111800000000009
20
76.886399999999995
30
0
11
59.470100000000002
21
76.338099999999997
31
0
0
LINE
5
239
100
AcDbEntity
8
0
100
AcDbLine
10
72.687600000000003
20
91.1464
30
0
11
72.159700000000001
21
91.524300000000011
31
0
0
LINE
5
240
100
AcDbEntity
8
0
100
AcDbLine
10
73.019199999999998
20
74.125
30
0
11
73.596599999999995
21
74.570099999999996
31
0
0
LINE
5
241
100
AcDbEntity
8
0
100
AcDbLine
10
62.77000000000001
20
73.288600000000002
30
0
11
63.344099999999997
21
72.993099999999998
31
0
0
LINE
5
242
100
AcDbEntity
8
0
100
AcDbLine
10
65.861599999999996
20
72.252700000000004
30
0
11
66.541899999999998
21
72.189499999999995
31
0
0
LINE
5
243
100
AcDbEntity
8
0
100
AcDbLine
10
63.344099999999997
20
72.993099999999998
30
0
11
63.941100000000006
21
72.739500000000007
31
0
0
LINE
5
244
100
AcDbEntity
8
0
100
AcDbLine
10
68.691199999999995
20
72.328900000000004
30
0
11
69.440799999999996
21
72.492699999999999
31
0
0
LINE
5
245
100
AcDbEntity
8
0
100
AcDbLine
10
64.791899999999998
20
92.516099999999994
30
0
11
64.000699999999995
21
92.253799999999998
31
0
0
LINE
5
246
100
AcDbEntity
8
0
100
AcDbLine
10
64.560299999999998
20
72.530000000000001
30
0
11
65.200700000000012
21
72.367000000000004
31
0
0
LINE
5
247
100
AcDbEntity
8
0
100
AcDbLine
10
69.793199999999999
20
92.614500000000021
30
0
11
69.141800000000003
21
92.769300000000001
31
0
0
LINE
5
248
100
AcDbEntity
8
0
100
AcDbLine
10
59.359200000000001
20
220.4144
30
0
11
59.158600000000007
21
219.78390000000002
31
0
0
LINE
5
249
100
AcDbEntity
8
0
100
AcDbLine
10
58.332900000000009
20
216.57530000000003
30
0
11
58.2029
21
215.9239
31
0
0
LINE
5
250
100
AcDbEntity
8
0
100
AcDbLine
10
67.848699999999994
20
233.76670000000001
30
0
11
67.349900000000005
21
233.29859999999999
31
0
0
LINE
5
251
100
AcDbEntity
8
0
100
AcDbLine
10
79.847099999999998
20
240.60760000000002
30
0
11
79.093599999999995
21
240.35720000000001
31
0
0
LINE
5
252
100
AcDbEntity
8
0
100
AcDbLine
10
64.627300000000005
20
230.303
30
0
11
64.218100000000007
21
229.77450000000002
31
0
0
LINE
5
253
100
AcDbEntity
8
0
100
AcDbLine
10
61.43630000000001
20
191.1404
30
0
11
61.724700000000006
21
190.54410000000001
31
0
0
LINE
5
254
100
AcDbEntity
8
0
100
AcDbLine
10
81.395600000000016
20
241.06720000000001
30
0
11
80.614400000000018
21
240.8443
31
0
0
LINE
5
255
100
AcDbEntity
8
0
100
AcDbLine
10
74.861199999999997
20
238.58070000000001
30
0
11
74.203500000000005
21
238.24090000000001
31
0
0
LINE
5
256
100
AcDbEntity
8
0
100
AcDbLine
10
75.580699999999993
20
87.59950000000002
30
0
11
75.258900000000011
21
88.185300000000012
31
0
0
LINE
5
257
100
AcDbEntity
8
0
100
AcDbLine
10
67.349900000000005
20
233.29859999999999
30
0
11
66.864000000000004
21
232.82120000000003
31
0
0
LINE
5
258
100
AcDbEntity
8
0
100
AcDbLine
10
75.532499999999999
20
238.9083
30
0
11
74.861199999999997
21
238.58070000000001
31
0
0
LINE
5
259
100
AcDbEntity
8
0
100
AcDbLine
10
63.4377
20
228.69470000000004
30
0
11
63.066299999999998
21
228.1437
31
0
0
LINE
5
260
100
AcDbEntity
8
0
100
AcDbLine
10
61.157700000000006
20
191.74220000000003
30
0
11
61.43630000000001
21
191.1404
31
0
0
LINE
5
261
100
AcDbEntity
8
0
100
AcDbLine
10
78.353999999999999
20
240.09340000000003
30
0
11
77.628100000000003
21
239.81639999999999
31
0
0
LINE
5
262
100
AcDbEntity
8
0
100
AcDbLine
10
71.706900000000005
20
236.76519999999999
30
0
11
71.116200000000006
21
236.3681
31
0
0
LINE
5
263
100
AcDbEntity
8
0
100
AcDbLine
10
69.423400000000001
20
235.11310000000003
30
0
11
68.885400000000004
21
234.67410000000001
31
0
0
LINE
5
264
100
AcDbEntity
8
0
100
AcDbLine
10
61.396000000000008
20
225.28649999999999
30
0
11
61.0989
21
224.69620000000003
31
0
0
LINE
5
265
100
AcDbEntity
8
0
100
AcDbLine
10
76.799800000000005
20
83.756900000000002
30
0
11
76.685300000000012
21
84.423900000000017
31
0
0
LINE
5
266
100
AcDbEntity
8
0
100
AcDbLine
10
76.125900000000001
20
86.371000000000009
30
0
11
75.870000000000005
21
86.993899999999996
31
0
0
LINE
5
267
100
AcDbEntity
8
0
100
AcDbLine
10
74.520600000000002
20
89.287800000000018
30
0
11
74.105699999999999
21
89.799500000000009
31
0
0
LINE
5
268
100
AcDbEntity
8
0
100
AcDbLine
10
73.6614
20
90.281499999999994
30
0
11
73.188400000000001
21
90.731300000000005
31
0
0
LINE
5
269
100
AcDbEntity
8
0
100
AcDbLine
10
73.188400000000001
20
90.731300000000005
30
0
11
72.687600000000003
21
91.1464
31
0
0
LINE
5
270
100
AcDbEntity
8
0
100
AcDbLine
10
82.190799999999996
20
241.27600000000001
30
0
11
81.395600000000016
21
241.06720000000001
31
0
0
LINE
5
271
100
AcDbEntity
8
0
100
AcDbLine
10
73.559200000000004
20
237.88929999999999
30
0
11
72.928399999999996
21
237.52600000000001
31
0
0
LINE
5
272
100
AcDbEntity
8
0
100
AcDbLine
10
76.3476
20
85.733400000000003
30
0
11
76.125900000000001
21
86.371000000000009
31
0
0
LINE
5
273
100
AcDbEntity
8
0
100
AcDbLine
10
70.538700000000006
20
235.96029999999999
30
0
11
69.974500000000006
21
235.54180000000002
31
0
0
LINE
5
274
100
AcDbEntity
8
0
100
AcDbLine
10
80.614400000000018
20
240.8443
30
0
11
79.847099999999998
21
240.60760000000002
31
0
0
LINE
5
275
100
AcDbEntity
8
0
100
AcDbLine
10
68.885400000000004
20
234.67410000000001
30
0
11
68.360600000000005
21
234.22520000000003
31
0
0
LINE
5
276
100
AcDbEntity
8
0
100
AcDbLine
10
76.876999999999995
20
83.085099999999997
30
0
11
76.799800000000005
21
83.756900000000002
31
0
0
LINE
5
277
100
AcDbEntity
8
0
100
AcDbLine
10
76.915899999999993
20
239.52640000000002
30
0
11
76.217399999999998
21
239.2236
31
0
0
LINE
5
278
100
AcDbEntity
8
0
100
AcDbLine
10
79.093599999999995
20
240.35720000000001
30
0
11
78.353999999999999
21
240.09340000000003
31
0
0
LINE
5
279
100
AcDbEntity
8
0
100
AcDbLine
10
63.821599999999997
20
229.23840000000001
30
0
11
63.4377
21
228.69470000000004
31
0
0
LINE
5
280
100
AcDbEntity
8
0
100
AcDbLine
10
75.258900000000011
20
88.185300000000012
30
0
11
74.905200000000008
21
88.748900000000006
31
0
0
LINE
5
281
100
AcDbEntity
8
0
100
AcDbLine
10
60.630300000000005
20
192.9616
30
0
11
60.88900000000001
21
192.34930000000003
31
0
0
LINE
5
282
100
AcDbEntity
8
0
100
AcDbLine
10
57.7256
20
212.63010000000003
30
0
11
57.664400000000001
21
211.96560000000002
31
0
0
LINE
5
283
100
AcDbEntity
8
0
100
AcDbLine
10
74.203500000000005
20
238.24090000000001
30
0
11
73.559200000000004
21
237.88929999999999
31
0
0
LINE
5
284
100
AcDbEntity
8
0
100
AcDbLine
10
75.422200000000004
20
76.650899999999993
30
0
11
75.761700000000019
21
77.233800000000002
31
0
0
LINE
5
285
100
AcDbEntity
8
0
100
AcDbLine
10
75.036799999999999
20
76.090599999999995
30
0
11
75.422200000000004
21
76.650899999999993
31
0
0
LINE
5
286
100
AcDbEntity
8
0
100
AcDbLine
10
71.713999999999999
20
73.342500000000001
30
0
11
72.391999999999996
21
73.715000000000003
31
0
0
LINE
5
287
100
AcDbEntity
8
0
100
AcDbLine
10
68.360600000000005
20
234.22520000000003
30
0
11
67.848699999999994
21
233.76670000000001
31
0
0
LINE
5
288
100
AcDbEntity
8
0
100
AcDbLine
10
74.905200000000008
20
88.748900000000006
30
0
11
74.520600000000002
21
89.287800000000018
31
0
0
LINE
5
289
100
AcDbEntity
8
0
100
AcDbLine
10
67.957599999999999
20
72.225300000000004
30
0
11
68.691199999999995
21
72.328900000000004
31
0
0
LINE
5
290
100
AcDbEntity
8
0
100
AcDbLine
10
72.928399999999996
20
237.52600000000001
30
0
11
72.311000000000007
21
237.15119999999999
31
0
0
LINE
5
291
100
AcDbEntity
8
0
100
AcDbLine
10
76.217399999999998
20
239.2236
30
0
11
75.532499999999999
21
238.9083
31
0
0
LINE
5
292
100
AcDbEntity
8
0
100
AcDbLine
10
66.864000000000004
20
232.82120000000003
30
0
11
66.391099999999994
21
232.3348
31
0
0
LINE
5
293
100
AcDbEntity
8
0
100
AcDbLine
10
69.974500000000006
20
235.54180000000002
30
0
11
69.423400000000001
21
235.11310000000003
31
0
0
LINE
5
294
100
AcDbEntity
8
0
100
AcDbLine
10
77.628100000000003
20
239.81639999999999
30
0
11
76.915899999999993
21
239.52640000000002
31
0
0
LINE
5
295
100
AcDbEntity
8
0
100
AcDbLine
10
65.930900000000008
20
231.83959999999999
30
0
11
65.483599999999996
21
231.33570000000003
31
0
0
LINE
5
296
100
AcDbEntity
8
0
100
AcDbLine
10
60.81410000000001
20
224.10020000000003
30
0
11
60.541400000000003
21
223.49850000000004
31
0
0
LINE
5
297
100
AcDbEntity
8
0
100
AcDbLine
10
75.870000000000005
20
86.993899999999996
30
0
11
75.580699999999993
21
87.59950000000002
31
0
0
LINE
5
298
100
AcDbEntity
8
0
100
AcDbLine
10
71.116200000000006
20
236.3681
30
0
11
70.538700000000006
21
235.96029999999999
31
0
0
LINE
5
299
100
AcDbEntity
8
0
100
AcDbLine
10
65.483599999999996
20
231.33570000000003
30
0
11
65.049099999999996
21
230.82340000000002
31
0
0
LINE
5
300
100
AcDbEntity
8
0
100
AcDbLine
10
62.02300000000001
20
189.95370000000003
30
0
11
62.331099999999999
21
189.36920000000001
31
0
0
LINE
5
301
100
AcDbEntity
8
0
100
AcDbLine
10
65.049099999999996
20
230.82340000000002
30
0
11
64.627300000000005
21
230.303
31
0
0
LINE
5
302
100
AcDbEntity
8
0
100
AcDbLine
10
66.391099999999994
20
232.3348
30
0
11
65.930900000000008
21
231.83959999999999
31
0
0
LINE
5
303
100
AcDbEntity
8
0
100
AcDbLine
10
72.311000000000007
20
237.15119999999999
30
0
11
71.706900000000005
21
236.76519999999999
31
0
0
LINE
5
304
100
AcDbEntity
8
0
100
AcDbLine
10
62.331099999999999
20
189.36920000000001
30
0
11
62.648900000000005
21
188.791
31
0
0
LINE
5
305
100
AcDbEntity
8
0
100
AcDbLine
10
70.984499999999997
20
73.010000000000005
30
0
11
71.713999999999999
21
73.342500000000001
31
0
0
LINE
5
306
100
AcDbEntity
8
0
100
AcDbLine
10
64.218100000000007
20
229.77450000000002
30
0
11
63.821599999999997
21
229.23840000000001
31
0
0
LINE
5
307
100
AcDbEntity
8
0
100
AcDbLine
10
62.976400000000005
20
188.21920000000003
30
0
11
63.313500000000005
21
187.654
31
0
0
LINE
5
308
100
AcDbEntity
8
0
100
AcDbLine
10
57.667700000000011
20
205.27799999999999
30
0
11
57.728600000000007
21
204.60980000000004
31
0
0
LINE
5
309
100
AcDbEntity
8
0
100
AcDbLine
10
74.124700000000004
20
75.047700000000006
30
0
11
74.604500000000002
21
75.555300000000017
31
0
0
LINE
5
310
100
AcDbEntity
8
0
100
AcDbLine
10
74.105699999999999
20
89.799500000000009
30
0
11
73.6614
21
90.281499999999994
31
0
0
LINE
5
311
100
AcDbEntity
8
0
100
AcDbLine
10
59.796000000000006
20
221.66229999999999
30
0
11
59.571600000000004
21
221.04060000000004
31
0
0
LINE
5
312
100
AcDbEntity
8
0
100
AcDbLine
10
81.491299999999995
20
173.57910000000001
30
0
11
82.153400000000005
21
173.4134
31
0
0
LINE
5
313
100
AcDbEntity
8
0
100
AcDbLine
10
78.301000000000002
20
174.62389999999999
30
0
11
78.922799999999995
21
174.38680000000002
31
0
0
LINE
5
314
100
AcDbEntity
8
0
100
AcDbLine
10
59.4878
20
196.09210000000002
30
0
11
59.695999999999998
21
195.45750000000001
31
0
0
LINE
5
315
100
AcDbEntity
8
0
100
AcDbLine
10
99.433000000000007
20
174.1534
30
0
11
100.21650000000001
21
174.38829999999999
31
0
0
LINE
5
316
100
AcDbEntity
8
0
100
AcDbLine
10
74.180099999999996
20
176.65310000000002
30
0
11
74.743700000000004
21
176.32509999999999
31
0
0
LINE
5
317
100
AcDbEntity
8
0
100
AcDbLine
10
58.2029
20
215.9239
30
0
11
58.084400000000009
21
215.26970000000003
31
0
0
LINE
5
318
100
AcDbEntity
8
0
100
AcDbLine
10
95.382999999999996
20
173.19820000000004
30
0
11
96.187900000000013
21
173.35380000000001
31
0
0
LINE
5
319
100
AcDbEntity
8
0
100
AcDbLine
10
68.553200000000004
20
181.01159999999999
30
0
11
69.020600000000002
21
180.56250000000003
31
0
0
LINE
5
320
100
AcDbEntity
8
0
100
AcDbLine
10
58.319299999999998
20
200.62899999999999
30
0
11
58.454900000000009
21
199.97230000000002
31
0
0
LINE
5
321
100
AcDbEntity
8
0
100
AcDbLine
10
62.648900000000005
20
188.791
30
0
11
62.976400000000005
21
188.21920000000003
31
0
0
LINE
5
322
100
AcDbEntity
8
0
100
AcDbLine
10
57.550600000000003
20
207.28620000000004
30
0
11
57.578700000000005
21
206.61640000000003
31
0
0
LINE
5
323
100
AcDbEntity
8
0
100
AcDbLine
10
57.800200000000004
20
203.94260000000003
30
0
11
57.882700000000007
21
203.27660000000003
31
0
0
LINE
5
324
100
AcDbEntity
8
0
100
AcDbLine
10
60.541400000000003
20
223.49850000000004
30
0
11
60.280900000000003
21
222.89150000000004
31
0
0
LINE
5
325
100
AcDbEntity
8
0
100
AcDbLine
10
57.532500000000006
20
209.29540000000003
30
0
11
57.5274
21
208.6259
31
0
0
LINE
5
326
100
AcDbEntity
8
0
100
AcDbLine
10
58.454900000000009
20
199.97230000000002
30
0
11
58.601100000000002
21
199.31800000000004
31
0
0
LINE
5
327
100
AcDbEntity
8
0
100
AcDbLine
10
60.03240000000001
20
222.27940000000004
30
0
11
59.796000000000006
21
221.66229999999999
31
0
0
LINE
5
328
100
AcDbEntity
8
0
100
AcDbLine
10
58.601100000000002
20
199.31800000000004
30
0
11
58.7577
21
198.66650000000004
31
0
0
LINE
5
329
100
AcDbEntity
8
0
100
AcDbLine
10
58.194200000000009
20
201.28800000000001
30
0
11
58.319299999999998
21
200.62899999999999
31
0
0
LINE
5
330
100
AcDbEntity
8
0
100
AcDbLine
10
63.066299999999998
20
228.1437
30
0
11
62.707500000000003
21
227.58560000000003
31
0
0
LINE
5
331
100
AcDbEntity
8
0
100
AcDbLine
10
57.728600000000007
20
204.60980000000004
30
0
11
57.800200000000004
21
203.94260000000003
31
0
0
LINE
5
332
100
AcDbEntity
8
0
100
AcDbLine
10
59.1021
20
197.37260000000003
30
0
11
59.2898
21
196.73050000000003
31
0
0
LINE
5
333
100
AcDbEntity
8
0
100
AcDbLine
10
62.361000000000004
20
227.02060000000003
30
0
11
62.027000000000001
21
226.44890000000004
31
0
0
LINE
5
334
100
AcDbEntity
8
0
100
AcDbLine
10
62.707500000000003
20
227.58560000000003
30
0
11
62.361000000000004
21
227.02060000000003
31
0
0
LINE
5
335
100
AcDbEntity
8
0
100
AcDbLine
10
58.07970000000001
20
201.94909999999999
30
0
11
58.194200000000009
21
201.28800000000001
31
0
0
LINE
5
336
100
AcDbEntity
8
0
100
AcDbLine
10
60.88900000000001
20
192.34930000000003
30
0
11
61.157700000000006
21
191.74220000000003
31
0
0
LINE
5
337
100
AcDbEntity
8
0
100
AcDbLine
10
59.571600000000004
20
221.04060000000004
30
0
11
59.359200000000001
21
220.4144
31
0
0
LINE
5
338
100
AcDbEntity
8
0
100
AcDbLine
10
58.96990000000001
20
219.14940000000001
30
0
11
58.793100000000003
21
218.51100000000002
31
0
0
LINE
5
339
100
AcDbEntity
8
0
100
AcDbLine
10
57.664400000000001
20
211.96560000000002
30
0
11
57.614600000000003
21
211.2996
31
0
0
LINE
5
340
100
AcDbEntity
8
0
100
AcDbLine
10
59.914400000000008
20
194.82690000000002
30
0
11
60.143000000000001
21
194.20060000000004
31
0
0
LINE
5
341
100
AcDbEntity
8
0
100
AcDbLine
10
62.027000000000001
20
226.44890000000004
30
0
11
61.705399999999997
21
225.8708
31
0
0
LINE
5
342
100
AcDbEntity
8
0
100
AcDbLine
10
57.614600000000003
20
211.2996
30
0
11
57.576000000000001
21
210.63240000000002
31
0
0
LINE
5
343
100
AcDbEntity
8
0
100
AcDbLine
10
57.882700000000007
20
203.27660000000003
30
0
11
57.9758
21
202.61210000000003
31
0
0
LINE
5
344
100
AcDbEntity
8
0
100
AcDbLine
10
57.533500000000004
20
207.95609999999999
30
0
11
57.550600000000003
21
207.28620000000004
31
0
0
LINE
5
345
100
AcDbEntity
8
0
100
AcDbLine
10
58.628
20
217.86910000000003
30
0
11
58.474600000000009
21
217.22380000000001
31
0
0
LINE
5
346
100
AcDbEntity
8
0
100
AcDbLine
10
58.7577
20
198.66650000000004
30
0
11
58.924700000000001
21
198.018
31
0
0
LINE
5
347
100
AcDbEntity
8
0
100
AcDbLine
10
57.548600000000008
20
209.96430000000004
30
0
11
57.532500000000006
21
209.29540000000003
31
0
0
LINE
5
348
100
AcDbEntity
8
0
100
AcDbLine
10
66.3523
20
183.39840000000004
30
0
11
66.774199999999993
21
182.90289999999999
31
0
0
LINE
5
349
100
AcDbEntity
8
0
100
AcDbLine
10
92.234700000000004
20
172.76250000000002
30
0
11
93.010999999999996
21
172.84389999999999
31
0
0
LINE
5
350
100
AcDbEntity
8
0
100
AcDbLine
10
77.081999999999994
20
175.1388
30
0
11
77.687399999999997
21
174.87459999999999
31
0
0
LINE
5
351
100
AcDbEntity
8
0
100
AcDbLine
10
61.0989
20
224.69620000000003
30
0
11
60.81410000000001
21
224.10020000000003
31
0
0
LINE
5
352
100
AcDbEntity
8
0
100
AcDbLine
10
80.837100000000021
20
173.7595
30
0
11
81.491299999999995
21
173.57910000000001
31
0
0
LINE
5
353
100
AcDbEntity
8
0
100
AcDbLine
10
58.924700000000001
20
198.018
30
0
11
59.1021
21
197.37260000000003
31
0
0
LINE
5
354
100
AcDbEntity
8
0
100
AcDbLine
10
58.084400000000009
20
215.26970000000003
30
0
11
57.977500000000006
21
214.613
31
0
0
LINE
5
355
100
AcDbEntity
8
0
100
AcDbLine
10
85.581999999999994
20
172.81360000000004
30
0
11
86.290999999999997
21
172.74090000000001
31
0
0
LINE
5
356
100
AcDbEntity
8
0
100
AcDbLine
10
72.011600000000001
20
178.0838
30
0
11
72.540800000000004
21
177.70869999999999
31
0
0
LINE
5
357
100
AcDbEntity
8
0
100
AcDbLine
10
60.143000000000001
20
194.20060000000004
30
0
11
60.381600000000006
21
193.57870000000003
31
0
0
LINE
5
358
100
AcDbEntity
8
0
100
AcDbLine
10
61.705399999999997
20
225.8708
30
0
11
61.396000000000008
21
225.28649999999999
31
0
0
LINE
5
359
100
AcDbEntity
8
0
100
AcDbLine
10
59.2898
20
196.73050000000003
30
0
11
59.4878
21
196.09210000000002
31
0
0
LINE
5
360
100
AcDbEntity
8
0
100
AcDbLine
10
58.474600000000009
20
217.22380000000001
30
0
11
58.332900000000009
21
216.57530000000003
31
0
0
LINE
5
361
100
AcDbEntity
8
0
100
AcDbLine
10
57.5274
20
208.6259
30
0
11
57.533500000000004
21
207.95609999999999
31
0
0
LINE
5
362
100
AcDbEntity
8
0
100
AcDbLine
10
57.578700000000005
20
206.61640000000003
30
0
11
57.61780000000001
21
205.9469
31
0
0
LINE
5
363
100
AcDbEntity
8
0
100
AcDbLine
10
57.61780000000001
20
205.9469
30
0
11
57.667700000000011
21
205.27799999999999
31
0
0
LINE
5
364
100
AcDbEntity
8
0
100
AcDbLine
10
59.158600000000007
20
219.78390000000002
30
0
11
58.96990000000001
21
219.14940000000001
31
0
0
LINE
5
365
100
AcDbEntity
8
0
100
AcDbLine
10
61.724700000000006
20
190.54410000000001
30
0
11
62.02300000000001
21
189.95370000000003
31
0
0
LINE
5
366
100
AcDbEntity
8
0
100
AcDbLine
10
60.280900000000003
20
222.89150000000004
30
0
11
60.03240000000001
21
222.27940000000004
31
0
0
LINE
5
367
100
AcDbEntity
8
0
100
AcDbLine
10
58.793100000000003
20
218.51100000000002
30
0
11
58.628
21
217.86910000000003
31
0
0
LINE
5
368
100
AcDbEntity
8
0
100
AcDbLine
10
57.798200000000008
20
213.29300000000003
30
0
11
57.7256
21
212.63010000000003
31
0
0
LINE
5
369
100
AcDbEntity
8
0
100
AcDbLine
10
60.381600000000006
20
193.57870000000003
30
0
11
60.630300000000005
21
192.9616
31
0
0
LINE
5
370
100
AcDbEntity
8
0
100
AcDbLine
10
98.635800000000003
20
173.9316
30
0
11
99.433000000000007
21
174.1534
31
0
0
LINE
5
371
100
AcDbEntity
8
0
100
AcDbLine
10
59.695999999999998
20
195.45750000000001
30
0
11
59.914400000000008
21
194.82690000000002
31
0
0
LINE
5
372
100
AcDbEntity
8
0
100
AcDbLine
10
57.576000000000001
20
210.63240000000002
30
0
11
57.548600000000008
21
209.96430000000004
31
0
0
LINE
5
373
100
AcDbEntity
8
0
100
AcDbLine
10
57.882100000000001
20
213.95410000000001
30
0
11
57.798200000000008
21
213.29300000000003
31
0
0
LINE
5
374
100
AcDbEntity
8
0
100
AcDbLine
10
57.977500000000006
20
214.613
30
0
11
57.882100000000001
21
213.95410000000001
31
0
0
LINE
5
375
100
AcDbEntity
8
0
100
AcDbLine
10
57.9758
20
202.61210000000003
30
0
11
58.07970000000001
21
201.94909999999999
31
0
0
LINE
5
376
100
AcDbEntity
8
0
100
AcDbLine
10
63.660200000000003
20
187.09569999999999
30
0
11
64.016500000000008
21
186.5445
31
0
0
LINE
5
377
100
AcDbEntity
8
0
100
AcDbLine
10
123.7244
20
208.82760000000002
30
0
11
123.6862
21
209.482
31
0
0
LINE
5
378
100
AcDbEntity
8
0
100
AcDbLine
10
122.34250000000002
20
196.54079999999999
30
0
11
122.51760000000002
21
197.16890000000004
31
0
0
LINE
5
379
100
AcDbEntity
8
0
100
AcDbLine
10
115.90720000000002
20
184.4528
30
0
11
116.33610000000002
21
184.9665
31
0
0
LINE
5
380
100
AcDbEntity
8
0
100
AcDbLine
10
119.6382
20
189.90180000000004
30
0
11
119.94390000000001
21
190.4812
31
0
0
LINE
5
381
100
AcDbEntity
8
0
100
AcDbLine
10
109.17149999999999
20
178.54810000000001
30
0
11
109.7672
21
178.946
31
0
0
LINE
5
382
100
AcDbEntity
8
0
100
AcDbLine
10
91.465800000000002
20
172.69909999999999
30
0
11
92.234700000000004
21
172.76250000000002
31
0
0
LINE
5
383
100
AcDbEntity
8
0
100
AcDbLine
10
118.99050000000001
20
188.7603
30
0
11
119.32040000000001
21
189.32810000000001
31
0
0
LINE
5
384
100
AcDbEntity
8
0
100
AcDbLine
10
100.9863
20
174.6361
30
0
11
101.74250000000001
21
174.89680000000004
31
0
0
LINE
5
385
100
AcDbEntity
8
0
100
AcDbLine
10
97.000000000000014
20
173.52850000000001
30
0
11
97.824799999999996
21
173.72319999999999
31
0
0
LINE
5
386
100
AcDbEntity
8
0
100
AcDbLine
10
65.536299999999997
20
184.41500000000002
30
0
11
65.939599999999999
21
183.90250000000003
31
0
0
LINE
5
387
100
AcDbEntity
8
0
100
AcDbLine
10
67.645499999999998
20
181.93870000000001
30
0
11
68.094800000000006
21
181.47040000000001
31
0
0
LINE
5
388
100
AcDbEntity
8
0
100
AcDbLine
10
89.203100000000006
20
172.6147
30
0
11
89.9499
21
172.62540000000001
31
0
0
LINE
5
389
100
AcDbEntity
8
0
100
AcDbLine
10
76.484800000000007
20
175.41610000000003
30
0
11
77.081999999999994
21
175.1388
31
0
0
LINE
5
390
100
AcDbEntity
8
0
100
AcDbLine
10
88.46380000000002
20
172.62110000000004
30
0
11
89.203100000000006
21
172.6147
31
0
0
LINE
5
391
100
AcDbEntity
8
0
100
AcDbLine
10
90.7042
20
172.65350000000001
30
0
11
91.465800000000002
21
172.69909999999999
31
0
0
LINE
5
392
100
AcDbEntity
8
0
100
AcDbLine
10
78.922799999999995
20
174.38680000000002
30
0
11
79.552800000000005
21
174.1635
31
0
0
LINE
5
393
100
AcDbEntity
8
0
100
AcDbLine
10
86.290999999999997
20
172.74090000000001
30
0
11
87.0077
21
172.68440000000001
31
0
0
LINE
5
394
100
AcDbEntity
8
0
100
AcDbLine
10
100.21650000000001
20
174.38829999999999
30
0
11
100.9863
21
174.6361
31
0
0
LINE
5
395
100
AcDbEntity
8
0
100
AcDbLine
10
64.016500000000008
20
186.5445
30
0
11
64.382300000000015
21
186.00059999999999
31
0
0
LINE
5
396
100
AcDbEntity
8
0
100
AcDbLine
10
68.094800000000006
20
181.47040000000001
30
0
11
68.553200000000004
21
181.01159999999999
31
0
0
LINE
5
397
100
AcDbEntity
8
0
100
AcDbLine
10
73.625100000000003
20
176.9931
30
0
11
74.180099999999996
21
176.65310000000002
31
0
0
LINE
5
398
100
AcDbEntity
8
0
100
AcDbLine
10
87.732000000000014
20
172.64440000000002
30
0
11
88.46380000000002
21
172.62110000000004
31
0
0
LINE
5
399
100
AcDbEntity
8
0
100
AcDbLine
10
96.187900000000013
20
173.35380000000001
30
0
11
97.000000000000014
21
173.52850000000001
31
0
0
LINE
5
400
100
AcDbEntity
8
0
100
AcDbLine
10
65.939599999999999
20
183.90250000000003
30
0
11
66.3523
21
183.39840000000004
31
0
0
LINE
5
401
100
AcDbEntity
8
0
100
AcDbLine
10
70.476399999999998
20
179.27549999999999
30
0
11
70.979399999999998
21
178.8674
31
0
0
LINE
5
402
100
AcDbEntity
8
0
100
AcDbLine
10
63.313500000000005
20
187.654
30
0
11
63.660200000000003
21
187.09569999999999
31
0
0
LINE
5
403
100
AcDbEntity
8
0
100
AcDbLine
10
79.552800000000005
20
174.1635
30
0
11
80.190899999999999
21
173.95440000000002
31
0
0
LINE
5
404
100
AcDbEntity
8
0
100
AcDbLine
10
83.501400000000018
20
173.12719999999999
30
0
11
84.187200000000004
21
173.00700000000003
31
0
0
LINE
5
405
100
AcDbEntity
8
0
100
AcDbLine
10
64.382300000000015
20
186.00059999999999
30
0
11
64.757499999999993
21
185.46430000000001
31
0
0
LINE
5
406
100
AcDbEntity
8
0
100
AcDbLine
10
97.824799999999996
20
173.72319999999999
30
0
11
98.635800000000003
21
173.9316
31
0
0
LINE
5
407
100
AcDbEntity
8
0
100
AcDbLine
10
72.540800000000004
20
177.70869999999999
30
0
11
73.078699999999998
21
177.3451
31
0
0
LINE
5
408
100
AcDbEntity
8
0
100
AcDbLine
10
69.020600000000002
20
180.56250000000003
30
0
11
69.496900000000011
21
180.12330000000003
31
0
0
LINE
5
409
100
AcDbEntity
8
0
100
AcDbLine
10
69.982200000000006
20
179.6942
30
0
11
70.476399999999998
21
179.27549999999999
31
0
0
LINE
5
410
100
AcDbEntity
8
0
100
AcDbLine
10
66.774199999999993
20
182.90289999999999
30
0
11
67.205200000000005
21
182.41630000000001
31
0
0
LINE
5
411
100
AcDbEntity
8
0
100
AcDbLine
10
77.687399999999997
20
174.87459999999999
30
0
11
78.301000000000002
21
174.62389999999999
31
0
0
LINE
5
412
100
AcDbEntity
8
0
100
AcDbLine
10
75.896100000000004
20
175.7064
30
0
11
76.484800000000007
21
175.41610000000003
31
0
0
LINE
5
413
100
AcDbEntity
8
0
100
AcDbLine
10
82.823499999999996
20
173.2627
30
0
11
83.501400000000018
21
173.12719999999999
31
0
0
LINE
5
414
100
AcDbEntity
8
0
100
AcDbLine
10
108.56270000000002
20
178.16050000000001
30
0
11
109.17149999999999
21
178.54810000000001
31
0
0
LINE
5
415
100
AcDbEntity
8
0
100
AcDbLine
10
123.76840000000001
20
206.20750000000001
30
0
11
123.77380000000001
21
206.86250000000001
31
0
0
LINE
5
416
100
AcDbEntity
8
0
100
AcDbLine
10
118.64830000000001
20
188.1985
30
0
11
118.99050000000001
21
188.7603
31
0
0
LINE
5
417
100
AcDbEntity
8
0
100
AcDbLine
10
82.153400000000005
20
173.4134
30
0
11
82.823499999999996
21
173.2627
31
0
0
LINE
5
418
100
AcDbEntity
8
0
100
AcDbLine
10
71.491100000000003
20
178.4701
30
0
11
72.011600000000001
21
178.0838
31
0
0
LINE
5
419
100
AcDbEntity
8
0
100
AcDbLine
10
70.979399999999998
20
178.8674
30
0
11
71.491100000000003
21
178.4701
31
0
0
LINE
5
420
100
AcDbEntity
8
0
100
AcDbLine
10
75.315600000000003
20
176.0095
30
0
11
75.896100000000004
21
175.7064
31
0
0
LINE
5
421
100
AcDbEntity
8
0
100
AcDbLine
10
110.34980000000002
20
179.35410000000002
30
0
11
110.91940000000001
21
179.77209999999999
31
0
0
LINE
5
422
100
AcDbEntity
8
0
100
AcDbLine
10
93.010999999999996
20
172.84389999999999
30
0
11
93.794499999999999
21
172.94350000000003
31
0
0
LINE
5
423
100
AcDbEntity
8
0
100
AcDbLine
10
117.54800000000002
20
186.55160000000001
30
0
11
117.9271
21
187.09399999999999
31
0
0
LINE
5
424
100
AcDbEntity
8
0
100
AcDbLine
10
102.485
20
175.16999999999999
30
0
11
103.214
21
175.45550000000003
31
0
0
LINE
5
425
100
AcDbEntity
8
0
100
AcDbLine
10
94.585100000000011
20
173.0615
30
0
11
95.382999999999996
21
173.19820000000004
31
0
0
LINE
5
426
100
AcDbEntity
8
0
100
AcDbLine
10
84.187200000000004
20
173.00700000000003
30
0
11
84.880700000000004
21
172.9024
31
0
0
LINE
5
427
100
AcDbEntity
8
0
100
AcDbLine
10
69.496900000000011
20
180.12330000000003
30
0
11
69.982200000000006
21
179.6942
31
0
0
LINE
5
428
100
AcDbEntity
8
0
100
AcDbLine
10
67.205200000000005
20
182.41630000000001
30
0
11
67.645499999999998
21
181.93870000000001
31
0
0
LINE
5
429
100
AcDbEntity
8
0
100
AcDbLine
10
74.743700000000004
20
176.32509999999999
30
0
11
75.315600000000003
21
176.0095
31
0
0
LINE
5
430
100
AcDbEntity
8
0
100
AcDbLine
10
80.190899999999999
20
173.95440000000002
30
0
11
80.837100000000021
21
173.7595
31
0
0
LINE
5
431
100
AcDbEntity
8
0
100
AcDbLine
10
93.794499999999999
20
172.94350000000003
30
0
11
94.585100000000011
21
173.0615
31
0
0
LINE
5
432
100
AcDbEntity
8
0
100
AcDbLine
10
101.74250000000001
20
174.89680000000004
30
0
11
102.485
21
175.16999999999999
31
0
0
LINE
5
433
100
AcDbEntity
8
0
100
AcDbLine
10
87.0077
20
172.68440000000001
30
0
11
87.732000000000014
21
172.64440000000002
31
0
0
LINE
5
434
100
AcDbEntity
8
0
100
AcDbLine
10
73.078699999999998
20
177.3451
30
0
11
73.625100000000003
21
176.9931
31
0
0
LINE
5
435
100
AcDbEntity
8
0
100
AcDbLine
10
113.5731
20
182.00370000000004
30
0
11
114.06530000000001
21
182.47690000000003
31
0
0
LINE
5
436
100
AcDbEntity
8
0
100
AcDbLine
10
64.757499999999993
20
185.46430000000001
30
0
11
65.142200000000003
21
184.93570000000003
31
0
0
LINE
5
437
100
AcDbEntity
8
0
100
AcDbLine
10
89.9499
20
172.62540000000001
30
0
11
90.7042
21
172.65350000000001
31
0
0
LINE
5
438
100
AcDbEntity
8
0
100
AcDbLine
10
84.880700000000004
20
172.9024
30
0
11
85.581999999999994
21
172.81360000000004
31
0
0
LINE
5
439
100
AcDbEntity
8
0
100
AcDbLine
10
65.142200000000003
20
184.93570000000003
30
0
11
65.536299999999997
21
184.41500000000002
31
0
0
LINE
5
440
100
AcDbEntity
8
0
100
AcDbLine
10
120.5189
20
191.65600000000001
30
0
11
120.7884
21
192.25110000000001
31
0
0
LINE
5
441
100
AcDbEntity
8
0
100
AcDbLine
10
121.1956
20
220.9545
30
0
11
120.9599
21
221.56200000000001
31
0
0
LINE
5
442
100
AcDbEntity
8
0
100
AcDbLine
10
114.06530000000001
20
182.47690000000003
30
0
11
114.54480000000001
21
182.95860000000002
31
0
0
LINE
5
443
100
AcDbEntity
8
0
100
AcDbLine
10
123.32540000000002
20
200.99789999999999
30
0
11
123.42010000000002
21
201.64429999999999
31
0
0
LINE
5
444
100
AcDbEntity
8
0
100
AcDbLine
10
122.83280000000002
20
198.43459999999999
30
0
11
122.97320000000001
21
199.07170000000002
31
0
0
LINE
5
445
100
AcDbEntity
8
0
100
AcDbLine
10
123.7517
20
208.17270000000002
30
0
11
123.7244
21
208.82760000000002
31
0
0
LINE
5
446
100
AcDbEntity
8
0
100
AcDbLine
10
115.0116
20
183.4487
30
0
11
115.46570000000001
21
183.9468
31
0
0
LINE
5
447
100
AcDbEntity
8
0
100
AcDbLine
10
103.214
20
175.45550000000003
30
0
11
103.9295
21
175.75330000000002
31
0
0
LINE
5
448
100
AcDbEntity
8
0
100
AcDbLine
10
120.7884
20
192.25110000000001
30
0
11
121.04600000000002
21
192.851
31
0
0
LINE
5
449
100
AcDbEntity
8
0
100
AcDbLine
10
114.54480000000001
20
182.95860000000002
30
0
11
115.0116
21
183.4487
31
0
0
LINE
5
450
100
AcDbEntity
8
0
100
AcDbLine
10
109.7672
20
178.946
30
0
11
110.34980000000002
21
179.35410000000002
31
0
0
LINE
5
451
100
AcDbEntity
8
0
100
AcDbLine
10
106.65689999999999
20
177.0616
30
0
11
107.30540000000002
21
177.41700000000003
31
0
0
LINE
5
452
100
AcDbEntity
8
0
100
AcDbLine
10
123.72460000000001
20
204.89879999999999
30
0
11
123.752
21
205.55279999999999
31
0
0
LINE
5
453
100
AcDbEntity
8
0
100
AcDbLine
10
123.50340000000001
20
202.29240000000001
30
0
11
123.57550000000002
21
202.94210000000004
31
0
0
LINE
5
454
100
AcDbEntity
8
0
100
AcDbLine
10
121.2916
20
193.45560000000003
30
0
11
121.52540000000002
21
194.06460000000004
31
0
0
LINE
5
455
100
AcDbEntity
8
0
100
AcDbLine
10
123.57550000000002
20
202.94210000000004
30
0
11
123.63640000000001
21
203.5932
31
0
0
LINE
5
456
100
AcDbEntity
8
0
100
AcDbLine
10
112.55029999999999
20
181.08349999999999
30
0
11
113.0681
21
181.53909999999999
31
0
0
LINE
5
457
100
AcDbEntity
8
0
100
AcDbLine
10
107.30540000000002
20
177.41700000000003
30
0
11
107.94060000000002
21
177.7834
31
0
0
LINE
5
458
100
AcDbEntity
8
0
100
AcDbLine
10
122.51760000000002
20
197.16890000000004
30
0
11
122.68100000000001
21
197.80020000000002
31
0
0
LINE
5
459
100
AcDbEntity
8
0
100
AcDbLine
10
116.33610000000002
20
184.9665
30
0
11
116.75260000000002
21
185.48759999999999
31
0
0
LINE
5
460
100
AcDbEntity
8
0
100
AcDbLine
10
123.10200000000002
20
199.71140000000003
30
0
11
123.21939999999999
21
200.3536
31
0
0
LINE
5
461
100
AcDbEntity
8
0
100
AcDbLine
10
122.2235
20
217.85700000000003
30
0
11
122.0382
21
218.48390000000001
31
0
0
LINE
5
462
100
AcDbEntity
8
0
100
AcDbLine
10
116.2517
20
230.0188
30
0
11
115.8616
21
230.52970000000002
31
0
0
LINE
5
463
100
AcDbEntity
8
0
100
AcDbLine
10
115.4624
20
231.03290000000001
30
0
11
115.05380000000001
21
231.52810000000002
31
0
0
LINE
5
464
100
AcDbEntity
8
0
100
AcDbLine
10
123.63640000000001
20
203.5932
30
0
11
123.68600000000001
21
204.24549999999999
31
0
0
LINE
5
465
100
AcDbEntity
8
0
100
AcDbLine
10
117.9271
20
187.09399999999999
30
0
11
118.2938
21
187.64300000000003
31
0
0
LINE
5
466
100
AcDbEntity
8
0
100
AcDbLine
10
121.95740000000001
20
195.29499999999999
30
0
11
122.15580000000001
21
195.91610000000003
31
0
0
LINE
5
467
100
AcDbEntity
8
0
100
AcDbLine
10
103.9295
20
175.75330000000002
30
0
11
104.63140000000001
21
176.06290000000001
31
0
0
LINE
5
468
100
AcDbEntity
8
0
100
AcDbLine
10
123.752
20
205.55279999999999
30
0
11
123.76840000000001
21
206.20750000000001
31
0
0
LINE
5
469
100
AcDbEntity
8
0
100
AcDbLine
10
122.68100000000001
20
197.80020000000002
30
0
11
122.83280000000002
21
198.43459999999999
31
0
0
LINE
5
470
100
AcDbEntity
8
0
100
AcDbLine
10
123.77380000000001
20
206.86250000000001
30
0
11
123.76820000000001
21
207.51760000000002
31
0
0
LINE
5
471
100
AcDbEntity
8
0
100
AcDbLine
10
105.59650000000002
20
239.15480000000002
30
0
11
105.01260000000002
21
239.44820000000004
31
0
0
LINE
5
472
100
AcDbEntity
8
0
100
AcDbLine
10
105.31999999999999
20
176.3843
30
0
11
105.99510000000001
21
176.71729999999999
31
0
0
LINE
5
473
100
AcDbEntity
8
0
100
AcDbLine
10
107.94060000000002
20
177.7834
30
0
11
108.56270000000002
21
178.16050000000001
31
0
0
LINE
5
474
100
AcDbEntity
8
0
100
AcDbLine
10
123.76820000000001
20
207.51760000000002
30
0
11
123.7517
21
208.17270000000002
31
0
0
LINE
5
475
100
AcDbEntity
8
0
100
AcDbLine
10
104.63140000000001
20
176.06290000000001
30
0
11
105.31999999999999
21
176.3843
31
0
0
LINE
5
476
100
AcDbEntity
8
0
100
AcDbLine
10
113.0681
20
181.53909999999999
30
0
11
113.5731
21
182.00370000000004
31
0
0
LINE
5
477
100
AcDbEntity
8
0
100
AcDbLine
10
117.15649999999999
20
186.01609999999999
30
0
11
117.54800000000002
21
186.55160000000001
31
0
0
LINE
5
478
100
AcDbEntity
8
0
100
AcDbLine
10
116.75260000000002
20
185.48759999999999
30
0
11
117.15649999999999
21
186.01609999999999
31
0
0
LINE
5
479
100
AcDbEntity
8
0
100
AcDbLine
10
115.46570000000001
20
183.9468
30
0
11
115.90720000000002
21
184.4528
31
0
0
LINE
5
480
100
AcDbEntity
8
0
100
AcDbLine
10
123.42010000000002
20
201.64429999999999
30
0
11
123.50340000000001
21
202.29240000000001
31
0
0
LINE
5
481
100
AcDbEntity
8
0
100
AcDbLine
10
120.23740000000001
20
191.066
30
0
11
120.5189
21
191.65600000000001
31
0
0
LINE
5
482
100
AcDbEntity
8
0
100
AcDbLine
10
115.8616
20
230.52970000000002
30
0
11
115.4624
21
231.03290000000001
31
0
0
LINE
5
483
100
AcDbEntity
8
0
100
AcDbLine
10
123.21939999999999
20
200.3536
30
0
11
123.32540000000002
21
200.99789999999999
31
0
0
LINE
5
484
100
AcDbEntity
8
0
100
AcDbLine
10
110.47069999999999
20
235.99789999999999
30
0
11
109.96360000000001
21
236.3922
31
0
0
LINE
5
485
100
AcDbEntity
8
0
100
AcDbLine
10
123.68600000000001
20
204.24549999999999
30
0
11
123.72460000000001
21
204.89879999999999
31
0
0
LINE
5
486
100
AcDbEntity
8
0
100
AcDbLine
10
119.94390000000001
20
190.4812
30
0
11
120.23740000000001
21
191.066
31
0
0
LINE
5
487
100
AcDbEntity
8
0
100
AcDbLine
10
119.3374
20
225.10470000000001
30
0
11
119.03280000000001
21
225.6764
31
0
0
LINE
5
488
100
AcDbEntity
8
0
100
AcDbLine
10
119.32040000000001
20
189.32810000000001
30
0
11
119.6382
21
189.90180000000004
31
0
0
LINE
5
489
100
AcDbEntity
8
0
100
AcDbLine
10
121.52540000000002
20
194.06460000000004
30
0
11
121.7473
21
194.67780000000002
31
0
0
LINE
5
490
100
AcDbEntity
8
0
100
AcDbLine
10
111.476
20
180.19980000000001
30
0
11
112.0196
21
180.637
31
0
0
LINE
5
491
100
AcDbEntity
8
0
100
AcDbLine
10
105.99510000000001
20
176.71729999999999
30
0
11
106.65689999999999
21
177.0616
31
0
0
LINE
5
492
100
AcDbEntity
8
0
100
AcDbLine
10
113.77340000000001
20
232.96400000000003
30
0
11
113.32840000000002
21
233.4254
31
0
0
LINE
5
493
100
AcDbEntity
8
0
100
AcDbLine
10
122.15580000000001
20
195.91610000000003
30
0
11
122.34250000000002
21
196.54079999999999
31
0
0
LINE
5
494
100
AcDbEntity
8
0
100
AcDbLine
10
121.04600000000002
20
192.851
30
0
11
121.2916
21
193.45560000000003
31
0
0
LINE
5
495
100
AcDbEntity
8
0
100
AcDbLine
10
118.2938
20
187.64300000000003
30
0
11
118.64830000000001
21
188.1985
31
0
0
LINE
5
496
100
AcDbEntity
8
0
100
AcDbLine
10
102.59399999999999
20
240.4974
30
0
11
101.96890000000002
21
240.72760000000002
31
0
0
LINE
5
497
100
AcDbEntity
8
0
100
AcDbLine
10
122.97320000000001
20
199.07170000000002
30
0
11
123.10200000000002
21
199.71140000000003
31
0
0
LINE
5
498
100
AcDbEntity
8
0
100
AcDbLine
10
103.21100000000001
20
240.25409999999999
30
0
11
102.59399999999999
21
240.4974
31
0
0
LINE
5
499
100
AcDbEntity
8
0
100
AcDbLine
10
121.7473
20
194.67780000000002
30
0
11
121.95740000000001
21
195.29499999999999
31
0
0
LINE
5
500
100
AcDbEntity
8
0
100
AcDbLine
10
113.32840000000002
20
233.4254
30
0
11
112.87440000000001
21
233.87770000000003
31
0
0
LINE
5
501
100
AcDbEntity
8
0
100
AcDbLine
10
103.81970000000001
20
239.99799999999999
30
0
11
103.21100000000001
21
240.25409999999999
31
0
0
LINE
5
502
100
AcDbEntity
8
0
100
AcDbLine
10
112.0196
20
180.637
30
0
11
112.55029999999999
21
181.08349999999999
31
0
0
LINE
5
503
100
AcDbEntity
8
0
100
AcDbLine
10
110.91940000000001
20
179.77209999999999
30
0
11
111.476
21
180.19980000000001
31
0
0
LINE
5
504
100
AcDbEntity
8
0
100
AcDbLine
10
107.38660000000002
20
155.9008
30
0
11
107.5282
21
155.26150000000001
31
0
0
LINE
5
505
100
AcDbEntity
8
0
100
AcDbLine
10
107.07120000000002
20
158.4845
30
0
11
107.11170000000001
21
157.83670000000001
31
0
0
LINE
5
506
100
AcDbEntity
8
0
100
AcDbLine
10
123.6862
20
209.482
30
0
11
123.63720000000001
21
210.13580000000002
31
0
0
LINE
5
507
100
AcDbEntity
8
0
100
AcDbLine
10
107.6942
20
154.62690000000003
30
0
11
107.8843
21
153.9982
31
0
0
LINE
5
508
100
AcDbEntity
8
0
100
AcDbLine
10
113.4111
20
170.75060000000002
30
0
11
112.79600000000002
21
170.3563
31
0
0
LINE
5
509
100
AcDbEntity
8
0
100
AcDbLine
10
100.04519999999999
20
241.33790000000002
30
0
11
99.387900000000002
21
241.51390000000004
31
0
0
LINE
5
510
100
AcDbEntity
8
0
100
AcDbLine
10
94.567700000000002
20
242.34110000000001
30
0
11
93.84820000000002
21
242.39900000000003
31
0
0
LINE
5
511
100
AcDbEntity
8
0
100
AcDbLine
10
90.138200000000012
20
242.44920000000002
30
0
11
89.373900000000006
21
242.40989999999999
31
0
0
LINE
5
512
100
AcDbEntity
8
0
100
AcDbLine
10
101.3357
20
240.94450000000001
30
0
11
100.6944
21
241.14800000000002
31
0
0
LINE
5
513
100
AcDbEntity
8
0
100
AcDbLine
10
104.42030000000001
20
239.72930000000002
30
0
11
103.81970000000001
21
239.99799999999999
31
0
0
LINE
5
514
100
AcDbEntity
8
0
100
AcDbLine
10
107.17410000000001
20
161.06020000000001
30
0
11
107.108
21
160.42070000000001
31
0
0
LINE
5
515
100
AcDbEntity
8
0
100
AcDbLine
10
95.983599999999996
20
242.17910000000003
30
0
11
95.279500000000013
21
242.26770000000002
31
0
0
LINE
5
516
100
AcDbEntity
8
0
100
AcDbLine
10
108.42790000000001
20
165.34649999999999
30
0
11
108.1617
21
164.7619
31
0
0
LINE
5
517
100
AcDbEntity
8
0
100
AcDbLine
10
117.00369999999999
20
228.97440000000003
30
0
11
116.63240000000002
21
229.50030000000001
31
0
0
LINE
5
518
100
AcDbEntity
8
0
100
AcDbLine
10
117.3656
20
228.44139999999999
30
0
11
117.00369999999999
21
228.97440000000003
31
0
0
LINE
5
519
100
AcDbEntity
8
0
100
AcDbLine
10
118.39460000000001
20
226.80160000000001
30
0
11
118.0612
21
227.35480000000001
31
0
0
LINE
5
520
100
AcDbEntity
8
0
100
AcDbLine
10
115.05380000000001
20
231.52810000000002
30
0
11
114.63610000000001
21
232.01520000000002
31
0
0
LINE
5
521
100
AcDbEntity
8
0
100
AcDbLine
10
116.63240000000002
20
229.50030000000001
30
0
11
116.2517
21
230.0188
31
0
0
LINE
5
522
100
AcDbEntity
8
0
100
AcDbLine
10
119.91750000000002
20
223.94460000000004
30
0
11
119.6324
21
224.52740000000003
31
0
0
LINE
5
523
100
AcDbEntity
8
0
100
AcDbLine
10
119.03280000000001
20
225.6764
30
0
11
118.71850000000002
21
226.24200000000002
31
0
0
LINE
5
524
100
AcDbEntity
8
0
100
AcDbLine
10
111.45870000000001
20
235.179
30
0
11
110.96910000000001
21
235.59340000000003
31
0
0
LINE
5
525
100
AcDbEntity
8
0
100
AcDbLine
10
123.63720000000001
20
210.13580000000002
30
0
11
123.57750000000001
21
210.78880000000001
31
0
0
LINE
5
526
100
AcDbEntity
8
0
100
AcDbLine
10
123.33420000000001
20
212.74050000000003
30
0
11
123.2319
21
213.38800000000003
31
0
0
LINE
5
527
100
AcDbEntity
8
0
100
AcDbLine
10
114.2093
20
232.49390000000002
30
0
11
113.77340000000001
21
232.96400000000003
31
0
0
LINE
5
528
100
AcDbEntity
8
0
100
AcDbLine
10
121.42140000000001
20
220.34280000000001
30
0
11
121.1956
21
220.9545
31
0
0
LINE
5
529
100
AcDbEntity
8
0
100
AcDbLine
10
122.56340000000002
20
216.59350000000003
30
0
11
122.3986
21
217.2268
31
0
0
LINE
5
530
100
AcDbEntity
8
0
100
AcDbLine
10
107.29810000000001
20
238.20340000000002
30
0
11
106.7393
21
238.53219999999999
31
0
0
LINE
5
531
100
AcDbEntity
8
0
100
AcDbLine
10
121.84280000000001
20
219.10730000000001
30
0
11
121.63710000000002
21
219.72700000000003
31
0
0
LINE
5
532
100
AcDbEntity
8
0
100
AcDbLine
10
108.92319999999999
20
237.14930000000004
30
0
11
108.39
21
237.51170000000002
31
0
0
LINE
5
533
100
AcDbEntity
8
0
100
AcDbLine
10
120.45850000000002
20
222.76310000000001
30
0
11
120.19289999999999
21
223.35640000000001
31
0
0
LINE
5
534
100
AcDbEntity
8
0
100
AcDbLine
10
117.71810000000002
20
227.9015
30
0
11
117.3656
21
228.44139999999999
31
0
0
LINE
5
535
100
AcDbEntity
8
0
100
AcDbLine
10
123.57750000000001
20
210.78880000000001
30
0
11
123.50700000000002
21
211.44069999999999
31
0
0
LINE
5
536
100
AcDbEntity
8
0
100
AcDbLine
10
112.87440000000001
20
233.87770000000003
30
0
11
112.41140000000001
21
234.32090000000002
31
0
0
LINE
5
537
100
AcDbEntity
8
0
100
AcDbLine
10
109.96360000000001
20
236.3922
30
0
11
109.4477
21
236.77600000000001
31
0
0
LINE
5
538
100
AcDbEntity
8
0
100
AcDbLine
10
114.63610000000001
20
232.01520000000002
30
0
11
114.2093
21
232.49390000000002
31
0
0
LINE
5
539
100
AcDbEntity
8
0
100
AcDbLine
10
105.01260000000002
20
239.44820000000004
30
0
11
104.42030000000001
21
239.72930000000002
31
0
0
LINE
5
540
100
AcDbEntity
8
0
100
AcDbLine
10
111.93950000000001
20
234.75480000000002
30
0
11
111.45870000000001
21
235.179
31
0
0
LINE
5
541
100
AcDbEntity
8
0
100
AcDbLine
10
122.9958
20
214.6772
30
0
11
122.8621
21
215.31850000000003
31
0
0
LINE
5
542
100
AcDbEntity
8
0
100
AcDbLine
10
122.71790000000001
20
215.95730000000003
30
0
11
122.56340000000002
21
216.59350000000003
31
0
0
LINE
5
543
100
AcDbEntity
8
0
100
AcDbLine
10
118.0612
20
227.35480000000001
30
0
11
117.71810000000002
21
227.9015
31
0
0
LINE
5
544
100
AcDbEntity
8
0
100
AcDbLine
10
121.63710000000002
20
219.72700000000003
30
0
11
121.42140000000001
21
220.34280000000001
31
0
0
LINE
5
545
100
AcDbEntity
8
0
100
AcDbLine
10
123.2319
20
213.38800000000003
30
0
11
123.1191
21
214.03360000000004
31
0
0
LINE
5
546
100
AcDbEntity
8
0
100
AcDbLine
10
122.8621
20
215.31850000000003
30
0
11
122.71790000000001
21
215.95730000000003
31
0
0
LINE
5
547
100
AcDbEntity
8
0
100
AcDbLine
10
122.3986
20
217.2268
30
0
11
122.2235
21
217.85700000000003
31
0
0
LINE
5
548
100
AcDbEntity
8
0
100
AcDbLine
10
85.443700000000007
20
241.95620000000002
30
0
11
84.636100000000013
21
241.81250000000003
31
0
0
LINE
5
549
100
AcDbEntity
8
0
100
AcDbLine
10
108.39
20
237.51170000000002
30
0
11
107.84829999999999
21
237.86320000000003
31
0
0
LINE
5
550
100
AcDbEntity
8
0
100
AcDbLine
10
112.41140000000001
20
234.32090000000002
30
0
11
111.93950000000001
21
234.75480000000002
31
0
0
LINE
5
551
100
AcDbEntity
8
0
100
AcDbLine
10
109.4477
20
236.77600000000001
30
0
11
108.92319999999999
21
237.14930000000004
31
0
0
LINE
5
552
100
AcDbEntity
8
0
100
AcDbLine
10
120.9599
20
221.56200000000001
30
0
11
120.7141
21
222.16489999999999
31
0
0
LINE
5
553
100
AcDbEntity
8
0
100
AcDbLine
10
107.84829999999999
20
237.86320000000003
30
0
11
107.29810000000001
21
238.20340000000002
31
0
0
LINE
5
554
100
AcDbEntity
8
0
100
AcDbLine
10
106.7393
20
238.53219999999999
30
0
11
106.1721
21
238.84950000000003
31
0
0
LINE
5
555
100
AcDbEntity
8
0
100
AcDbLine
10
110.96910000000001
20
235.59340000000003
30
0
11
110.47069999999999
21
235.99789999999999
31
0
0
LINE
5
556
100
AcDbEntity
8
0
100
AcDbLine
10
123.50700000000002
20
211.44069999999999
30
0
11
123.42590000000001
21
212.09130000000002
31
0
0
LINE
5
557
100
AcDbEntity
8
0
100
AcDbLine
10
119.6324
20
224.52740000000003
30
0
11
119.3374
21
225.10470000000001
31
0
0
LINE
5
558
100
AcDbEntity
8
0
100
AcDbLine
10
120.19289999999999
20
223.35640000000001
30
0
11
119.91750000000002
21
223.94460000000004
31
0
0
LINE
5
559
100
AcDbEntity
8
0
100
AcDbLine
10
106.1721
20
238.84950000000003
30
0
11
105.59650000000002
21
239.15480000000002
31
0
0
LINE
5
560
100
AcDbEntity
8
0
100
AcDbLine
10
118.71850000000002
20
226.24200000000002
30
0
11
118.39460000000001
21
226.80160000000001
31
0
0
LINE
5
561
100
AcDbEntity
8
0
100
AcDbLine
10
123.42590000000001
20
212.09130000000002
30
0
11
123.33420000000001
21
212.74050000000003
31
0
0
LINE
5
562
100
AcDbEntity
8
0
100
AcDbLine
10
122.0382
20
218.48390000000001
30
0
11
121.84280000000001
21
219.10730000000001
31
0
0
LINE
5
563
100
AcDbEntity
8
0
100
AcDbLine
10
101.96890000000002
20
240.72760000000002
30
0
11
101.3357
21
240.94450000000001
31
0
0
LINE
5
564
100
AcDbEntity
8
0
100
AcDbLine
10
98.722700000000003
20
241.67590000000004
30
0
11
98.049700000000001
21
241.82360000000003
31
0
0
LINE
5
565
100
AcDbEntity
8
0
100
AcDbLine
10
120.7141
20
222.16489999999999
30
0
11
120.45850000000002
21
222.76310000000001
31
0
0
LINE
5
566
100
AcDbEntity
8
0
100
AcDbLine
10
123.1191
20
214.03360000000004
30
0
11
122.9958
21
214.6772
31
0
0
LINE
5
567
100
AcDbEntity
8
0
100
AcDbLine
10
117.00000000000001
20
172.34722900000003
30
0
11
116.21250000000002
21
172.0813
31
0
0
LINE
5
568
100
AcDbEntity
8
0
100
AcDbLine
10
99.387900000000002
20
241.51390000000004
30
0
11
98.722700000000003
21
241.67590000000004
31
0
0
LINE
5
569
100
AcDbEntity
8
0
100
AcDbLine
10
86.244100000000003
20
242.08190000000002
30
0
11
85.443700000000007
21
241.95620000000002
31
0
0
LINE
5
570
100
AcDbEntity
8
0
100
AcDbLine
10
108.33530000000002
20
152.76230000000001
30
0
11
108.5955
21
152.15719999999999
31
0
0
LINE
5
571
100
AcDbEntity
8
0
100
AcDbLine
10
136.25280000000001
20
152.5891
30
0
11
136.42670000000004
21
153.20179999999999
31
0
0
LINE
5
572
100
AcDbEntity
8
0
100
AcDbLine
10
117.45190000000001
20
143.75810000000001
30
0
11
118.0997
21
143.55260000000001
31
0
0
LINE
5
573
100
AcDbEntity
8
0
100
AcDbLine
10
133.78309999999999
20
148.09129999999999
30
0
11
134.20009999999999
21
148.6045
31
0
0
LINE
5
574
100
AcDbEntity
8
0
100
AcDbLine
10
107.11170000000001
20
157.83670000000001
30
0
11
107.178
21
157.18940000000001
31
0
0
LINE
5
575
100
AcDbEntity
8
0
100
AcDbLine
10
112.21450000000002
20
169.93950000000001
30
0
11
111.66600000000001
21
169.50110000000001
31
0
0
LINE
5
576
100
AcDbEntity
8
0
100
AcDbLine
10
108.1617
20
164.7619
30
0
11
107.9251
21
164.16630000000001
31
0
0
LINE
5
577
100
AcDbEntity
8
0
100
AcDbLine
10
95.279500000000013
20
242.26770000000002
30
0
11
94.567700000000002
21
242.34110000000001
31
0
0
LINE
5
578
100
AcDbEntity
8
0
100
AcDbLine
10
136.8389
20
155.7199
30
0
11
136.87289999999999
21
156.36099999999999
31
0
0
LINE
5
579
100
AcDbEntity
8
0
100
AcDbLine
10
114.4614
20
145.21420000000001
30
0
11
115.0253
21
144.86940000000001
31
0
0
LINE
5
580
100
AcDbEntity
8
0
100
AcDbLine
10
116.8203
20
143.99369999999999
30
0
11
117.45190000000001
21
143.75810000000001
31
0
0
LINE
5
581
100
AcDbEntity
8
0
100
AcDbLine
10
111.66600000000001
20
169.50110000000001
30
0
11
111.15030000000002
21
169.04230000000001
31
0
0
LINE
5
582
100
AcDbEntity
8
0
100
AcDbLine
10
90.895100000000014
20
242.4717
30
0
11
90.138200000000012
21
242.44920000000002
31
0
0
LINE
5
583
100
AcDbEntity
8
0
100
AcDbLine
10
132.3383
20
146.6584
30
0
11
132.8526
21
147.1172
31
0
0
LINE
5
584
100
AcDbEntity
8
0
100
AcDbLine
10
136.0498
20
151.98509999999999
30
0
11
136.25280000000001
21
152.5891
31
0
0
LINE
5
585
100
AcDbEntity
8
0
100
AcDbLine
10
88.6023
20
242.35380000000004
30
0
11
87.823499999999996
21
242.28049999999999
31
0
0
LINE
5
586
100
AcDbEntity
8
0
100
AcDbLine
10
87.823499999999996
20
242.28049999999999
30
0
11
87.037400000000019
21
242.19
31
0
0
LINE
5
587
100
AcDbEntity
8
0
100
AcDbLine
10
93.84820000000002
20
242.39900000000003
30
0
11
93.121200000000002
21
242.44120000000004
31
0
0
LINE
5
588
100
AcDbEntity
8
0
100
AcDbLine
10
109.79610000000001
20
167.5538
30
0
11
109.4079
21
167.02369999999999
31
0
0
LINE
5
589
100
AcDbEntity
8
0
100
AcDbLine
10
114.05990000000001
20
171.12130000000002
30
0
11
113.4111
21
170.75060000000002
31
0
0
LINE
5
590
100
AcDbEntity
8
0
100
AcDbLine
10
107.9251
20
164.16630000000001
30
0
11
107.71770000000001
21
163.56080000000003
31
0
0
LINE
5
591
100
AcDbEntity
8
0
100
AcDbLine
10
100.6944
20
241.14800000000002
30
0
11
100.04519999999999
21
241.33790000000002
31
0
0
LINE
5
592
100
AcDbEntity
8
0
100
AcDbLine
10
110.2157
20
168.0676
30
0
11
109.79610000000001
21
167.5538
31
0
0
LINE
5
593
100
AcDbEntity
8
0
100
AcDbLine
10
110.66690000000001
20
168.5641
30
0
11
110.2157
21
168.0676
31
0
0
LINE
5
594
100
AcDbEntity
8
0
100
AcDbLine
10
109.05070000000002
20
166.47839999999999
30
0
11
108.7242
21
165.91900000000004
31
0
0
LINE
5
595
100
AcDbEntity
8
0
100
AcDbLine
10
107.38950000000001
20
162.32409999999999
30
0
11
107.26790000000001
21
161.6951
31
0
0
LINE
5
596
100
AcDbEntity
8
0
100
AcDbLine
10
93.121200000000002
20
242.44120000000004
30
0
11
92.386700000000005
21
242.46750000000003
31
0
0
LINE
5
597
100
AcDbEntity
8
0
100
AcDbLine
10
107.8843
20
153.9982
30
0
11
108.09820000000002
21
153.37629999999999
31
0
0
LINE
5
598
100
AcDbEntity
8
0
100
AcDbLine
10
107.71770000000001
20
163.56080000000003
30
0
11
107.5393
21
162.94640000000001
31
0
0
LINE
5
599
100
AcDbEntity
8
0
100
AcDbLine
10
107.06900000000002
20
159.77760000000001
30
0
11
107.05680000000001
21
159.1318
31
0
0
LINE
5
600
100
AcDbEntity
8
0
100
AcDbLine
10
98.049700000000001
20
241.82360000000003
30
0
11
97.368799999999993
21
241.95679999999999
31
0
0
LINE
5
601
100
AcDbEntity
8
0
100
AcDbLine
10
107.05680000000001
20
159.1318
30
0
11
107.07120000000002
21
158.4845
31
0
0
LINE
5
602
100
AcDbEntity
8
0
100
AcDbLine
10
108.5955
20
152.15719999999999
30
0
11
108.8784
21
151.56219999999999
31
0
0
LINE
5
603
100
AcDbEntity
8
0
100
AcDbLine
10
108.7242
20
165.91900000000004
30
0
11
108.42790000000001
21
165.34649999999999
31
0
0
LINE
5
604
100
AcDbEntity
8
0
100
AcDbLine
10
107.5282
20
155.26150000000001
30
0
11
107.6942
21
154.62690000000003
31
0
0
LINE
5
605
100
AcDbEntity
8
0
100
AcDbLine
10
89.373900000000006
20
242.40989999999999
30
0
11
88.6023
21
242.35380000000004
31
0
0
LINE
5
606
100
AcDbEntity
8
0
100
AcDbLine
10
92.386700000000005
20
242.46750000000003
30
0
11
91.644599999999997
21
242.47780000000003
31
0
0
LINE
5
607
100
AcDbEntity
8
0
100
AcDbLine
10
91.644599999999997
20
242.47780000000003
30
0
11
90.895100000000014
21
242.4717
31
0
0
LINE
5
608
100
AcDbEntity
8
0
100
AcDbLine
10
129.26249999999999
20
144.68879999999999
30
0
11
129.9462
21
145.036
31
0
0
LINE
5
609
100
AcDbEntity
8
0
100
AcDbLine
10
107.5393
20
162.94640000000001
30
0
11
107.38950000000001
21
162.32409999999999
31
0
0
LINE
5
610
100
AcDbEntity
8
0
100
AcDbLine
10
115.4602
20
171.7877
30
0
11
114.7428
21
171.4674
31
0
0
LINE
5
611
100
AcDbEntity
8
0
100
AcDbLine
10
116.21250000000002
20
172.0813
30
0
11
115.4602
21
171.7877
31
0
0
LINE
5
612
100
AcDbEntity
8
0
100
AcDbLine
10
136.5719
20
153.82230000000001
30
0
11
136.68879999999999
21
154.4495
31
0
0
LINE
5
613
100
AcDbEntity
8
0
100
AcDbLine
10
110.22980000000001
20
149.30289999999999
30
0
11
110.62080000000002
21
148.77359999999999
31
0
0
LINE
5
614
100
AcDbEntity
8
0
100
AcDbLine
10
96.68010000000001
20
242.0754
30
0
11
95.983599999999996
21
242.17910000000003
31
0
0
LINE
5
615
100
AcDbEntity
8
0
100
AcDbLine
10
135.26249999999999
20
150.23650000000001
30
0
11
135.55500000000001
21
150.80779999999999
31
0
0
LINE
5
616
100
AcDbEntity
8
0
100
AcDbLine
10
136.52549999999999
20
160.22500000000002
30
0
11
136.37909999999999
21
160.8621
31
0
0
LINE
5
617
100
AcDbEntity
8
0
100
AcDbLine
10
114.7428
20
171.4674
30
0
11
114.05990000000001
21
171.12130000000002
31
0
0
LINE
5
618
100
AcDbEntity
8
0
100
AcDbLine
10
84.636100000000013
20
241.81250000000003
30
0
11
83.821600000000004
21
241.6507
31
0
0
LINE
5
619
100
AcDbEntity
8
0
100
AcDbLine
10
111.15030000000002
20
169.04230000000001
30
0
11
110.66690000000001
21
168.5641
31
0
0
LINE
5
620
100
AcDbEntity
8
0
100
AcDbLine
10
108.09820000000002
20
153.37629999999999
30
0
11
108.33530000000002
21
152.76230000000001
31
0
0
LINE
5
621
100
AcDbEntity
8
0
100
AcDbLine
10
83.821600000000004
20
241.6507
30
0
11
83
21
241.47059999999999
31
0
0
LINE
5
622
100
AcDbEntity
8
0
100
AcDbLine
10
97.368799999999993
20
241.95679999999999
30
0
11
96.68010000000001
21
242.0754
31
0
0
LINE
5
623
100
AcDbEntity
8
0
100
AcDbLine
10
107.26790000000001
20
161.6951
30
0
11
107.17410000000001
21
161.06020000000001
31
0
0
LINE
5
624
100
AcDbEntity
8
0
100
AcDbLine
10
87.037400000000019
20
242.19
30
0
11
86.244100000000003
21
242.08190000000002
31
0
0
LINE
5
625
100
AcDbEntity
8
0
100
AcDbLine
10
112.79600000000002
20
170.3563
30
0
11
112.21450000000002
21
169.93950000000001
31
0
0
LINE
5
626
100
AcDbEntity
8
0
100
AcDbLine
10
107.26970000000001
20
156.5438
30
0
11
107.38660000000002
21
155.9008
31
0
0
LINE
5
627
100
AcDbEntity
8
0
100
AcDbLine
10
136.7439
20
158.94059999999999
30
0
11
136.6472
21
159.58410000000001
31
0
0
LINE
5
628
100
AcDbEntity
8
0
100
AcDbLine
10
109.4079
20
167.02369999999999
30
0
11
109.05070000000002
21
166.47839999999999
31
0
0
LINE
5
629
100
AcDbEntity
8
0
100
AcDbLine
10
107.178
20
157.18940000000001
30
0
11
107.26970000000001
21
156.5438
31
0
0
LINE
5
630
100
AcDbEntity
8
0
100
AcDbLine
10
108.8784
20
151.56219999999999
30
0
11
109.1836
21
150.97810000000004
31
0
0
LINE
5
631
100
AcDbEntity
8
0
100
AcDbLine
10
107.108
20
160.42070000000001
30
0
11
107.06900000000002
21
159.77760000000001
31
0
0
LINE
5
632
100
AcDbEntity
8
0
100
AcDbLine
10
136.20840000000001
20
161.49460000000002
30
0
11
136.0138
21
162.12129999999999
31
0
0
LINE
5
633
100
AcDbEntity
8
0
100
AcDbLine
10
115.6066
20
144.55029999999999
30
0
11
116.20510000000002
21
144.25810000000001
31
0
0
LINE
5
634
100
AcDbEntity
8
0
100
AcDbLine
10
127.05500000000001
20
172.1097
30
0
11
126.42749999999999
21
172.34660000000002
31
0
0
LINE
5
635
100
AcDbEntity
8
0
100
AcDbLine
10
111.9162
20
147.2877
30
0
11
112.38750000000002
21
146.82990000000001
31
0
0
LINE
5
636
100
AcDbEntity
8
0
100
AcDbLine
10
126.18640000000001
20
143.56819999999999
30
0
11
127.00000000000001
21
143.80400000000003
31
0
0
LINE
5
637
100
AcDbEntity
8
0
100
AcDbLine
10
136.88
20
157.00460000000001
30
0
11
136.86070000000001
21
157.64980000000003
31
0
0
LINE
5
638
100
AcDbEntity
8
0
100
AcDbLine
10
136.86070000000001
20
157.64980000000003
30
0
11
136.8151
21
158.2955
31
0
0
LINE
5
639
100
AcDbEntity
8
0
100
AcDbLine
10
131.21000000000004
20
145.80260000000004
30
0
11
131.79089999999999
21
146.2199
31
0
0
LINE
5
640
100
AcDbEntity
8
0
100
AcDbLine
10
131.79089999999999
20
146.2199
30
0
11
132.3383
21
146.6584
31
0
0
LINE
5
641
100
AcDbEntity
8
0
100
AcDbLine
10
128.5438
20
144.36699999999999
30
0
11
129.26249999999999
21
144.68879999999999
31
0
0
LINE
5
642
100
AcDbEntity
8
0
100
AcDbLine
10
122.30420000000001
20
143.0069
30
0
11
123.0547
21
143.04040000000001
31
0
0
LINE
5
643
100
AcDbEntity
8
0
100
AcDbLine
10
129.9462
20
145.036
30
0
11
130.59520000000001
21
145.4076
31
0
0
LINE
5
644
100
AcDbEntity
8
0
100
AcDbLine
10
112.38750000000002
20
146.82990000000001
30
0
11
112.87800000000001
21
146.39260000000002
31
0
0
LINE
5
645
100
AcDbEntity
8
0
100
AcDbLine
10
136.37909999999999
20
160.8621
30
0
11
136.20840000000001
21
161.49460000000002
31
0
0
LINE
5
646
100
AcDbEntity
8
0
100
AcDbLine
10
116.20510000000002
20
144.25810000000001
30
0
11
116.8203
21
143.99369999999999
31
0
0
LINE
5
647
100
AcDbEntity
8
0
100
AcDbLine
10
118.0997
20
143.55260000000001
30
0
11
118.76310000000001
21
143.37799999999999
31
0
0
LINE
5
648
100
AcDbEntity
8
0
100
AcDbLine
10
109.1836
20
150.97810000000004
30
0
11
109.51080000000002
21
150.40620000000001
31
0
0
LINE
5
649
100
AcDbEntity
8
0
100
AcDbLine
10
112.87800000000001
20
146.39260000000002
30
0
11
113.38740000000001
21
145.9769
31
0
0
LINE
5
650
100
AcDbEntity
8
0
100
AcDbLine
10
109.85970000000002
20
149.8475
30
0
11
110.22980000000001
21
149.30289999999999
31
0
0
LINE
5
651
100
AcDbEntity
8
0
100
AcDbLine
10
110.62080000000002
20
148.77359999999999
30
0
11
111.03250000000001
21
148.26060000000001
31
0
0
LINE
5
652
100
AcDbEntity
8
0
100
AcDbLine
10
115.0253
20
144.86940000000001
30
0
11
115.6066
21
144.55029999999999
31
0
0
LINE
5
653
100
AcDbEntity
8
0
100
AcDbLine
10
124.59540000000001
20
143.2234
30
0
11
125.3848
21
143.37510000000003
31
0
0
LINE
5
654
100
AcDbEntity
8
0
100
AcDbLine
10
136.42670000000004
20
153.20179999999999
30
0
11
136.5719
21
153.82230000000001
31
0
0
LINE
5
655
100
AcDbEntity
8
0
100
AcDbLine
10
119.44200000000001
20
143.2355
30
0
11
120.13580000000002
21
143.12610000000001
31
0
0
LINE
5
656
100
AcDbEntity
8
0
100
AcDbLine
10
133.334
20
147.5951
30
0
11
133.78309999999999
21
148.09129999999999
31
0
0
LINE
5
657
100
AcDbEntity
8
0
100
AcDbLine
10
125.3848
20
143.37510000000003
30
0
11
126.18640000000001
21
143.56819999999999
31
0
0
LINE
5
658
100
AcDbEntity
8
0
100
AcDbLine
10
136.8151
20
158.2955
30
0
11
136.7439
21
158.94059999999999
31
0
0
LINE
5
659
100
AcDbEntity
8
0
100
AcDbLine
10
123.81860000000002
20
143.1122
30
0
11
124.59540000000001
21
143.2234
31
0
0
LINE
5
660
100
AcDbEntity
8
0
100
AcDbLine
10
136.87289999999999
20
156.36099999999999
30
0
11
136.88
21
157.00460000000001
31
0
0
LINE
5
661
100
AcDbEntity
8
0
100
AcDbLine
10
135.81729999999999
20
151.39099999999999
30
0
11
136.0498
21
151.98509999999999
31
0
0
LINE
5
662
100
AcDbEntity
8
0
100
AcDbLine
10
113.91530000000002
20
145.58369999999999
30
0
11
114.4614
21
145.21420000000001
31
0
0
LINE
5
663
100
AcDbEntity
8
0
100
AcDbLine
10
113.38740000000001
20
145.9769
30
0
11
113.91530000000002
21
145.58369999999999
31
0
0
LINE
5
664
100
AcDbEntity
8
0
100
AcDbLine
10
109.51080000000002
20
150.40620000000001
30
0
11
109.85970000000002
21
149.8475
31
0
0
LINE
5
665
100
AcDbEntity
8
0
100
AcDbLine
10
130.59520000000001
20
145.4076
30
0
11
131.21000000000004
21
145.80260000000004
31
0
0
LINE
5
666
100
AcDbEntity
8
0
100
AcDbLine
10
120.13580000000002
20
143.12610000000001
30
0
11
120.84440000000001
21
143.05080000000001
31
0
0
LINE
5
667
100
AcDbEntity
8
0
100
AcDbLine
10
119.3646
20
172.9117
30
0
11
118.58760000000001
21
172.76499999999999
31
0
0
LINE
5
668
100
AcDbEntity
8
0
100
AcDbLine
10
134.58539999999999
20
149.13380000000001
30
0
11
134.93940000000003
21
149.6782
31
0
0
LINE
5
669
100
AcDbEntity
8
0
100
AcDbLine
10
136.6472
20
159.58410000000001
30
0
11
136.52549999999999
21
160.22500000000002
31
0
0
LINE
5
670
100
AcDbEntity
8
0
100
AcDbLine
10
120.84440000000001
20
143.05080000000001
30
0
11
121.56730000000002
21
143.01070000000004
31
0
0
LINE
5
671
100
AcDbEntity
8
0
100
AcDbLine
10
129.94810000000001
20
170.51650000000001
30
0
11
129.4033
21
170.88620000000003
31
0
0
LINE
5
672
100
AcDbEntity
8
0
100
AcDbLine
10
123.0547
20
143.04040000000001
30
0
11
123.81860000000002
21
143.1122
31
0
0
LINE
5
673
100
AcDbEntity
8
0
100
AcDbLine
10
134.93940000000003
20
149.6782
30
0
11
135.26249999999999
21
150.23650000000001
31
0
0
LINE
5
674
100
AcDbEntity
8
0
100
AcDbLine
10
72
20
149.46682699999999
30
0
11
71.192800000000005
21
149.25819999999999
31
0
0
LINE
5
675
100
AcDbEntity
8
0
100
AcDbLine
10
68.209000000000003
20
148.19399999999999
30
0
11
67.523400000000009
21
147.87360000000001
31
0
0
LINE
5
676
100
AcDbEntity
8
0
100
AcDbLine
10
65.609200000000001
20
146.79179999999999
30
0
11
65.018100000000004
21
146.3931
31
0
0
LINE
5
677
100
AcDbEntity
8
0
100
AcDbLine
10
135.2902
20
163.9564
30
0
11
135.00360000000001
21
164.5497
31
0
0
LINE
5
678
100
AcDbEntity
8
0
100
AcDbLine
10
118.76310000000001
20
143.37799999999999
30
0
11
119.44200000000001
21
143.2355
31
0
0
LINE
5
679
100
AcDbEntity
8
0
100
AcDbLine
10
131.4751
20
169.27099999999999
30
0
11
130.98439999999999
21
169.7079
31
0
0
LINE
5
680
100
AcDbEntity
8
0
100
AcDbLine
10
127.00000000000001
20
143.80400000000003
30
0
11
127.78970000000001
21
144.07170000000002
31
0
0
LINE
5
681
100
AcDbEntity
8
0
100
AcDbLine
10
111.03250000000001
20
148.26060000000001
30
0
11
111.4644
21
147.76499999999999
31
0
0
LINE
5
682
100
AcDbEntity
8
0
100
AcDbLine
10
136.68879999999999
20
154.4495
30
0
11
136.77760000000001
21
155.0823
31
0
0
LINE
5
683
100
AcDbEntity
8
0
100
AcDbLine
10
132.83340000000004
20
167.84270000000004
30
0
11
132.40000000000003
21
168.33740000000003
31
0
0
LINE
5
684
100
AcDbEntity
8
0
100
AcDbLine
10
121.56730000000002
20
143.01070000000004
30
0
11
122.30420000000001
21
143.0069
31
0
0
LINE
5
685
100
AcDbEntity
8
0
100
AcDbLine
10
134.69499999999999
20
165.13200000000001
30
0
11
134.3646
21
165.70230000000004
31
0
0
LINE
5
686
100
AcDbEntity
8
0
100
AcDbLine
10
125.12650000000001
20
172.73030000000003
30
0
11
124.4538
21
172.875
31
0
0
LINE
5
687
100
AcDbEntity
8
0
100
AcDbLine
10
61.954799999999999
20
143.64449999999999
30
0
11
61.523299999999999
21
143.1328
31
0
0
LINE
5
688
100
AcDbEntity
8
0
100
AcDbLine
10
121.62350000000002
20
173.1157
30
0
11
120.88290000000001
21
173.08600000000001
31
0
0
LINE
5
689
100
AcDbEntity
8
0
100
AcDbLine
10
111.4644
20
147.76499999999999
30
0
11
111.9162
21
147.2877
31
0
0
LINE
5
690
100
AcDbEntity
8
0
100
AcDbLine
10
136.77760000000001
20
155.0823
30
0
11
136.8389
21
155.7199
31
0
0
LINE
5
691
100
AcDbEntity
8
0
100
AcDbLine
10
134.20009999999999
20
148.6045
30
0
11
134.58539999999999
21
149.13380000000001
31
0
0
LINE
5
692
100
AcDbEntity
8
0
100
AcDbLine
10
127.78970000000001
20
144.07170000000002
30
0
11
128.5438
21
144.36699999999999
31
0
0
LINE
5
693
100
AcDbEntity
8
0
100
AcDbLine
10
132.8526
20
147.1172
30
0
11
133.334
21
147.5951
31
0
0
LINE
5
694
100
AcDbEntity
8
0
100
AcDbLine
10
135.55500000000001
20
150.80779999999999
30
0
11
135.81729999999999
21
151.39099999999999
31
0
0
LINE
5
695
100
AcDbEntity
8
0
100
AcDbLine
10
71.192800000000005
20
149.25819999999999
30
0
11
70.410300000000007
21
149.02600000000001
31
0
0
LINE
5
696
100
AcDbEntity
8
0
100
AcDbLine
10
120.1298
20
173.01840000000001
30
0
11
119.3646
21
172.9117
31
0
0
LINE
5
697
100
AcDbEntity
8
0
100
AcDbLine
10
77.095699999999994
20
108.9091
30
0
11
77.8536
21
108.9443
31
0
0
LINE
5
698
100
AcDbEntity
8
0
100
AcDbLine
10
77.8536
20
108.9443
30
0
11
78.623099999999994
21
109.0094
31
0
0
LINE
5
699
100
AcDbEntity
8
0
100
AcDbLine
10
60.195599999999999
20
119.25560000000002
30
0
11
60.518000000000001
21
118.67240000000001
31
0
0
LINE
5
700
100
AcDbEntity
8
0
100
AcDbLine
10
70.823300000000003
20
109.83540000000002
30
0
11
71.469700000000003
21
109.62949999999999
31
0
0
LINE
5
701
100
AcDbEntity
8
0
100
AcDbLine
10
78.623099999999994
20
109.0094
30
0
11
79.4041
21
109.105
31
0
0
LINE
5
702
100
AcDbEntity
8
0
100
AcDbLine
10
57.557900000000004
20
127.5197
30
0
11
57.654500000000006
21
126.8552
31
0
0
LINE
5
703
100
AcDbEntity
8
0
100
AcDbLine
10
58.2089
20
136.7396
30
0
11
58.033800000000006
21
136.10509999999999
31
0
0
LINE
5
704
100
AcDbEntity
8
0
100
AcDbLine
10
120.88290000000001
20
173.08600000000001
30
0
11
120.1298
21
173.01840000000001
31
0
0
LINE
5
705
100
AcDbEntity
8
0
100
AcDbLine
10
57.744600000000005
20
134.81809999999999
30
0
11
57.630300000000005
21
134.1669
31
0
0
LINE
5
706
100
AcDbEntity
8
0
100
AcDbLine
10
65.018100000000004
20
146.3931
30
0
11
64.450299999999999
21
145.97640000000001
31
0
0
LINE
5
707
100
AcDbEntity
8
0
100
AcDbLine
10
60.518000000000001
20
118.67240000000001
30
0
11
60.856700000000004
21
118.09980000000002
31
0
0
LINE
5
708
100
AcDbEntity
8
0
100
AcDbLine
10
118.58760000000001
20
172.76499999999999
30
0
11
117.7993
21
172.57720000000003
31
0
0
LINE
5
709
100
AcDbEntity
8
0
100
AcDbLine
10
132.40000000000003
20
168.33740000000003
30
0
11
131.94710000000001
21
168.81380000000001
31
0
0
LINE
5
710
100
AcDbEntity
8
0
100
AcDbLine
10
123.7668
20
172.98699999999999
30
0
11
123.0658
21
173.0651
31
0
0
LINE
5
711
100
AcDbEntity
8
0
100
AcDbLine
10
128.84119999999999
20
171.23140000000004
30
0
11
128.26220000000001
21
171.55100000000002
31
0
0
LINE
5
712
100
AcDbEntity
8
0
100
AcDbLine
10
63.905600000000007
20
145.54239999999999
30
0
11
63.383900000000004
21
145.0915
31
0
0
LINE
5
713
100
AcDbEntity
8
0
100
AcDbLine
10
66.861700000000013
20
147.53270000000001
30
0
11
66.223700000000008
21
147.17189999999999
31
0
0
LINE
5
714
100
AcDbEntity
8
0
100
AcDbLine
10
135.00360000000001
20
164.5497
30
0
11
134.69499999999999
21
165.13200000000001
31
0
0
LINE
5
715
100
AcDbEntity
8
0
100
AcDbLine
10
62.884900000000002
20
144.62450000000001
30
0
11
62.408600000000007
21
144.142
31
0
0
LINE
5
716
100
AcDbEntity
8
0
100
AcDbLine
10
69.652299999999997
20
148.77080000000001
30
0
11
68.918499999999995
21
148.49330000000003
31
0
0
LINE
5
717
100
AcDbEntity
8
0
100
AcDbLine
10
134.3646
20
165.70230000000004
30
0
11
134.0129
21
166.2595
31
0
0
LINE
5
718
100
AcDbEntity
8
0
100
AcDbLine
10
59.695900000000002
20
140.3819
30
0
11
59.395300000000006
21
139.79759999999999
31
0
0
LINE
5
719
100
AcDbEntity
8
0
100
AcDbLine
10
63.383900000000004
20
145.0915
30
0
11
62.884900000000002
21
144.62450000000001
31
0
0
LINE
5
720
100
AcDbEntity
8
0
100
AcDbLine
10
66.223700000000008
20
147.17189999999999
30
0
11
65.609200000000001
21
146.79179999999999
31
0
0
LINE
5
721
100
AcDbEntity
8
0
100
AcDbLine
10
122.35129999999999
20
173.10830000000004
30
0
11
121.62350000000002
21
173.1157
31
0
0
LINE
5
722
100
AcDbEntity
8
0
100
AcDbLine
10
129.4033
20
170.88620000000003
30
0
11
128.84119999999999
21
171.23140000000004
31
0
0
LINE
5
723
100
AcDbEntity
8
0
100
AcDbLine
10
125.78450000000001
20
172.5538
30
0
11
125.12650000000001
21
172.73030000000003
31
0
0
LINE
5
724
100
AcDbEntity
8
0
100
AcDbLine
10
130.4752
20
170.1234
30
0
11
129.94810000000001
21
170.51650000000001
31
0
0
LINE
5
725
100
AcDbEntity
8
0
100
AcDbLine
10
62.408600000000007
20
144.142
30
0
11
61.954799999999999
21
143.64449999999999
31
0
0
LINE
5
726
100
AcDbEntity
8
0
100
AcDbLine
10
135.55439999999999
20
163.35319999999999
30
0
11
135.2902
21
163.9564
31
0
0
LINE
5
727
100
AcDbEntity
8
0
100
AcDbLine
10
68.918499999999995
20
148.49330000000003
30
0
11
68.209000000000003
21
148.19399999999999
31
0
0
LINE
5
728
100
AcDbEntity
8
0
100
AcDbLine
10
136.0138
20
162.12129999999999
30
0
11
135.79570000000001
21
162.74119999999999
31
0
0
LINE
5
729
100
AcDbEntity
8
0
100
AcDbLine
10
133.24690000000001
20
167.33080000000001
30
0
11
132.83340000000004
21
167.84270000000004
31
0
0
LINE
5
730
100
AcDbEntity
8
0
100
AcDbLine
10
76.349599999999995
20
108.90320000000001
30
0
11
77.095699999999994
21
108.9091
31
0
0
LINE
5
731
100
AcDbEntity
8
0
100
AcDbLine
10
67.791600000000017
20
111.2079
30
0
11
68.370800000000003
21
110.88979999999999
31
0
0
LINE
5
732
100
AcDbEntity
8
0
100
AcDbLine
10
58.033800000000006
20
136.10509999999999
30
0
11
57.879100000000001
21
135.46440000000001
31
0
0
LINE
5
733
100
AcDbEntity
8
0
100
AcDbLine
10
61.113999999999997
20
142.60749999999999
30
0
11
60.726799999999997
21
142.06909999999999
31
0
0
LINE
5
734
100
AcDbEntity
8
0
100
AcDbLine
10
60.726799999999997
20
142.06909999999999
30
0
11
60.361499999999999
21
141.51830000000001
31
0
0
LINE
5
735
100
AcDbEntity
8
0
100
AcDbLine
10
117.7993
20
172.57720000000003
30
0
11
117.00000000000001
21
172.34719999999999
31
0
0
LINE
5
736
100
AcDbEntity
8
0
100
AcDbLine
10
57.406100000000002
20
132.18979999999999
30
0
11
57.370600000000003
21
131.52500000000001
31
0
0
LINE
5
737
100
AcDbEntity
8
0
100
AcDbLine
10
130.98439999999999
20
169.7079
30
0
11
130.4752
21
170.1234
31
0
0
LINE
5
738
100
AcDbEntity
8
0
100
AcDbLine
10
59.395300000000006
20
139.79759999999999
30
0
11
59.116100000000003
21
139.20330000000001
31
0
0
LINE
5
739
100
AcDbEntity
8
0
100
AcDbLine
10
58.620800000000003
20
137.98759999999999
30
0
11
58.404500000000006
21
137.3673
31
0
0
LINE
5
740
100
AcDbEntity
8
0
100
AcDbLine
10
134.0129
20
166.2595
30
0
11
133.64019999999999
21
166.80270000000002
31
0
0
LINE
5
741
100
AcDbEntity
8
0
100
AcDbLine
10
128.26220000000001
20
171.55100000000002
30
0
11
127.66670000000002
21
171.8442
31
0
0
LINE
5
742
100
AcDbEntity
8
0
100
AcDbLine
10
127.66670000000002
20
171.8442
30
0
11
127.05500000000001
21
172.1097
31
0
0
LINE
5
743
100
AcDbEntity
8
0
100
AcDbLine
10
59.072299999999998
20
121.682
30
0
11
59.327900000000007
21
121.0626
31
0
0
LINE
5
744
100
AcDbEntity
8
0
100
AcDbLine
10
72.801299999999998
20
109.29110000000001
30
0
11
73.486199999999997
21
109.15990000000001
31
0
0
LINE
5
745
100
AcDbEntity
8
0
100
AcDbLine
10
135.79570000000001
20
162.74119999999999
30
0
11
135.55439999999999
21
163.35319999999999
31
0
0
LINE
5
746
100
AcDbEntity
8
0
100
AcDbLine
10
131.94710000000001
20
168.81380000000001
30
0
11
131.4751
21
169.27099999999999
31
0
0
LINE
5
747
100
AcDbEntity
8
0
100
AcDbLine
10
61.523299999999999
20
143.1328
30
0
11
61.113999999999997
21
142.60749999999999
31
0
0
LINE
5
748
100
AcDbEntity
8
0
100
AcDbLine
10
133.64019999999999
20
166.80270000000002
30
0
11
133.24690000000001
21
167.33080000000001
31
0
0
LINE
5
749
100
AcDbEntity
8
0
100
AcDbLine
10
64.450299999999999
20
145.97640000000001
30
0
11
63.905600000000007
21
145.54239999999999
31
0
0
LINE
5
750
100
AcDbEntity
8
0
100
AcDbLine
10
60.361499999999999
20
141.51830000000001
30
0
11
60.017899999999997
21
140.95570000000004
31
0
0
LINE
5
751
100
AcDbEntity
8
0
100
AcDbLine
10
70.410300000000007
20
149.02600000000001
30
0
11
69.652299999999997
21
148.77080000000001
31
0
0
LINE
5
752
100
AcDbEntity
8
0
100
AcDbLine
10
124.4538
20
172.875
30
0
11
123.7668
21
172.98699999999999
31
0
0
LINE
5
753
100
AcDbEntity
8
0
100
AcDbLine
10
59.116100000000003
20
139.20330000000001
30
0
11
58.857900000000001
21
138.59980000000002
31
0
0
LINE
5
754
100
AcDbEntity
8
0
100
AcDbLine
10
58.857900000000001
20
138.59980000000002
30
0
11
58.620800000000003
21
137.98759999999999
31
0
0
LINE
5
755
100
AcDbEntity
8
0
100
AcDbLine
10
60.017899999999997
20
140.95570000000004
30
0
11
59.695900000000002
21
140.3819
31
0
0
LINE
5
756
100
AcDbEntity
8
0
100
AcDbLine
10
67.523400000000009
20
147.87360000000001
30
0
11
66.861700000000013
21
147.53270000000001
31
0
0
LINE
5
757
100
AcDbEntity
8
0
100
AcDbLine
10
123.0658
20
173.0651
30
0
11
122.35129999999999
21
173.10830000000004
31
0
0
LINE
5
758
100
AcDbEntity
8
0
100
AcDbLine
10
58.404500000000006
20
137.3673
30
0
11
58.2089
21
136.7396
31
0
0
LINE
5
759
100
AcDbEntity
8
0
100
AcDbLine
10
126.42749999999999
20
172.34660000000002
30
0
11
125.78450000000001
21
172.5538
31
0
0
LINE
5
760
100
AcDbEntity
8
0
100
AcDbLine
10
70.190100000000001
20
110.06500000000001
30
0
11
70.823300000000003
21
109.83540000000002
31
0
0
LINE
5
761
100
AcDbEntity
8
0
100
AcDbLine
10
66.675200000000004
20
111.90530000000001
30
0
11
67.226399999999998
21
111.5466
31
0
0
LINE
5
762
100
AcDbEntity
8
0
100
AcDbLine
10
74.183599999999998
20
109.0549
30
0
11
74.8934
21
108.97669999999999
31
0
0
LINE
5
763
100
AcDbEntity
8
0
100
AcDbLine
10
57.654500000000006
20
126.8552
30
0
11
57.769300000000001
21
126.19320000000002
31
0
0
LINE
5
764
100
AcDbEntity
8
0
100
AcDbLine
10
62.371499999999997
20
115.9281
30
0
11
62.789400000000001
21
115.4179
31
0
0
LINE
5
765
100
AcDbEntity
8
0
100
AcDbLine
10
74.8934
20
108.97669999999999
30
0
11
75.615499999999997
21
108.92600000000002
31
0
0
LINE
5
766
100
AcDbEntity
8
0
100
AcDbLine
10
58.053300000000007
20
124.87920000000001
30
0
11
58.222000000000008
21
124.2285
31
0
0
LINE
5
767
100
AcDbEntity
8
0
100
AcDbLine
10
95.496899999999997
20
136.0985
30
0
11
95.286900000000003
21
136.71590000000003
31
0
0
LINE
5
768
100
AcDbEntity
8
0
100
AcDbLine
10
57.879100000000001
20
135.46440000000001
30
0
11
57.744600000000005
21
134.81809999999999
31
0
0
LINE
5
769
100
AcDbEntity
8
0
100
AcDbLine
10
94.279899999999998
20
139.11439999999999
30
0
11
93.986999999999995
21
139.69329999999999
31
0
0
LINE
5
770
100
AcDbEntity
8
0
100
AcDbLine
10
86.858000000000004
20
111.5108
30
0
11
87.488699999999994
21
111.86620000000002
31
0
0
LINE
5
771
100
AcDbEntity
8
0
100
AcDbLine
10
65.615499999999997
20
112.6799
30
0
11
66.138200000000012
21
112.28319999999999
31
0
0
LINE
5
772
100
AcDbEntity
8
0
100
AcDbLine
10
61.969099999999997
20
116.45200000000001
30
0
11
62.371499999999997
21
115.9281
31
0
0
LINE
5
773
100
AcDbEntity
8
0
100
AcDbLine
10
89.248099999999994
20
113.039
30
0
11
89.790899999999993
21
113.46350000000001
31
0
0
LINE
5
774
100
AcDbEntity
8
0
100
AcDbLine
10
63.671500000000009
20
114.44119999999999
30
0
11
64.135199999999998
21
113.97590000000001
31
0
0
LINE
5
775
100
AcDbEntity
8
0
100
AcDbLine
10
96.166499999999999
20
133.57490000000001
30
0
11
96.025000000000006
21
134.21279999999999
31
0
0
LINE
5
776
100
AcDbEntity
8
0
100
AcDbLine
10
95.612499999999997
20
122.0227
30
0
11
95.803799999999995
21
122.6387
31
0
0
LINE
5
777
100
AcDbEntity
8
0
100
AcDbLine
10
66.138200000000012
20
112.28319999999999
30
0
11
66.675200000000004
21
111.90530000000001
31
0
0
LINE
5
778
100
AcDbEntity
8
0
100
AcDbLine
10
57.461200000000005
20
132.85210000000001
30
0
11
57.406100000000002
21
132.18979999999999
31
0
0
LINE
5
779
100
AcDbEntity
8
0
100
AcDbLine
10
69.5702
20
110.31770000000002
30
0
11
70.190100000000001
21
110.06500000000001
31
0
0
LINE
5
780
100
AcDbEntity
8
0
100
AcDbLine
10
59.889700000000005
20
119.84880000000001
30
0
11
60.195599999999999
21
119.25560000000002
31
0
0
LINE
5
781
100
AcDbEntity
8
0
100
AcDbLine
10
71.469700000000003
20
109.62949999999999
30
0
11
72.129099999999994
21
109.44780000000002
31
0
0
LINE
5
782
100
AcDbEntity
8
0
100
AcDbLine
10
64.135199999999998
20
113.97590000000001
30
0
11
64.613900000000001
21
113.52690000000001
31
0
0
LINE
5
783
100
AcDbEntity
8
0
100
AcDbLine
10
62.789400000000001
20
115.4179
30
0
11
63.222799999999999
21
114.9221
31
0
0
LINE
5
784
100
AcDbEntity
8
0
100
AcDbLine
10
72.129099999999994
20
109.44780000000002
30
0
11
72.801299999999998
21
109.29110000000001
31
0
0
LINE
5
785
100
AcDbEntity
8
0
100
AcDbLine
10
57.535800000000002
20
133.51140000000001
30
0
11
57.461200000000005
21
132.85210000000001
31
0
0
LINE
5
786
100
AcDbEntity
8
0
100
AcDbLine
10
96.374799999999993
20
125.158
30
0
11
96.4696
21
125.79880000000001
31
0
0
LINE
5
787
100
AcDbEntity
8
0
100
AcDbLine
10
94.816500000000005
20
137.93049999999999
30
0
11
94.556400000000011
21
138.5266
31
0
0
LINE
5
788
100
AcDbEntity
8
0
100
AcDbLine
10
61.211500000000001
20
117.5385
30
0
11
61.582299999999996
21
116.98900000000002
31
0
0
LINE
5
789
100
AcDbEntity
8
0
100
AcDbLine
10
94.556400000000011
20
138.5266
30
0
11
94.279899999999998
21
139.11439999999999
31
0
0
LINE
5
790
100
AcDbEntity
8
0
100
AcDbLine
10
59.6004
20
120.4513
30
0
11
59.889700000000005
21
119.84880000000001
31
0
0
LINE
5
791
100
AcDbEntity
8
0
100
AcDbLine
10
57.479700000000008
20
128.18610000000001
30
0
11
57.557900000000004
21
127.5197
31
0
0
LINE
5
792
100
AcDbEntity
8
0
100
AcDbLine
10
58.612400000000008
20
122.9427
30
0
11
58.833799999999997
21
122.30890000000001
31
0
0
LINE
5
793
100
AcDbEntity
8
0
100
AcDbLine
10
67.226399999999998
20
111.5466
30
0
11
67.791600000000017
21
111.2079
31
0
0
LINE
5
794
100
AcDbEntity
8
0
100
AcDbLine
10
57.354400000000005
20
130.85839999999999
30
0
11
57.357300000000002
21
130.19059999999999
31
0
0
LINE
5
795
100
AcDbEntity
8
0
100
AcDbLine
10
64.613900000000001
20
113.52690000000001
30
0
11
65.107399999999998
21
113.09470000000002
31
0
0
LINE
5
796
100
AcDbEntity
8
0
100
AcDbLine
10
79.4041
20
109.105
30
0
11
80.196400000000011
21
109.23180000000002
31
0
0
LINE
5
797
100
AcDbEntity
8
0
100
AcDbLine
10
57.630300000000005
20
134.1669
30
0
11
57.535800000000002
21
133.51140000000001
31
0
0
LINE
5
798
100
AcDbEntity
8
0
100
AcDbLine
10
68.963700000000017
20
110.59280000000001
30
0
11
69.5702
21
110.31770000000002
31
0
0
LINE
5
799
100
AcDbEntity
8
0
100
AcDbLine
10
58.833799999999997
20
122.30890000000001
30
0
11
59.072299999999998
21
121.682
31
0
0
LINE
5
800
100
AcDbEntity
8
0
100
AcDbLine
10
65.107399999999998
20
113.09470000000002
30
0
11
65.615499999999997
21
112.6799
31
0
0
LINE
5
801
100
AcDbEntity
8
0
100
AcDbLine
10
60.856700000000004
20
118.09980000000002
30
0
11
61.211500000000001
21
117.5385
31
0
0
LINE
5
802
100
AcDbEntity
8
0
100
AcDbLine
10
57.379300000000001
20
129.5222
30
0
11
57.420100000000005
21
128.85380000000001
31
0
0
LINE
5
803
100
AcDbEntity
8
0
100
AcDbLine
10
57.357300000000002
20
130.19059999999999
30
0
11
57.379300000000001
21
129.5222
31
0
0
LINE
5
804
100
AcDbEntity
8
0
100
AcDbLine
10
63.222799999999999
20
114.9221
30
0
11
63.671500000000009
21
114.44119999999999
31
0
0
LINE
5
805
100
AcDbEntity
8
0
100
AcDbLine
10
57.370600000000003
20
131.52500000000001
30
0
11
57.354400000000005
21
130.85839999999999
31
0
0
LINE
5
806
100
AcDbEntity
8
0
100
AcDbLine
10
68.370800000000003
20
110.88979999999999
30
0
11
68.963700000000017
21
110.59280000000001
31
0
0
LINE
5
807
100
AcDbEntity
8
0
100
AcDbLine
10
96.545500000000004
20
126.44280000000002
30
0
11
96.60260000000001
21
127.0894
31
0
0
LINE
5
808
100
AcDbEntity
8
0
100
AcDbLine
10
73.486199999999997
20
109.15990000000001
30
0
11
74.183599999999998
21
109.0549
31
0
0
LINE
5
809
100
AcDbEntity
8
0
100
AcDbLine
10
57.902300000000004
20
125.5343
30
0
11
58.053300000000007
21
124.87920000000001
31
0
0
LINE
5
810
100
AcDbEntity
8
0
100
AcDbLine
10
61.582299999999996
20
116.98900000000002
30
0
11
61.969099999999997
21
116.45200000000001
31
0
0
LINE
5
811
100
AcDbEntity
8
0
100
AcDbLine
10
87.488699999999994
20
111.86620000000002
30
0
11
88.097200000000001
21
112.23970000000001
31
0
0
LINE
5
812
100
AcDbEntity
8
0
100
AcDbLine
10
57.769300000000001
20
126.19320000000002
30
0
11
57.902300000000004
21
125.5343
31
0
0
LINE
5
813
100
AcDbEntity
8
0
100
AcDbLine
10
91.746399999999994
20
115.31460000000001
30
0
11
92.182000000000016
21
115.81270000000002
31
0
0
LINE
5
814
100
AcDbEntity
8
0
100
AcDbLine
10
57.420100000000005
20
128.85380000000001
30
0
11
57.479700000000008
21
128.18610000000001
31
0
0
LINE
5
815
100
AcDbEntity
8
0
100
AcDbLine
10
80.196400000000011
20
109.23180000000002
30
0
11
81
21
109.3904
31
0
0
LINE
5
816
100
AcDbEntity
8
0
100
AcDbLine
10
95.9756
20
123.26080000000002
30
0
11
96.127900000000011
21
123.88849999999999
31
0
0
LINE
5
817
100
AcDbEntity
8
0
100
AcDbLine
10
75.615499999999997
20
108.92600000000002
30
0
11
76.349599999999995
21
108.90320000000001
31
0
0
LINE
5
818
100
AcDbEntity
8
0
100
AcDbLine
10
92.282399999999996
20
142.43530000000001
30
0
11
91.894199999999998
21
142.94919999999999
31
0
0
LINE
5
819
100
AcDbEntity
8
0
100
AcDbLine
10
89.790899999999993
20
113.46350000000001
30
0
11
90.311900000000009
21
113.904
31
0
0
LINE
5
820
100
AcDbEntity
8
0
100
AcDbLine
10
59.327900000000007
20
121.0626
30
0
11
59.6004
21
120.4513
31
0
0
LINE
5
821
100
AcDbEntity
8
0
100
AcDbLine
10
58.222000000000008
20
124.2285
30
0
11
58.408499999999997
21
123.58280000000001
31
0
0
LINE
5
822
100
AcDbEntity
8
0
100
AcDbLine
10
81
20
109.3904
30
0
11
81.812400000000011
21
109.57980000000001
31
0
0
LINE
5
823
100
AcDbEntity
8
0
100
AcDbLine
10
58.408499999999997
20
123.58280000000001
30
0
11
58.612400000000008
21
122.9427
31
0
0
LINE
5
824
100
AcDbEntity
8
0
100
AcDbLine
10
93.677899999999994
20
140.2629
30
0
11
93.352800000000002
21
140.82239999999999
31
0
0
LINE
5
825
100
AcDbEntity
8
0
100
AcDbLine
10
91.071799999999996
20
143.93770000000001
30
0
11
90.637699999999995
21
144.41120000000001
31
0
0
LINE
5
826
100
AcDbEntity
8
0
100
AcDbLine
10
96.26100000000001
20
124.52110000000002
30
0
11
96.374799999999993
21
125.158
31
0
0
LINE
5
827
100
AcDbEntity
8
0
100
AcDbLine
10
95.690000000000012
20
135.4751
30
0
11
95.496899999999997
21
136.0985
31
0
0
LINE
5
828
100
AcDbEntity
8
0
100
AcDbLine
10
82.388000000000005
20
149.44220000000001
30
0
11
81.727699999999999
21
149.61340000000001
31
0
0
LINE
5
829
100
AcDbEntity
8
0
100
AcDbLine
10
83.367999999999995
20
110.0264
30
0
11
84.1113
21
110.2824
31
0
0
LINE
5
830
100
AcDbEntity
8
0
100
AcDbLine
10
92.990300000000005
20
116.84730000000002
30
0
11
93.363200000000006
21
117.3827
31
0
0
LINE
5
831
100
AcDbEntity
8
0
100
AcDbLine
10
81.812400000000011
20
109.57980000000001
30
0
11
82.601700000000008
21
109.792
31
0
0
LINE
5
832
100
AcDbEntity
8
0
100
AcDbLine
10
117.82780000000001
20
125.2175
30
0
11
117.18960000000001
21
124.81630000000001
31
0
0
LINE
5
833
100
AcDbEntity
8
0
100
AcDbLine
10
116.5934
20
124.39019999999999
30
0
11
116.03870000000001
21
123.94070000000001
31
0
0
LINE
5
834
100
AcDbEntity
8
0
100
AcDbLine
10
88.683600000000013
20
112.6309
30
0
11
89.248099999999994
21
113.039
31
0
0
LINE
5
835
100
AcDbEntity
8
0
100
AcDbLine
10
72.820499999999996
20
149.64940000000001
30
0
11
72
21
149.46680000000001
31
0
0
LINE
5
836
100
AcDbEntity
8
0
100
AcDbLine
10
114.61690000000002
20
122.46510000000001
30
0
11
114.22170000000001
21
121.93559999999999
31
0
0
LINE
5
837
100
AcDbEntity
8
0
100
AcDbLine
10
96.127900000000011
20
123.88849999999999
30
0
11
96.26100000000001
21
124.52110000000002
31
0
0
LINE
5
838
100
AcDbEntity
8
0
100
AcDbLine
10
93.715400000000017
20
117.9293
30
0
11
94.046999999999997
21
118.48660000000001
31
0
0
LINE
5
839
100
AcDbEntity
8
0
100
AcDbLine
10
93.011800000000008
20
141.37139999999999
30
0
11
92.654899999999998
21
141.9092
31
0
0
LINE
5
840
100
AcDbEntity
8
0
100
AcDbLine
10
96.4696
20
125.79880000000001
30
0
11
96.545500000000004
21
126.44280000000002
31
0
0
LINE
5
841
100
AcDbEntity
8
0
100
AcDbLine
10
96.64100000000002
20
127.7381
30
0
11
96.660800000000009
21
128.38829999999999
31
0
0
LINE
5
842
100
AcDbEntity
8
0
100
AcDbLine
10
96.645300000000006
20
129.6909
30
0
11
96.610299999999995
21
130.34219999999999
31
0
0
LINE
5
843
100
AcDbEntity
8
0
100
AcDbLine
10
95.401499999999999
20
121.41330000000002
30
0
11
95.612499999999997
21
122.0227
31
0
0
LINE
5
844
100
AcDbEntity
8
0
100
AcDbLine
10
94.649199999999993
20
119.63090000000001
30
0
11
94.920000000000016
21
120.2169
31
0
0
LINE
5
845
100
AcDbEntity
8
0
100
AcDbLine
10
96.610299999999995
20
130.34219999999999
30
0
11
96.557100000000005
21
130.99260000000001
31
0
0
LINE
5
846
100
AcDbEntity
8
0
100
AcDbLine
10
95.803799999999995
20
122.6387
30
0
11
95.9756
21
123.26080000000002
31
0
0
LINE
5
847
100
AcDbEntity
8
0
100
AcDbLine
10
113.8561
20
109.1632
30
0
11
114.1652
21
108.59430000000002
31
0
0
LINE
5
848
100
AcDbEntity
8
0
100
AcDbLine
10
114.1652
20
108.59430000000002
30
0
11
114.49930000000002
21
108.03980000000001
31
0
0
LINE
5
849
100
AcDbEntity
8
0
100
AcDbLine
10
95.170700000000011
20
120.8112
30
0
11
95.401499999999999
21
121.41330000000002
31
0
0
LINE
5
850
100
AcDbEntity
8
0
100
AcDbLine
10
113.2642
20
120.2538
30
0
11
113.01900000000002
21
119.66679999999999
31
0
0
LINE
5
851
100
AcDbEntity
8
0
100
AcDbLine
10
82.601700000000008
20
109.792
30
0
11
83.367999999999995
21
110.0264
31
0
0
LINE
5
852
100
AcDbEntity
8
0
100
AcDbLine
10
84.289000000000001
20
148.79159999999999
30
0
11
83.668700000000001
21
149.0307
31
0
0
LINE
5
853
100
AcDbEntity
8
0
100
AcDbLine
10
90.311900000000009
20
113.904
30
0
11
90.811499999999995
21
114.3597
31
0
0
LINE
5
854
100
AcDbEntity
8
0
100
AcDbLine
10
96.660800000000009
20
128.38829999999999
30
0
11
96.662200000000013
21
129.0394
31
0
0
LINE
5
855
100
AcDbEntity
8
0
100
AcDbLine
10
96.290600000000012
20
132.93340000000001
30
0
11
96.166499999999999
21
133.57490000000001
31
0
0
LINE
5
856
100
AcDbEntity
8
0
100
AcDbLine
10
91.490700000000004
20
143.45009999999999
30
0
11
91.071799999999996
21
143.93770000000001
31
0
0
LINE
5
857
100
AcDbEntity
8
0
100
AcDbLine
10
115.051
20
122.97669999999999
30
0
11
114.61690000000002
21
122.46510000000001
31
0
0
LINE
5
858
100
AcDbEntity
8
0
100
AcDbLine
10
88.75190000000002
20
146.15369999999999
30
0
11
88.243799999999993
21
146.54859999999999
31
0
0
LINE
5
859
100
AcDbEntity
8
0
100
AcDbLine
10
96.025000000000006
20
134.21279999999999
30
0
11
95.866100000000003
21
134.84639999999999
31
0
0
LINE
5
860
100
AcDbEntity
8
0
100
AcDbLine
10
94.046999999999997
20
118.48660000000001
30
0
11
94.358300000000014
21
119.054
31
0
0
LINE
5
861
100
AcDbEntity
8
0
100
AcDbLine
10
92.654899999999998
20
141.9092
30
0
11
92.282399999999996
21
142.43530000000001
31
0
0
LINE
5
862
100
AcDbEntity
8
0
100
AcDbLine
10
88.097200000000001
20
112.23970000000001
30
0
11
88.683600000000013
21
112.6309
31
0
0
LINE
5
863
100
AcDbEntity
8
0
100
AcDbLine
10
90.811499999999995
20
114.3597
30
0
11
91.289599999999993
21
114.8301
31
0
0
LINE
5
864
100
AcDbEntity
8
0
100
AcDbLine
10
96.397199999999998
20
132.28880000000001
30
0
11
96.290600000000012
21
132.93340000000001
31
0
0
LINE
5
865
100
AcDbEntity
8
0
100
AcDbLine
10
95.286900000000003
20
136.71590000000003
30
0
11
95.060000000000002
21
137.32679999999999
31
0
0
LINE
5
866
100
AcDbEntity
8
0
100
AcDbLine
10
94.358300000000014
20
119.054
30
0
11
94.649199999999993
21
119.63090000000001
31
0
0
LINE
5
867
100
AcDbEntity
8
0
100
AcDbLine
10
95.060000000000002
20
137.32679999999999
30
0
11
94.816500000000005
21
137.93049999999999
31
0
0
LINE
5
868
100
AcDbEntity
8
0
100
AcDbLine
10
92.182000000000016
20
115.81270000000002
30
0
11
92.596599999999995
21
116.32380000000001
31
0
0
LINE
5
869
100
AcDbEntity
8
0
100
AcDbLine
10
92.596599999999995
20
116.32380000000001
30
0
11
92.990300000000005
21
116.84730000000002
31
0
0
LINE
5
870
100
AcDbEntity
8
0
100
AcDbLine
10
96.486099999999993
20
131.64169999999999
30
0
11
96.397199999999998
21
132.28880000000001
31
0
0
LINE
5
871
100
AcDbEntity
8
0
100
AcDbLine
10
118.5086
20
125.59229999999999
30
0
11
117.82780000000001
21
125.2175
31
0
0
LINE
5
872
100
AcDbEntity
8
0
100
AcDbLine
10
96.662200000000013
20
129.0394
30
0
11
96.645300000000006
21
129.6909
31
0
0
LINE
5
873
100
AcDbEntity
8
0
100
AcDbLine
10
95.866100000000003
20
134.84639999999999
30
0
11
95.690000000000012
21
135.4751
31
0
0
LINE
5
874
100
AcDbEntity
8
0
100
AcDbLine
10
93.363200000000006
20
117.3827
30
0
11
93.715400000000017
21
117.9293
31
0
0
LINE
5
875
100
AcDbEntity
8
0
100
AcDbLine
10
91.289599999999993
20
114.8301
30
0
11
91.746399999999994
21
115.31460000000001
31
0
0
LINE
5
876
100
AcDbEntity
8
0
100
AcDbLine
10
93.986999999999995
20
139.69329999999999
30
0
11
93.677899999999994
21
140.2629
31
0
0
LINE
5
877
100
AcDbEntity
8
0
100
AcDbLine
10
85.529700000000005
20
110.85680000000002
30
0
11
86.205100000000016
21
111.17420000000001
31
0
0
LINE
5
878
100
AcDbEntity
8
0
100
AcDbLine
10
96.60260000000001
20
127.0894
30
0
11
96.64100000000002
21
127.7381
31
0
0
LINE
5
879
100
AcDbEntity
8
0
100
AcDbLine
10
84.831900000000005
20
110.5594
30
0
11
85.529700000000005
21
110.85680000000002
31
0
0
LINE
5
880
100
AcDbEntity
8
0
100
AcDbLine
10
96.557100000000005
20
130.99260000000001
30
0
11
96.486099999999993
21
131.64169999999999
31
0
0
LINE
5
881
100
AcDbEntity
8
0
100
AcDbLine
10
89.724500000000006
20
145.31389999999999
30
0
11
89.245500000000021
21
145.74199999999999
31
0
0
LINE
5
882
100
AcDbEntity
8
0
100
AcDbLine
10
86.632999999999996
20
147.62610000000001
30
0
11
86.067800000000005
21
147.9477
31
0
0
LINE
5
883
100
AcDbEntity
8
0
100
AcDbLine
10
84.1113
20
110.2824
30
0
11
84.831900000000005
21
110.5594
31
0
0
LINE
5
884
100
AcDbEntity
8
0
100
AcDbLine
10
94.920000000000016
20
120.2169
30
0
11
95.170700000000011
21
120.8112
31
0
0
LINE
5
885
100
AcDbEntity
8
0
100
AcDbLine
10
86.205100000000016
20
111.17420000000001
30
0
11
86.858000000000004
21
111.5108
31
0
0
LINE
5
886
100
AcDbEntity
8
0
100
AcDbLine
10
93.352800000000002
20
140.82239999999999
30
0
11
93.011800000000008
21
141.37139999999999
31
0
0
LINE
5
887
100
AcDbEntity
8
0
100
AcDbLine
10
91.894199999999998
20
142.94919999999999
30
0
11
91.490700000000004
21
143.45009999999999
31
0
0
LINE
5
888
100
AcDbEntity
8
0
100
AcDbLine
10
85.488699999999994
20
148.24950000000001
30
0
11
84.895700000000005
21
148.53100000000001
31
0
0
LINE
5
889
100
AcDbEntity
8
0
100
AcDbLine
10
112.3571
20
114.06130000000002
30
0
11
112.44410000000002
21
113.42840000000001
31
0
0
LINE
5
890
100
AcDbEntity
8
0
100
AcDbLine
10
118.00080000000001
20
104.28620000000001
30
0
11
118.53290000000001
21
103.92340000000002
31
0
0
LINE
5
891
100
AcDbEntity
8
0
100
AcDbLine
10
136.7064
20
109.77209999999999
30
0
11
136.92810000000003
21
110.3917
31
0
0
LINE
5
892
100
AcDbEntity
8
0
100
AcDbLine
10
129.9845
20
103.22830000000002
30
0
11
130.77300000000002
21
103.5932
31
0
0
LINE
5
893
100
AcDbEntity
8
0
100
AcDbLine
10
79.668999999999997
20
149.98220000000001
30
0
11
78.9572
21
150.05490000000003
31
0
0
LINE
5
894
100
AcDbEntity
8
0
100
AcDbLine
10
112.4966
20
117.84590000000001
30
0
11
112.39150000000001
21
117.22369999999999
31
0
0
LINE
5
895
100
AcDbEntity
8
0
100
AcDbLine
10
83.034999999999997
20
149.24780000000001
30
0
11
82.388000000000005
21
149.44220000000001
31
0
0
LINE
5
896
100
AcDbEntity
8
0
100
AcDbLine
10
76.746899999999997
20
150.11420000000001
30
0
11
75.985500000000002
21
150.07910000000004
31
0
0
LINE
5
897
100
AcDbEntity
8
0
100
AcDbLine
10
112.7072
20
112.17320000000001
30
0
11
112.88200000000002
21
111.55380000000001
31
0
0
LINE
5
898
100
AcDbEntity
8
0
100
AcDbLine
10
73.629400000000004
20
149.8014
30
0
11
72.820499999999996
21
149.64940000000001
31
0
0
LINE
5
899
100
AcDbEntity
8
0
100
AcDbLine
10
112.3005
20
114.696
30
0
11
112.3571
21
114.06130000000002
31
0
0
LINE
5
900
100
AcDbEntity
8
0
100
AcDbLine
10
89.245500000000021
20
145.74199999999999
30
0
11
88.75190000000002
21
146.15369999999999
31
0
0
LINE
5
901
100
AcDbEntity
8
0
100
AcDbLine
10
81.727699999999999
20
149.61340000000001
30
0
11
81.054400000000001
21
149.76089999999999
31
0
0
LINE
5
902
100
AcDbEntity
8
0
100
AcDbLine
10
113.08500000000001
20
110.9417
30
0
11
113.31530000000001
21
110.33830000000002
31
0
0
LINE
5
903
100
AcDbEntity
8
0
100
AcDbLine
10
116.99590000000001
20
105.0911
30
0
11
117.48820000000002
21
104.67590000000001
31
0
0
LINE
5
904
100
AcDbEntity
8
0
100
AcDbLine
10
134.98689999999999
20
121.66150000000002
30
0
11
134.5941
21
122.1996
31
0
0
LINE
5
905
100
AcDbEntity
8
0
100
AcDbLine
10
114.22170000000001
20
121.93559999999999
30
0
11
113.86499999999999
21
121.3897
31
0
0
LINE
5
906
100
AcDbEntity
8
0
100
AcDbLine
10
113.54600000000002
20
120.82859999999999
30
0
11
113.2642
21
120.2538
31
0
0
LINE
5
907
100
AcDbEntity
8
0
100
AcDbLine
10
90.637699999999995
20
144.41120000000001
30
0
11
90.188500000000005
21
144.87010000000001
31
0
0
LINE
5
908
100
AcDbEntity
8
0
100
AcDbLine
10
115.5247
20
123.46910000000001
30
0
11
115.051
21
122.97669999999999
31
0
0
LINE
5
909
100
AcDbEntity
8
0
100
AcDbLine
10
88.243799999999993
20
146.54859999999999
30
0
11
87.721100000000007
21
146.92599999999999
31
0
0
LINE
5
910
100
AcDbEntity
8
0
100
AcDbLine
10
137.26740000000001
20
116.20010000000001
30
0
11
137.13400000000001
21
116.84399999999999
31
0
0
LINE
5
911
100
AcDbEntity
8
0
100
AcDbLine
10
112.28140000000002
20
115.9648
30
0
11
112.27510000000001
21
115.33100000000002
31
0
0
LINE
5
912
100
AcDbEntity
8
0
100
AcDbLine
10
83.668700000000001
20
149.0307
30
0
11
83.034999999999997
21
149.24780000000001
31
0
0
LINE
5
913
100
AcDbEntity
8
0
100
AcDbLine
10
112.80970000000002
20
119.06890000000001
30
0
11
112.63580000000002
21
118.4614
31
0
0
LINE
5
914
100
AcDbEntity
8
0
100
AcDbLine
10
136.773
20
118.1129
30
0
11
136.54679999999999
21
118.73490000000001
31
0
0
LINE
5
915
100
AcDbEntity
8
0
100
AcDbLine
10
122.75460000000001
20
102.25450000000001
30
0
11
123.42140000000001
21
102.1574
31
0
0
LINE
5
916
100
AcDbEntity
8
0
100
AcDbLine
10
120.2406
20
103.0103
30
0
11
120.84490000000001
21
102.76910000000001
31
0
0
LINE
5
917
100
AcDbEntity
8
0
100
AcDbLine
10
75.985500000000002
20
150.07910000000004
30
0
11
75.212100000000007
21
150.01570000000001
31
0
0
LINE
5
918
100
AcDbEntity
8
0
100
AcDbLine
10
112.31999999999999
20
116.59620000000001
30
0
11
112.28140000000002
21
115.9648
31
0
0
LINE
5
919
100
AcDbEntity
8
0
100
AcDbLine
10
124.7967
20
102.0829
30
0
11
125.50400000000002
21
102.10840000000002
31
0
0
LINE
5
920
100
AcDbEntity
8
0
100
AcDbLine
10
81.054400000000001
20
149.76089999999999
30
0
11
80.368100000000013
21
149.88399999999999
31
0
0
LINE
5
921
100
AcDbEntity
8
0
100
AcDbLine
10
134.01240000000001
20
105.8164
30
0
11
134.52459999999999
21
106.33020000000002
31
0
0
LINE
5
922
100
AcDbEntity
8
0
100
AcDbLine
10
115.24030000000002
20
106.9791
30
0
11
115.64590000000001
21
106.47590000000001
31
0
0
LINE
5
923
100
AcDbEntity
8
0
100
AcDbLine
10
112.63580000000002
20
118.4614
30
0
11
112.4966
21
117.84590000000001
31
0
0
LINE
5
924
100
AcDbEntity
8
0
100
AcDbLine
10
78.232900000000001
20
150.10149999999999
30
0
11
77.495999999999995
21
150.12139999999999
31
0
0
LINE
5
925
100
AcDbEntity
8
0
100
AcDbLine
10
113.01900000000002
20
119.66679999999999
30
0
11
112.80970000000002
21
119.06890000000001
31
0
0
LINE
5
926
100
AcDbEntity
8
0
100
AcDbLine
10
90.188500000000005
20
144.87010000000001
30
0
11
89.724500000000006
21
145.31389999999999
31
0
0
LINE
5
927
100
AcDbEntity
8
0
100
AcDbLine
10
87.721100000000007
20
146.92599999999999
30
0
11
87.184200000000004
21
147.28530000000001
31
0
0
LINE
5
928
100
AcDbEntity
8
0
100
AcDbLine
10
116.03870000000001
20
123.94070000000001
30
0
11
115.5247
21
123.46910000000001
31
0
0
LINE
5
929
100
AcDbEntity
8
0
100
AcDbLine
10
112.27510000000001
20
115.33100000000002
30
0
11
112.3005
21
114.696
31
0
0
LINE
5
930
100
AcDbEntity
8
0
100
AcDbLine
10
120.000771
20
126.257713
30
0
11
119.23270000000001
21
125.9395
31
0
0
LINE
5
931
100
AcDbEntity
8
0
100
AcDbLine
10
87.184200000000004
20
147.28530000000001
30
0
11
86.632999999999996
21
147.62610000000001
31
0
0
LINE
5
932
100
AcDbEntity
8
0
100
AcDbLine
10
86.067800000000005
20
147.9477
30
0
11
85.488699999999994
21
148.24950000000001
31
0
0
LINE
5
933
100
AcDbEntity
8
0
100
AcDbLine
10
74.426699999999997
20
149.92330000000004
30
0
11
73.629400000000004
21
149.8014
31
0
0
LINE
5
934
100
AcDbEntity
8
0
100
AcDbLine
10
77.495999999999995
20
150.12139999999999
30
0
11
76.746899999999997
21
150.11420000000001
31
0
0
LINE
5
935
100
AcDbEntity
8
0
100
AcDbLine
10
137.43510000000001
20
112.94650000000001
30
0
11
137.47049999999999
21
113.5968
31
0
0
LINE
5
936
100
AcDbEntity
8
0
100
AcDbLine
10
78.9572
20
150.05490000000003
30
0
11
78.232900000000001
21
150.10149999999999
31
0
0
LINE
5
937
100
AcDbEntity
8
0
100
AcDbLine
10
112.88200000000002
20
111.55380000000001
30
0
11
113.08500000000001
21
110.9417
31
0
0
LINE
5
938
100
AcDbEntity
8
0
100
AcDbLine
10
113.86499999999999
20
121.3897
30
0
11
113.54600000000002
21
120.82859999999999
31
0
0
LINE
5
939
100
AcDbEntity
8
0
100
AcDbLine
10
113.31530000000001
20
110.33830000000002
30
0
11
113.57259999999999
21
109.745
31
0
0
LINE
5
940
100
AcDbEntity
8
0
100
AcDbLine
10
112.56100000000002
20
112.79859999999999
30
0
11
112.7072
21
112.17320000000001
31
0
0
LINE
5
941
100
AcDbEntity
8
0
100
AcDbLine
10
114.85790000000001
20
107.5009
30
0
11
115.24030000000002
21
106.9791
31
0
0
LINE
5
942
100
AcDbEntity
8
0
100
AcDbLine
10
117.18960000000001
20
124.81630000000001
30
0
11
116.5934
21
124.39019999999999
31
0
0
LINE
5
943
100
AcDbEntity
8
0
100
AcDbLine
10
75.212100000000007
20
150.01570000000001
30
0
11
74.426699999999997
21
149.92330000000004
31
0
0
LINE
5
944
100
AcDbEntity
8
0
100
AcDbLine
10
84.895700000000005
20
148.53100000000001
30
0
11
84.289000000000001
21
148.79159999999999
31
0
0
LINE
5
945
100
AcDbEntity
8
0
100
AcDbLine
10
113.57259999999999
20
109.745
30
0
11
113.8561
21
109.1632
31
0
0
LINE
5
946
100
AcDbEntity
8
0
100
AcDbLine
10
115.64590000000001
20
106.47590000000001
30
0
11
116.07410000000002
21
105.99250000000001
31
0
0
LINE
5
947
100
AcDbEntity
8
0
100
AcDbLine
10
136.4453
20
109.1632
30
0
11
136.7064
21
109.77209999999999
31
0
0
LINE
5
948
100
AcDbEntity
8
0
100
AcDbLine
10
112.44410000000002
20
113.42840000000001
30
0
11
112.56100000000002
21
112.79859999999999
31
0
0
LINE
5
949
100
AcDbEntity
8
0
100
AcDbLine
10
80.368100000000013
20
149.88399999999999
30
0
11
79.668999999999997
21
149.98220000000001
31
0
0
LINE
5
950
100
AcDbEntity
8
0
100
AcDbLine
10
119.23270000000001
20
125.9395
30
0
11
118.5086
21
125.59229999999999
31
0
0
LINE
5
951
100
AcDbEntity
8
0
100
AcDbLine
10
112.39150000000001
20
117.22369999999999
30
0
11
112.31999999999999
21
116.59620000000001
31
0
0
LINE
5
952
100
AcDbEntity
8
0
100
AcDbLine
10
134.5941
20
122.1996
30
0
11
134.17599999999999
21
122.71850000000001
31
0
0
LINE
5
953
100
AcDbEntity
8
0
100
AcDbLine
10
124.1023
20
102.0997
30
0
11
124.7967
21
102.0829
31
0
0
LINE
5
954
100
AcDbEntity
8
0
100
AcDbLine
10
136.92810000000003
20
110.3917
30
0
11
137.11109999999999
21
111.02040000000001
31
0
0
LINE
5
955
100
AcDbEntity
8
0
100
AcDbLine
10
129.21260000000001
20
102.9195
30
0
11
129.9845
21
103.22830000000002
31
0
0
LINE
5
956
100
AcDbEntity
8
0
100
AcDbLine
10
128.44990000000001
20
102.66150000000002
30
0
11
129.21260000000001
21
102.9195
31
0
0
LINE
5
957
100
AcDbEntity
8
0
100
AcDbLine
10
126.2236
20
102.1776
30
0
11
126.95480000000002
21
102.29190000000001
31
0
0
LINE
5
958
100
AcDbEntity
8
0
100
AcDbLine
10
122.10250000000002
20
102.38979999999999
30
0
11
122.75460000000001
21
102.25450000000001
31
0
0
LINE
5
959
100
AcDbEntity
8
0
100
AcDbLine
10
133.45599999999999
20
105.3237
30
0
11
134.01240000000001
21
105.8164
31
0
0
LINE
5
960
100
AcDbEntity
8
0
100
AcDbLine
10
135.8022
20
107.98320000000001
30
0
11
136.14410000000001
21
108.5664
31
0
0
LINE
5
961
100
AcDbEntity
8
0
100
AcDbLine
10
86.64700000000002
20
79.927999999999997
30
0
11
86.377600000000001
21
79.337599999999995
31
0
0
LINE
5
962
100
AcDbEntity
8
0
100
AcDbLine
10
135.69380000000001
20
120.53350000000002
30
0
11
135.3537
21
121.1056
31
0
0
LINE
5
963
100
AcDbEntity
8
0
100
AcDbLine
10
131.1755
20
125.3454
30
0
11
130.59989999999999
21
125.68820000000001
31
0
0
LINE
5
964
100
AcDbEntity
8
0
100
AcDbLine
10
102.26590000000002
20
94.046400000000006
30
0
11
101.53300000000002
21
93.758600000000015
31
0
0
LINE
5
965
100
AcDbEntity
8
0
100
AcDbLine
10
130.77300000000002
20
103.5932
30
0
11
131.5137
21
103.9868
31
0
0
LINE
5
966
100
AcDbEntity
8
0
100
AcDbLine
10
127.69710000000002
20
102.45280000000001
30
0
11
128.44990000000001
21
102.66150000000002
31
0
0
LINE
5
967
100
AcDbEntity
8
0
100
AcDbLine
10
137.13400000000001
20
116.84399999999999
30
0
11
136.96889999999999
21
117.4821
31
0
0
LINE
5
968
100
AcDbEntity
8
0
100
AcDbLine
10
125.50400000000002
20
102.10840000000002
30
0
11
126.2236
21
102.1776
31
0
0
LINE
5
969
100
AcDbEntity
8
0
100
AcDbLine
10
118.53290000000001
20
103.92340000000002
30
0
11
119.084
21
103.58890000000001
31
0
0
LINE
5
970
100
AcDbEntity
8
0
100
AcDbLine
10
101.53300000000002
20
93.758600000000015
30
0
11
100.8159
21
93.456999999999994
31
0
0
LINE
5
971
100
AcDbEntity
8
0
100
AcDbLine
10
133.73330000000004
20
123.21680000000001
30
0
11
133.26670000000001
21
123.69289999999999
31
0
0
LINE
5
972
100
AcDbEntity
8
0
100
AcDbLine
10
137.43639999999999
20
114.90110000000001
30
0
11
137.36840000000001
21
115.55200000000001
31
0
0
LINE
5
973
100
AcDbEntity
8
0
100
AcDbLine
10
136.54679999999999
20
118.73490000000001
30
0
11
136.291
21
119.3467
31
0
0
LINE
5
974
100
AcDbEntity
8
0
100
AcDbLine
10
135.3537
20
121.1056
30
0
11
134.98689999999999
21
121.66150000000002
31
0
0
LINE
5
975
100
AcDbEntity
8
0
100
AcDbLine
10
99.429100000000005
20
92.813599999999994
30
0
11
98.759200000000007
21
92.472399999999993
31
0
0
LINE
5
976
100
AcDbEntity
8
0
100
AcDbLine
10
134.52459999999999
20
106.33020000000002
30
0
11
134.99310000000003
21
106.86360000000001
31
0
0
LINE
5
977
100
AcDbEntity
8
0
100
AcDbLine
10
107.00000000000001
20
95.470680000000016
30
0
11
106.17060000000001
21
95.270600000000002
31
0
0
LINE
5
978
100
AcDbEntity
8
0
100
AcDbLine
10
96.235200000000006
20
90.983599999999996
30
0
11
95.642799999999994
21
90.581599999999995
31
0
0
LINE
5
979
100
AcDbEntity
8
0
100
AcDbLine
10
98.759200000000007
20
92.472399999999993
30
0
11
98.104900000000015
21
92.118600000000001
31
0
0
LINE
5
980
100
AcDbEntity
8
0
100
AcDbLine
10
86.377600000000001
20
79.337599999999995
30
0
11
86.122100000000017
21
78.741699999999994
31
0
0
LINE
5
981
100
AcDbEntity
8
0
100
AcDbLine
10
119.084
20
103.58890000000001
30
0
11
119.6534
21
103.28400000000002
31
0
0
LINE
5
982
100
AcDbEntity
8
0
100
AcDbLine
10
137.36840000000001
20
115.55200000000001
30
0
11
137.26740000000001
21
116.20010000000001
31
0
0
LINE
5
983
100
AcDbEntity
8
0
100
AcDbLine
10
123.42140000000001
20
102.1574
30
0
11
124.1023
21
102.0997
31
0
0
LINE
5
984
100
AcDbEntity
8
0
100
AcDbLine
10
119.6534
20
103.28400000000002
30
0
11
120.2406
21
103.0103
31
0
0
LINE
5
985
100
AcDbEntity
8
0
100
AcDbLine
10
89.313300000000012
20
84.420599999999993
30
0
11
88.9298
21
83.883899999999997
31
0
0
LINE
5
986
100
AcDbEntity
8
0
100
AcDbLine
10
90.12390000000002
20
85.469999999999999
30
0
11
89.711300000000008
21
84.949399999999997
31
0
0
LINE
5
987
100
AcDbEntity
8
0
100
AcDbLine
10
132.77690000000001
20
124.14520000000002
30
0
11
132.2647
21
124.5724
31
0
0
LINE
5
988
100
AcDbEntity
8
0
100
AcDbLine
10
132.8545
20
104.8535
30
0
11
133.45599999999999
21
105.3237
31
0
0
LINE
5
989
100
AcDbEntity
8
0
100
AcDbLine
10
137.11109999999999
20
111.02040000000001
30
0
11
137.25620000000001
21
111.65680000000002
31
0
0
LINE
5
990
100
AcDbEntity
8
0
100
AcDbLine
10
136.96889999999999
20
117.4821
30
0
11
136.773
21
118.1129
31
0
0
LINE
5
991
100
AcDbEntity
8
0
100
AcDbLine
10
136.291
20
119.3467
30
0
11
136.00649999999999
21
119.94670000000001
31
0
0
LINE
5
992
100
AcDbEntity
8
0
100
AcDbLine
10
137.47070000000002
20
114.24890000000002
30
0
11
137.43639999999999
21
114.90110000000001
31
0
0
LINE
5
993
100
AcDbEntity
8
0
100
AcDbLine
10
121.4657
20
102.56180000000001
30
0
11
122.10250000000002
21
102.38979999999999
31
0
0
LINE
5
994
100
AcDbEntity
8
0
100
AcDbLine
10
116.52430000000001
20
105.5305
30
0
11
116.99590000000001
21
105.0911
31
0
0
LINE
5
995
100
AcDbEntity
8
0
100
AcDbLine
10
132.2073
20
104.40730000000002
30
0
11
132.8545
21
104.8535
31
0
0
LINE
5
996
100
AcDbEntity
8
0
100
AcDbLine
10
134.17599999999999
20
122.71850000000001
30
0
11
133.73330000000004
21
123.21680000000001
31
0
0
LINE
5
997
100
AcDbEntity
8
0
100
AcDbLine
10
137.3639
20
112.29930000000002
30
0
11
137.43510000000001
21
112.94650000000001
31
0
0
LINE
5
998
100
AcDbEntity
8
0
100
AcDbLine
10
137.25620000000001
20
111.65680000000002
30
0
11
137.3639
21
112.29930000000002
31
0
0
LINE
5
999
100
AcDbEntity
8
0
100
AcDbLine
10
117.48820000000002
20
104.67590000000001
30
0
11
118.00080000000001
21
104.28620000000001
31
0
0
LINE
5
1000
100
AcDbEntity
8
0
100
AcDbLine
10
136.00649999999999
20
119.94670000000001
30
0
11
135.69380000000001
21
120.53350000000002
31
0
0
LINE
5
1001
100
AcDbEntity
8
0
100
AcDbLine
10
126.95480000000002
20
102.29190000000001
30
0
11
127.69710000000002
21
102.45280000000001
31
0
0
LINE
5
1002
100
AcDbEntity
8
0
100
AcDbLine
10
120.84490000000001
20
102.76910000000001
30
0
11
121.4657
21
102.56180000000001
31
0
0
LINE
5
1003
100
AcDbEntity
8
0
100
AcDbLine
10
135.4188
20
107.4151
30
0
11
135.8022
21
107.98320000000001
31
0
0
LINE
5
1004
100
AcDbEntity
8
0
100
AcDbLine
10
131.5137
20
103.9868
30
0
11
132.2073
21
104.40730000000002
31
0
0
LINE
5
1005
100
AcDbEntity
8
0
100
AcDbLine
10
87.865799999999993
20
82.229100000000003
30
0
11
87.5398
21
81.663399999999996
31
0
0
LINE
5
1006
100
AcDbEntity
8
0
100
AcDbLine
10
133.26670000000001
20
123.69289999999999
30
0
11
132.77690000000001
21
124.14520000000002
31
0
0
LINE
5
1007
100
AcDbEntity
8
0
100
AcDbLine
10
85.652900000000017
20
77.534300000000002
30
0
11
85.439099999999996
21
76.923400000000001
31
0
0
LINE
5
1008
100
AcDbEntity
8
0
100
AcDbLine
10
85.239000000000004
20
76.308000000000007
30
0
11
85.052500000000009
21
75.688500000000005
31
0
0
LINE
5
1009
100
AcDbEntity
8
0
100
AcDbLine
10
85.052500000000009
20
75.688500000000005
30
0
11
84.879700000000014
21
75.064999999999998
31
0
0
LINE
5
1010
100
AcDbEntity
8
0
100
AcDbLine
10
114.49930000000002
20
108.03980000000001
30
0
11
114.85790000000001
21
107.5009
31
0
0
LINE
5
1011
100
AcDbEntity
8
0
100
AcDbLine
10
137.47049999999999
20
113.5968
30
0
11
137.47070000000002
21
114.24890000000002
31
0
0
LINE
5
1012
100
AcDbEntity
8
0
100
AcDbLine
10
134.99310000000003
20
106.86360000000001
30
0
11
135.4188
21
107.4151
31
0
0
LINE
5
1013
100
AcDbEntity
8
0
100
AcDbLine
10
116.07410000000002
20
105.99250000000001
30
0
11
116.52430000000001
21
105.5305
31
0
0
LINE
5
1014
100
AcDbEntity
8
0
100
AcDbLine
10
136.14410000000001
20
108.5664
30
0
11
136.4453
21
109.1632
31
0
0
LINE
5
1015
100
AcDbEntity
8
0
100
AcDbLine
10
131.73060000000001
20
124.97300000000001
30
0
11
131.1755
21
125.3454
31
0
0
LINE
5
1016
100
AcDbEntity
8
0
100
AcDbLine
10
100.8159
20
93.456999999999994
30
0
11
100.1146
21
93.141900000000021
31
0
0
LINE
5
1017
100
AcDbEntity
8
0
100
AcDbLine
10
93.957300000000004
20
89.308899999999994
30
0
11
93.425799999999995
21
88.863200000000006
31
0
0
LINE
5
1018
100
AcDbEntity
8
0
100
AcDbLine
10
103.77960000000002
20
94.579900000000009
30
0
11
103.01479999999999
21
94.320300000000003
31
0
0
LINE
5
1019
100
AcDbEntity
8
0
100
AcDbLine
10
127.4413
20
126.905
30
0
11
126.75830000000002
21
127.0386
31
0
0
LINE
5
1020
100
AcDbEntity
8
0
100
AcDbLine
10
85.880600000000001
20
78.140500000000003
30
0
11
85.652900000000017
21
77.534300000000002
31
0
0
LINE
5
1021
100
AcDbEntity
8
0
100
AcDbLine
10
87.5398
20
81.663399999999996
30
0
11
87.228100000000012
21
81.091200000000015
31
0
0
LINE
5
1022
100
AcDbEntity
8
0
100
AcDbLine
10
126.0599
20
127.13210000000001
30
0
11
125.3467
21
127.18389999999999
31
0
0
LINE
5
1023
100
AcDbEntity
8
0
100
AcDbLine
10
123.8789
20
127.157
30
0
11
123.12570000000001
21
127.07520000000001
31
0
0
LINE
5
1024
100
AcDbEntity
8
0
100
AcDbLine
10
91.4499
20
86.980099999999993
30
0
11
90.993100000000013
21
86.485600000000019
31
0
0
LINE
5
1025
100
AcDbEntity
8
0
100
AcDbLine
10
86.122100000000017
20
78.741699999999994
30
0
11
85.880600000000001
21
78.140500000000003
31
0
0
LINE
5
1026
100
AcDbEntity
8
0
100
AcDbLine
10
88.560700000000011
20
83.339600000000019
30
0
11
88.206100000000006
21
82.787899999999993
31
0
0
LINE
5
1027
100
AcDbEntity
8
0
100
AcDbLine
10
85.439099999999996
20
76.923400000000001
30
0
11
85.239000000000004
21
76.308000000000007
31
0
0
LINE
5
1028
100
AcDbEntity
8
0
100
AcDbLine
10
121.5842
20
126.7675
30
0
11
120.79730000000001
21
126.53860000000002
31
0
0
LINE
5
1029
100
AcDbEntity
8
0
100
AcDbLine
10
120.79730000000001
20
126.53860000000002
30
0
11
120.00070000000001
21
126.25770000000001
31
0
0
LINE
5
1030
100
AcDbEntity
8
0
100
AcDbLine
10
130.59989999999999
20
125.68820000000001
30
0
11
130.00470000000001
21
125.99980000000001
31
0
0
LINE
5
1031
100
AcDbEntity
8
0
100
AcDbLine
10
93.425799999999995
20
88.863200000000006
30
0
11
92.909400000000005
21
88.407200000000017
31
0
0
LINE
5
1032
100
AcDbEntity
8
0
100
AcDbLine
10
124.61950000000002
20
127.19280000000001
30
0
11
123.8789
21
127.157
31
0
0
LINE
5
1033
100
AcDbEntity
8
0
100
AcDbLine
10
132.2647
20
124.5724
30
0
11
131.73060000000001
21
124.97300000000001
31
0
0
LINE
5
1034
100
AcDbEntity
8
0
100
AcDbLine
10
90.993100000000013
20
86.485600000000019
30
0
11
90.551200000000009
21
85.982100000000003
31
0
0
LINE
5
1035
100
AcDbEntity
8
0
100
AcDbLine
10
100.1146
20
93.141900000000021
30
0
11
99.429100000000005
21
92.813599999999994
31
0
0
LINE
5
1036
100
AcDbEntity
8
0
100
AcDbLine
10
130.00470000000001
20
125.99980000000001
30
0
11
129.39060000000001
21
126.27880000000002
31
0
0
LINE
5
1037
100
AcDbEntity
8
0
100
AcDbLine
10
95.065799999999996
20
90.168400000000005
30
0
11
94.503900000000002
21
89.744000000000014
31
0
0
LINE
5
1038
100
AcDbEntity
8
0
100
AcDbLine
10
106.17060000000001
20
95.270600000000002
30
0
11
105.3575
21
95.05540000000002
31
0
0
LINE
5
1039
100
AcDbEntity
8
0
100
AcDbLine
10
128.10820000000001
20
126.73290000000001
30
0
11
127.4413
21
126.905
31
0
0
LINE
5
1040
100
AcDbEntity
8
0
100
AcDbLine
10
97.466200000000001
20
91.752300000000005
30
0
11
96.843000000000004
21
91.37390000000002
31
0
0
LINE
5
1041
100
AcDbEntity
8
0
100
AcDbLine
10
104.56050000000002
20
94.825000000000003
30
0
11
103.77960000000002
21
94.579900000000009
31
0
0
LINE
5
1042
100
AcDbEntity
8
0
100
AcDbLine
10
92.909400000000005
20
88.407200000000017
30
0
11
92.407900000000012
21
87.941199999999995
31
0
0
LINE
5
1043
100
AcDbEntity
8
0
100
AcDbLine
10
103.01479999999999
20
94.320300000000003
30
0
11
102.26590000000002
21
94.046400000000006
31
0
0
LINE
5
1044
100
AcDbEntity
8
0
100
AcDbLine
10
129.39060000000001
20
126.27880000000002
30
0
11
128.75819999999999
21
126.52360000000002
31
0
0
LINE
5
1045
100
AcDbEntity
8
0
100
AcDbLine
10
94.503900000000002
20
89.744000000000014
30
0
11
93.957300000000004
21
89.308899999999994
31
0
0
LINE
5
1046
100
AcDbEntity
8
0
100
AcDbLine
10
89.711300000000008
20
84.949399999999997
30
0
11
89.313300000000012
21
84.420599999999993
31
0
0
LINE
5
1047
100
AcDbEntity
8
0
100
AcDbLine
10
125.3467
20
127.18389999999999
30
0
11
124.61950000000002
21
127.19280000000001
31
0
0
LINE
5
1048
100
AcDbEntity
8
0
100
AcDbLine
10
105.3575
20
95.05540000000002
30
0
11
104.56050000000002
21
94.825000000000003
31
0
0
LINE
5
1049
100
AcDbEntity
8
0
100
AcDbLine
10
86.930499999999995
20
80.512600000000006
30
0
11
86.64700000000002
21
79.927999999999997
31
0
0
LINE
5
1050
100
AcDbEntity
8
0
100
AcDbLine
10
87.228100000000012
20
81.091200000000015
30
0
11
86.930499999999995
21
80.512600000000006
31
0
0
LINE
5
1051
100
AcDbEntity
8
0
100
AcDbLine
10
123.12570000000001
20
127.07520000000001
30
0
11
122.36060000000002
21
126.94589999999999
31
0
0
LINE
5
1052
100
AcDbEntity
8
0
100
AcDbLine
10
96.843000000000004
20
91.37390000000002
30
0
11
96.235200000000006
21
90.983599999999996
31
0
0
LINE
5
1053
100
AcDbEntity
8
0
100
AcDbLine
10
95.642799999999994
20
90.581599999999995
30
0
11
95.065799999999996
21
90.168400000000005
31
0
0
LINE
5
1054
100
AcDbEntity
8
0
100
AcDbLine
10
98.104900000000015
20
92.118600000000001
30
0
11
97.466200000000001
21
91.752300000000005
31
0
0
LINE
5
1055
100
AcDbEntity
8
0
100
AcDbLine
10
91.921499999999995
20
87.465400000000017
30
0
11
91.4499
21
86.980099999999993
31
0
0
LINE
5
1056
100
AcDbEntity
8
0
100
AcDbLine
10
122.36060000000002
20
126.94589999999999
30
0
11
121.5842
21
126.7675
31
0
0
LINE
5
1057
100
AcDbEntity
8
0
100
AcDbLine
10
128.75819999999999
20
126.52360000000002
30
0
11
128.10820000000001
21
126.73290000000001
31
0
0
LINE
5
1058
100
AcDbEntity
8
0
100
AcDbLine
10
126.75830000000002
20
127.0386
30
0
11
126.0599
21
127.13210000000001
31
0
0
LINE
5
1059
100
AcDbEntity
8
0
100
AcDbLine
10
93.169300000000007
20
43.785800000000002
30
0
11
93.632199999999997
21
43.332500000000003
31
0
0
LINE
5
1060
100
AcDbEntity
8
0
100
AcDbLine
10
86.18180000000001
20
54.619
30
0
11
86.424700000000016
21
54.01420000000001
31
0
0
LINE
5
1061
100
AcDbEntity
8
0
100
AcDbLine
10
95.586500000000001
20
41.625599999999999
30
0
11
96.100600000000014
21
41.226799999999997
31
0
0
LINE
5
1062
100
AcDbEntity
8
0
100
AcDbLine
10
88.122900000000016
20
50.500600000000006
30
0
11
88.445599999999999
21
49.936700000000009
31
0
0
LINE
5
1063
100
AcDbEntity
8
0
100
AcDbLine
10
93.632199999999997
20
43.332500000000003
30
0
11
94.105400000000003
21
42.889600000000002
31
0
0
LINE
5
1064
100
AcDbEntity
8
0
100
AcDbLine
10
85.327100000000002
20
57.083799999999997
30
0
11
85.523099999999999
21
56.461399999999998
31
0
0
LINE
5
1065
100
AcDbEntity
8
0
100
AcDbLine
10
84.662400000000005
20
59.608500000000006
30
0
11
84.810599999999994
21
58.972700000000003
31
0
0
LINE
5
1066
100
AcDbEntity
8
0
100
AcDbLine
10
97.158799999999999
20
40.464399999999998
30
0
11
97.702900000000014
21
40.101399999999998
31
0
0
LINE
5
1067
100
AcDbEntity
8
0
100
AcDbLine
10
88.779300000000006
20
49.379800000000003
30
0
11
89.124200000000002
21
48.829999999999998
31
0
0
LINE
5
1068
100
AcDbEntity
8
0
100
AcDbLine
10
86.945099999999996
20
52.819900000000004
30
0
11
87.2226
21
52.231000000000009
31
0
0
LINE
5
1069
100
AcDbEntity
8
0
100
AcDbLine
10
88.445599999999999
20
49.936700000000009
30
0
11
88.779300000000006
21
49.379800000000003
31
0
0
LINE
5
1070
100
AcDbEntity
8
0
100
AcDbLine
10
92.407900000000012
20
87.941199999999995
30
0
11
91.921499999999995
21
87.465400000000017
31
0
0
LINE
5
1071
100
AcDbEntity
8
0
100
AcDbLine
10
98.256799999999998
20
39.750900000000001
30
0
11
98.820600000000013
21
39.413200000000003
31
0
0
LINE
5
1072
100
AcDbEntity
8
0
100
AcDbLine
10
84.52640000000001
20
60.247100000000003
30
0
11
84.662400000000005
21
59.608500000000006
31
0
0
LINE
5
1073
100
AcDbEntity
8
0
100
AcDbLine
10
84.879700000000014
20
75.064999999999998
30
0
11
84.720500000000015
21
74.43780000000001
31
0
0
LINE
5
1074
100
AcDbEntity
8
0
100
AcDbLine
10
85.730999999999995
20
55.8429
30
0
11
85.950500000000005
21
55.228700000000011
31
0
0
LINE
5
1075
100
AcDbEntity
8
0
100
AcDbLine
10
87.811499999999995
20
51.071100000000001
30
0
11
88.122900000000016
21
50.500600000000006
31
0
0
LINE
5
1076
100
AcDbEntity
8
0
100
AcDbLine
10
85.523099999999999
20
56.461399999999998
30
0
11
85.730999999999995
21
55.8429
31
0
0
LINE
5
1077
100
AcDbEntity
8
0
100
AcDbLine
10
84.970799999999997
20
58.339800000000004
30
0
11
85.143000000000001
21
57.710100000000004
31
0
0
LINE
5
1078
100
AcDbEntity
8
0
100
AcDbLine
10
96.624700000000004
20
40.839600000000004
30
0
11
97.158799999999999
21
40.464399999999998
31
0
0
LINE
5
1079
100
AcDbEntity
8
0
100
AcDbLine
10
83.887699999999995
20
68.671700000000001
30
0
11
83.860700000000008
21
68.022400000000005
31
0
0
LINE
5
1080
100
AcDbEntity
8
0
100
AcDbLine
10
84.290900000000008
20
61.531100000000009
30
0
11
84.402500000000003
21
60.887999999999998
31
0
0
LINE
5
1081
100
AcDbEntity
8
0
100
AcDbLine
10
90.551200000000009
20
85.982100000000003
30
0
11
90.12390000000002
21
85.469999999999999
31
0
0
LINE
5
1082
100
AcDbEntity
8
0
100
AcDbLine
10
92.275000000000006
20
44.722299999999997
30
0
11
92.716899999999995
21
44.249099999999999
31
0
0
LINE
5
1083
100
AcDbEntity
8
0
100
AcDbLine
10
88.9298
20
83.883899999999997
30
0
11
88.560700000000011
21
83.339600000000019
31
0
0
LINE
5
1084
100
AcDbEntity
8
0
100
AcDbLine
10
88.206100000000006
20
82.787899999999993
30
0
11
87.865799999999993
21
82.229100000000003
31
0
0
LINE
5
1085
100
AcDbEntity
8
0
100
AcDbLine
10
83.845500000000015
20
66.721699999999998
30
0
11
83.857100000000017
21
66.070899999999995
31
0
0
LINE
5
1086
100
AcDbEntity
8
0
100
AcDbLine
10
87.511399999999995
20
51.648000000000003
30
0
11
87.811499999999995
21
51.071100000000001
31
0
0
LINE
5
1087
100
AcDbEntity
8
0
100
AcDbLine
10
91.422799999999995
20
45.697200000000002
30
0
11
91.843599999999995
21
45.205100000000009
31
0
0
LINE
5
1088
100
AcDbEntity
8
0
100
AcDbLine
10
83.857100000000017
20
66.070899999999995
30
0
11
83.881399999999999
21
65.420199999999994
31
0
0
LINE
5
1089
100
AcDbEntity
8
0
100
AcDbLine
10
94.105400000000003
20
42.889600000000002
30
0
11
94.588899999999995
21
42.457300000000004
31
0
0
LINE
5
1090
100
AcDbEntity
8
0
100
AcDbLine
10
97.702900000000014
20
40.101399999999998
30
0
11
98.256799999999998
21
39.750900000000001
31
0
0
LINE
5
1091
100
AcDbEntity
8
0
100
AcDbLine
10
83.846699999999998
20
67.372299999999996
30
0
11
83.845500000000015
21
66.721699999999998
31
0
0
LINE
5
1092
100
AcDbEntity
8
0
100
AcDbLine
10
98.820600000000013
20
39.413200000000003
30
0
11
99.394100000000009
21
39.0884
31
0
0
LINE
5
1093
100
AcDbEntity
8
0
100
AcDbLine
10
83.967900000000014
20
64.119799999999998
30
0
11
84.030000000000001
21
63.470700000000008
31
0
0
LINE
5
1094
100
AcDbEntity
8
0
100
AcDbLine
10
83.860700000000008
20
68.022400000000005
30
0
11
83.846699999999998
21
67.372299999999996
31
0
0
LINE
5
1095
100
AcDbEntity
8
0
100
AcDbLine
10
92.716899999999995
20
44.249099999999999
30
0
11
93.169300000000007
21
43.785800000000002
31
0
0
LINE
5
1096
100
AcDbEntity
8
0
100
AcDbLine
10
91.843599999999995
20
45.205100000000009
30
0
11
92.275000000000006
21
44.722299999999997
31
0
0
LINE
5
1097
100
AcDbEntity
8
0
100
AcDbLine
10
83.927600000000012
20
69.319999999999993
30
0
11
83.887699999999995
21
68.671700000000001
31
0
0
LINE
5
1098
100
AcDbEntity
8
0
100
AcDbLine
10
94.588899999999995
20
42.457300000000004
30
0
11
95.082599999999999
21
42.035899999999998
31
0
0
LINE
5
1099
100
AcDbEntity
8
0
100
AcDbLine
10
91.012699999999995
20
46.198300000000003
30
0
11
91.422799999999995
21
45.697200000000002
31
0
0
LINE
5
1100
100
AcDbEntity
8
0
100
AcDbLine
10
83.918300000000002
20
64.7697
30
0
11
83.967900000000014
21
64.119799999999998
31
0
0
LINE
5
1101
100
AcDbEntity
8
0
100
AcDbLine
10
90.224699999999999
20
47.226500000000009
30
0
11
90.613299999999995
21
46.708100000000002
31
0
0
LINE
5
1102
100
AcDbEntity
8
0
100
AcDbLine
10
95.082599999999999
20
42.035899999999998
30
0
11
95.586500000000001
21
41.625599999999999
31
0
0
LINE
5
1103
100
AcDbEntity
8
0
100
AcDbLine
10
96.100600000000014
20
41.226799999999997
30
0
11
96.624700000000004
21
40.839600000000004
31
0
0
LINE
5
1104
100
AcDbEntity
8
0
100
AcDbLine
10
84.191500000000005
20
62.176100000000005
30
0
11
84.290900000000008
21
61.531100000000009
31
0
0
LINE
5
1105
100
AcDbEntity
8
0
100
AcDbLine
10
84.574700000000007
20
73.807199999999995
30
0
11
84.442400000000006
21
73.173500000000018
31
0
0
LINE
5
1106
100
AcDbEntity
8
0
100
AcDbLine
10
84.2179
20
71.8977
30
0
11
84.125600000000006
21
71.256100000000004
31
0
0
LINE
5
1107
100
AcDbEntity
8
0
100
AcDbLine
10
84.125600000000006
20
71.256100000000004
30
0
11
84.046500000000009
21
70.612499999999997
31
0
0
LINE
5
1108
100
AcDbEntity
8
0
100
AcDbLine
10
84.402500000000003
20
60.887999999999998
30
0
11
84.52640000000001
21
60.247100000000003
31
0
0
LINE
5
1109
100
AcDbEntity
8
0
100
AcDbLine
10
87.2226
20
52.231000000000009
30
0
11
87.511399999999995
21
51.648000000000003
31
0
0
LINE
5
1110
100
AcDbEntity
8
0
100
AcDbLine
10
125.3993
20
38.140999999999998
30
0
11
126.10610000000001
21
38.433
31
0
0
LINE
5
1111
100
AcDbEntity
8
0
100
AcDbLine
10
99.394100000000009
20
39.0884
30
0
11
99.977300000000014
21
38.776899999999998
31
0
0
LINE
5
1112
100
AcDbEntity
8
0
100
AcDbLine
10
84.720500000000015
20
74.43780000000001
30
0
11
84.574700000000007
21
73.807199999999995
31
0
0
LINE
5
1113
100
AcDbEntity
8
0
100
AcDbLine
10
137.74090000000001
20
47.953400000000002
30
0
11
138.09780000000001
21
48.501300000000001
31
0
0
LINE
5
1114
100
AcDbEntity
8
0
100
AcDbLine
10
84.046500000000009
20
70.612499999999997
30
0
11
83.980500000000006
21
69.967000000000013
31
0
0
LINE
5
1115
100
AcDbEntity
8
0
100
AcDbLine
10
89.124200000000002
20
48.829999999999998
30
0
11
89.480099999999993
21
48.287700000000001
31
0
0
LINE
5
1116
100
AcDbEntity
8
0
100
AcDbLine
10
113.58540000000002
20
35.741500000000002
30
0
11
114.35830000000001
21
35.769799999999996
31
0
0
LINE
5
1117
100
AcDbEntity
8
0
100
AcDbLine
10
84.810599999999994
20
58.972700000000003
30
0
11
84.970799999999997
21
58.339800000000004
31
0
0
LINE
5
1118
100
AcDbEntity
8
0
100
AcDbLine
10
132.30889999999999
20
42.087400000000002
30
0
11
132.84410000000003
21
42.52020000000001
31
0
0
LINE
5
1119
100
AcDbEntity
8
0
100
AcDbLine
10
123.9376
20
37.600700000000003
30
0
11
124.6765
21
37.863500000000002
31
0
0
LINE
5
1120
100
AcDbEntity
8
0
100
AcDbLine
10
85.143000000000001
20
57.710100000000004
30
0
11
85.327100000000002
21
57.083799999999997
31
0
0
LINE
5
1121
100
AcDbEntity
8
0
100
AcDbLine
10
104.32630000000002
20
36.990200000000002
30
0
11
104.98490000000001
21
36.794400000000003
31
0
0
LINE
5
1122
100
AcDbEntity
8
0
100
AcDbLine
10
100.5701
20
38.478900000000003
30
0
11
101.17260000000002
21
38.194800000000001
31
0
0
LINE
5
1123
100
AcDbEntity
8
0
100
AcDbLine
10
122.41140000000001
20
37.1205
30
0
11
123.18260000000001
21
37.352899999999998
31
0
0
LINE
5
1124
100
AcDbEntity
8
0
100
AcDbLine
10
106.3296
20
36.450099999999999
30
0
11
107.0155
21
36.302000000000007
31
0
0
LINE
5
1125
100
AcDbEntity
8
0
100
AcDbLine
10
101.78449999999999
20
37.924700000000001
30
0
11
102.4059
21
37.668900000000001
31
0
0
LINE
5
1126
100
AcDbEntity
8
0
100
AcDbLine
10
84.323499999999996
20
72.536900000000003
30
0
11
84.2179
21
71.8977
31
0
0
LINE
5
1127
100
AcDbEntity
8
0
100
AcDbLine
10
109.12690000000001
20
35.957599999999999
30
0
11
109.84830000000001
21
35.876900000000006
31
0
0
LINE
5
1128
100
AcDbEntity
8
0
100
AcDbLine
10
116.72710000000001
20
35.970500000000001
30
0
11
117.53320000000001
21
36.076800000000006
31
0
0
LINE
5
1129
100
AcDbEntity
8
0
100
AcDbLine
10
119.16970000000001
20
36.350099999999998
30
0
11
120
21
36.517699999999998
31
0
0
LINE
5
1130
100
AcDbEntity
8
0
100
AcDbLine
10
138.76830000000001
20
49.620100000000001
30
0
11
139.0821
21
50.1905
31
0
0
LINE
5
1131
100
AcDbEntity
8
0
100
AcDbLine
10
115.92930000000001
20
35.884
30
0
11
116.72710000000001
21
35.970500000000001
31
0
0
LINE
5
1132
100
AcDbEntity
8
0
100
AcDbLine
10
128.7748
20
39.740099999999998
30
0
11
129.40260000000001
21
40.100299999999997
31
0
0
LINE
5
1133
100
AcDbEntity
8
0
100
AcDbLine
10
137.36959999999999
20
47.413600000000002
30
0
11
137.74090000000001
21
47.953400000000002
31
0
0
LINE
5
1134
100
AcDbEntity
8
0
100
AcDbLine
10
109.84830000000001
20
35.876900000000006
30
0
11
110.57850000000002
21
35.813800000000001
31
0
0
LINE
5
1135
100
AcDbEntity
8
0
100
AcDbLine
10
84.030000000000001
20
63.470700000000008
30
0
11
84.104500000000002
21
62.822700000000005
31
0
0
LINE
5
1136
100
AcDbEntity
8
0
100
AcDbLine
10
86.424700000000016
20
54.01420000000001
30
0
11
86.679200000000009
21
53.414400000000001
31
0
0
LINE
5
1137
100
AcDbEntity
8
0
100
AcDbLine
10
136.5831
20
46.359300000000005
30
0
11
136.98360000000002
21
46.882100000000008
31
0
0
LINE
5
1138
100
AcDbEntity
8
0
100
AcDbLine
10
136.98360000000002
20
46.882100000000008
30
0
11
137.36959999999999
21
47.413600000000002
31
0
0
LINE
5
1139
100
AcDbEntity
8
0
100
AcDbLine
10
99.977300000000014
20
38.776899999999998
30
0
11
100.5701
21
38.478900000000003
31
0
0
LINE
5
1140
100
AcDbEntity
8
0
100
AcDbLine
10
101.17260000000002
20
38.194800000000001
30
0
11
101.78449999999999
21
37.924700000000001
31
0
0
LINE
5
1141
100
AcDbEntity
8
0
100
AcDbLine
10
85.950500000000005
20
55.228700000000011
30
0
11
86.18180000000001
21
54.619
31
0
0
LINE
5
1142
100
AcDbEntity
8
0
100
AcDbLine
10
120.8201
20
36.702500000000001
30
0
11
121.62390000000002
21
36.903599999999997
31
0
0
LINE
5
1143
100
AcDbEntity
8
0
100
AcDbLine
10
133.86879999999999
20
43.418799999999997
30
0
11
134.35849999999999
21
43.884099999999997
31
0
0
LINE
5
1144
100
AcDbEntity
8
0
100
AcDbLine
10
89.846900000000005
20
47.753100000000003
30
0
11
90.224699999999999
21
47.226500000000009
31
0
0
LINE
5
1145
100
AcDbEntity
8
0
100
AcDbLine
10
112.82089999999999
20
35.731999999999999
30
0
11
113.58540000000002
21
35.741500000000002
31
0
0
LINE
5
1146
100
AcDbEntity
8
0
100
AcDbLine
10
84.442400000000006
20
73.173500000000018
30
0
11
84.323499999999996
21
72.536900000000003
31
0
0
LINE
5
1147
100
AcDbEntity
8
0
100
AcDbLine
10
105.6527
20
36.6143
30
0
11
106.3296
21
36.450099999999999
31
0
0
LINE
5
1148
100
AcDbEntity
8
0
100
AcDbLine
10
138.44030000000001
20
49.057000000000002
30
0
11
138.76830000000001
21
49.620100000000001
31
0
0
LINE
5
1149
100
AcDbEntity
8
0
100
AcDbLine
10
84.104500000000002
20
62.822700000000005
30
0
11
84.191500000000005
21
62.176100000000005
31
0
0
LINE
5
1150
100
AcDbEntity
8
0
100
AcDbLine
10
112.06480000000001
20
35.741
30
0
11
112.82089999999999
21
35.731999999999999
31
0
0
LINE
5
1151
100
AcDbEntity
8
0
100
AcDbLine
10
139.0821
20
50.1905
30
0
11
139.38159999999999
21
50.767899999999997
31
0
0
LINE
5
1152
100
AcDbEntity
8
0
100
AcDbLine
10
135.73779999999999
20
45.340600000000002
30
0
11
136.1678
21
45.845300000000002
31
0
0
LINE
5
1153
100
AcDbEntity
8
0
100
AcDbLine
10
134.83320000000001
20
44.359600000000007
30
0
11
135.2929
21
44.845199999999998
31
0
0
LINE
5
1154
100
AcDbEntity
8
0
100
AcDbLine
10
86.679200000000009
20
53.414400000000001
30
0
11
86.945099999999996
21
52.819900000000004
31
0
0
LINE
5
1155
100
AcDbEntity
8
0
100
AcDbLine
10
90.613299999999995
20
46.708100000000002
30
0
11
91.012699999999995
21
46.198300000000003
31
0
0
LINE
5
1156
100
AcDbEntity
8
0
100
AcDbLine
10
138.09780000000001
20
48.501300000000001
30
0
11
138.44030000000001
21
49.057000000000002
31
0
0
LINE
5
1157
100
AcDbEntity
8
0
100
AcDbLine
10
117.53320000000001
20
36.076800000000006
30
0
11
118.34739999999999
21
36.203200000000002
31
0
0
LINE
5
1158
100
AcDbEntity
8
0
100
AcDbLine
10
110.57850000000002
20
35.813800000000001
30
0
11
111.31740000000001
21
35.7684
31
0
0
LINE
5
1159
100
AcDbEntity
8
0
100
AcDbLine
10
118.34739999999999
20
36.203200000000002
30
0
11
119.16970000000001
21
36.350099999999998
31
0
0
LINE
5
1160
100
AcDbEntity
8
0
100
AcDbLine
10
83.980500000000006
20
69.967000000000013
30
0
11
83.927600000000012
21
69.319999999999993
31
0
0
LINE
5
1161
100
AcDbEntity
8
0
100
AcDbLine
10
132.84410000000003
20
42.52020000000001
30
0
11
133.364
21
42.964100000000009
31
0
0
LINE
5
1162
100
AcDbEntity
8
0
100
AcDbLine
10
134.35849999999999
20
43.884099999999997
30
0
11
134.83320000000001
21
44.359600000000007
31
0
0
LINE
5
1163
100
AcDbEntity
8
0
100
AcDbLine
10
115.1396
20
35.817300000000003
30
0
11
115.92930000000001
21
35.884
31
0
0
LINE
5
1164
100
AcDbEntity
8
0
100
AcDbLine
10
89.480099999999993
20
48.287700000000001
30
0
11
89.846900000000005
21
47.753100000000003
31
0
0
LINE
5
1165
100
AcDbEntity
8
0
100
AcDbLine
10
83.881399999999999
20
65.420199999999994
30
0
11
83.918300000000002
21
64.7697
31
0
0
LINE
5
1166
100
AcDbEntity
8
0
100
AcDbLine
10
124.6765
20
37.863500000000002
30
0
11
125.3993
21
38.140999999999998
31
0
0
LINE
5
1167
100
AcDbEntity
8
0
100
AcDbLine
10
103.67690000000002
20
37.2014
30
0
11
104.32630000000002
21
36.990200000000002
31
0
0
LINE
5
1168
100
AcDbEntity
8
0
100
AcDbLine
10
103.0367
20
37.427700000000002
30
0
11
103.67690000000002
21
37.2014
31
0
0
LINE
5
1169
100
AcDbEntity
8
0
100
AcDbLine
10
136.59010000000001
20
84.008900000000011
30
0
11
136.2175
21
84.548199999999994
31
0
0
LINE
5
1170
100
AcDbEntity
8
0
100
AcDbLine
10
136.2175
20
84.548199999999994
30
0
11
135.83420000000001
21
85.078999999999994
31
0
0
LINE
5
1171
100
AcDbEntity
8
0
100
AcDbLine
10
141.08510000000001
20
54.980499999999999
30
0
11
141.2731
21
55.603400000000001
31
0
0
LINE
5
1172
100
AcDbEntity
8
0
100
AcDbLine
10
138.8946
20
80.023499999999999
30
0
11
138.5984
21
80.613500000000016
31
0
0
LINE
5
1173
100
AcDbEntity
8
0
100
AcDbLine
10
142.0094
20
58.7791
30
0
11
142.1164
21
59.424600000000005
31
0
0
LINE
5
1174
100
AcDbEntity
8
0
100
AcDbLine
10
141.40090000000001
20
73.190299999999993
30
0
11
141.2313
21
73.832400000000007
31
0
0
LINE
5
1175
100
AcDbEntity
8
0
100
AcDbLine
10
107.0155
20
36.302000000000007
30
0
11
107.71040000000001
21
36.170400000000001
31
0
0
LINE
5
1176
100
AcDbEntity
8
0
100
AcDbLine
10
142.45400000000001
20
62.687600000000003
30
0
11
142.48240000000004
21
63.345500000000001
31
0
0
LINE
5
1177
100
AcDbEntity
8
0
100
AcDbLine
10
131.7585
20
41.6661
30
0
11
132.30889999999999
21
42.087400000000002
31
0
0
LINE
5
1178
100
AcDbEntity
8
0
100
AcDbLine
10
107.71040000000001
20
36.170400000000001
30
0
11
108.41419999999999
21
36.055500000000002
31
0
0
LINE
5
1179
100
AcDbEntity
8
0
100
AcDbLine
10
130.01480000000001
20
40.473199999999999
30
0
11
130.61150000000001
21
40.858699999999999
31
0
0
LINE
5
1180
100
AcDbEntity
8
0
100
AcDbLine
10
136.1678
20
45.845300000000002
30
0
11
136.5831
21
46.359300000000005
31
0
0
LINE
5
1181
100
AcDbEntity
8
0
100
AcDbLine
10
135.44030000000001
20
85.601299999999995
30
0
11
135.0359
21
86.114599999999996
31
0
0
LINE
5
1182
100
AcDbEntity
8
0
100
AcDbLine
10
120
20
36.517699999999998
30
0
11
120.8201
21
36.702500000000001
31
0
0
LINE
5
1183
100
AcDbEntity
8
0
100
AcDbLine
10
135.0359
20
86.114599999999996
30
0
11
134.62110000000001
21
86.618700000000004
31
0
0
LINE
5
1184
100
AcDbEntity
8
0
100
AcDbLine
10
131.1927
20
41.256399999999999
30
0
11
131.7585
21
41.6661
31
0
0
LINE
5
1185
100
AcDbEntity
8
0
100
AcDbLine
10
142.43279999999999
20
66.645900000000012
30
0
11
142.38499999999999
21
67.306200000000004
31
0
0
LINE
5
1186
100
AcDbEntity
8
0
100
AcDbLine
10
140.88339999999999
20
54.362300000000005
30
0
11
141.08510000000001
21
54.980499999999999
31
0
0
LINE
5
1187
100
AcDbEntity
8
0
100
AcDbLine
10
126.10610000000001
20
38.433
30
0
11
126.797
21
38.739199999999997
31
0
0
LINE
5
1188
100
AcDbEntity
8
0
100
AcDbLine
10
121.62390000000002
20
36.903599999999997
30
0
11
122.41140000000001
21
37.1205
31
0
0
LINE
5
1189
100
AcDbEntity
8
0
100
AcDbLine
10
141.55869999999999
20
72.545100000000005
30
0
11
141.40090000000001
21
73.190299999999993
31
0
0
LINE
5
1190
100
AcDbEntity
8
0
100
AcDbLine
10
141.04970000000003
20
74.471199999999996
30
0
11
140.85650000000001
21
75.106300000000005
31
0
0
LINE
5
1191
100
AcDbEntity
8
0
100
AcDbLine
10
139.96710000000002
20
77.605099999999993
30
0
11
139.71600000000001
21
78.2179
31
0
0
LINE
5
1192
100
AcDbEntity
8
0
100
AcDbLine
10
136.952
20
83.461600000000004
30
0
11
136.59010000000001
21
84.008900000000011
31
0
0
LINE
5
1193
100
AcDbEntity
8
0
100
AcDbLine
10
135.83420000000001
20
85.078999999999994
30
0
11
135.44030000000001
21
85.601299999999995
31
0
0
LINE
5
1194
100
AcDbEntity
8
0
100
AcDbLine
10
142.32470000000001
20
67.965999999999994
30
0
11
142.25200000000001
21
68.624899999999997
31
0
0
LINE
5
1195
100
AcDbEntity
8
0
100
AcDbLine
10
104.98490000000001
20
36.794400000000003
30
0
11
105.6527
21
36.6143
31
0
0
LINE
5
1196
100
AcDbEntity
8
0
100
AcDbLine
10
137.64340000000001
20
82.343800000000002
30
0
11
137.3031
21
82.906499999999994
31
0
0
LINE
5
1197
100
AcDbEntity
8
0
100
AcDbLine
10
134.62110000000001
20
86.618700000000004
30
0
11
134.19579999999999
21
87.113399999999999
31
0
0
LINE
5
1198
100
AcDbEntity
8
0
100
AcDbLine
10
142.38499999999999
20
67.306200000000004
30
0
11
142.32470000000001
21
67.965999999999994
31
0
0
LINE
5
1199
100
AcDbEntity
8
0
100
AcDbLine
10
130.61150000000001
20
40.858699999999999
30
0
11
131.1927
21
41.256399999999999
31
0
0
LINE
5
1200
100
AcDbEntity
8
0
100
AcDbLine
10
129.40260000000001
20
40.100299999999997
30
0
11
130.01480000000001
21
40.473199999999999
31
0
0
LINE
5
1201
100
AcDbEntity
8
0
100
AcDbLine
10
123.18260000000001
20
37.352899999999998
30
0
11
123.9376
21
37.600700000000003
31
0
0
LINE
5
1202
100
AcDbEntity
8
0
100
AcDbLine
10
142.4126
20
62.031100000000009
30
0
11
142.45400000000001
21
62.687600000000003
31
0
0
LINE
5
1203
100
AcDbEntity
8
0
100
AcDbLine
10
126.797
20
38.739199999999997
30
0
11
127.47210000000001
21
39.0593
31
0
0
LINE
5
1204
100
AcDbEntity
8
0
100
AcDbLine
10
138.2911
20
81.197100000000006
30
0
11
137.9727
21
81.773900000000012
31
0
0
LINE
5
1205
100
AcDbEntity
8
0
100
AcDbLine
10
108.41419999999999
20
36.055500000000002
30
0
11
109.12690000000001
21
35.957599999999999
31
0
0
LINE
5
1206
100
AcDbEntity
8
0
100
AcDbLine
10
140.85650000000001
20
75.106300000000005
30
0
11
140.6515
21
75.7376
31
0
0
LINE
5
1207
100
AcDbEntity
8
0
100
AcDbLine
10
141.60810000000001
20
56.862300000000005
30
0
11
141.75530000000003
21
57.497800000000005
31
0
0
LINE
5
1208
100
AcDbEntity
8
0
100
AcDbLine
10
134.19579999999999
20
87.113399999999999
30
0
11
133.7602
21
87.598299999999995
31
0
0
LINE
5
1209
100
AcDbEntity
8
0
100
AcDbLine
10
127.47210000000001
20
39.0593
30
0
11
128.13130000000001
21
39.393099999999997
31
0
0
LINE
5
1210
100
AcDbEntity
8
0
100
AcDbLine
10
135.2929
20
44.845199999999998
30
0
11
135.73779999999999
21
45.340600000000002
31
0
0
LINE
5
1211
100
AcDbEntity
8
0
100
AcDbLine
10
111.31740000000001
20
35.7684
30
0
11
112.06480000000001
21
35.741
31
0
0
LINE
5
1212
100
AcDbEntity
8
0
100
AcDbLine
10
137.9727
20
81.773900000000012
30
0
11
137.64340000000001
21
82.343800000000002
31
0
0
LINE
5
1213
100
AcDbEntity
8
0
100
AcDbLine
10
139.1797
20
79.427400000000006
30
0
11
138.8946
21
80.023499999999999
31
0
0
LINE
5
1214
100
AcDbEntity
8
0
100
AcDbLine
10
141.2731
20
55.603400000000001
30
0
11
141.44739999999999
21
56.230800000000009
31
0
0
LINE
5
1215
100
AcDbEntity
8
0
100
AcDbLine
10
128.13130000000001
20
39.393099999999997
30
0
11
128.7748
21
39.740099999999998
31
0
0
LINE
5
1216
100
AcDbEntity
8
0
100
AcDbLine
10
141.7045
20
71.897099999999995
30
0
11
141.55869999999999
21
72.545100000000005
31
0
0
LINE
5
1217
100
AcDbEntity
8
0
100
AcDbLine
10
102.4059
20
37.668900000000001
30
0
11
103.0367
21
37.427700000000002
31
0
0
LINE
5
1218
100
AcDbEntity
8
0
100
AcDbLine
10
114.35830000000001
20
35.769799999999996
30
0
11
115.1396
21
35.817300000000003
31
0
0
LINE
5
1219
100
AcDbEntity
8
0
100
AcDbLine
10
133.364
20
42.964100000000009
30
0
11
133.86879999999999
21
43.418799999999997
31
0
0
LINE
5
1220
100
AcDbEntity
8
0
100
AcDbLine
10
141.2313
20
73.832400000000007
30
0
11
141.04970000000003
21
74.471199999999996
31
0
0
ENDSEC
0
SECTION
2
OBJECTS
0
DICTIONARY
5
C
100
AcDbDictionary
3
ACAD_GROUP
350
D
3
ACAD_MLINESTYLE
350
17
0
DICTIONARY
5
D
100
AcDbDictionary
0
DICTIONARY
5
1A
330
C
100
AcDbDictionary
0
DICTIONARY
5
17
100
AcDbDictionary
0
ENDSEC
0
EOF
