0
SECTION
2
HEADER
9
$INSUNITS
70
4
9
$ACADVER
1
AC1014
9
$HANDSEED
5
FFFF
0
ENDSEC
0
SECTION
2
TABLES
0
TABLE
2
VPORT
5
8
100
AcDbSymbolTable
0
ENDTAB
0
TABLE
2
LTYPE
5
5
100
AcDbSymbolTable
0
LTYPE
5
14
100
AcDbSymbolTableRecord
100
AcDbLinetypeTableRecord
2
BYBLOCK
70
0
0
LTYPE
5
15
100
AcDbSymbolTableRecord
100
AcDbLinetypeTableRecord
2
BYLAYER
70
0
0
ENDTAB
0
TABLE
2
LAYER
5
2
100
AcDbSymbolTable
70
2
0
LAYER
5
50
100
AcDbSymbolTableRecord
100
AcDbLayerTableRecord
2
0
70
0
6
CONTINUOUS
0
ENDTAB
0
TABLE
2
STYLE
5
3
100
AcDbSymbolTable
70
1
0
STYLE
5
11
100
AcDbSymbolTableRecord
100
AcDbTextStyleTableRecord
2
STANDARD
70
0
0
ENDTAB
0
TABLE
2
VIEW
5
6
100
AcDbSymbolTable
70
0
0
ENDTAB
0
TABLE
2
UCS
5
7
100
AcDbSymbolTable
70
0
0
ENDTAB
0
TABLE
2
APPID
5
9
100
AcDbSymbolTable
70
2
0
APPID
5
12
100
AcDbSymbolTableRecord
100
AcDbRegAppTableRecord
2
ACAD
70
0
0
ENDTAB
0
TABLE
2
DIMSTYLE
5
A
100
AcDbSymbolTable
70
1
0
ENDTAB
0
TABLE
2
BLOCK_RECORD
5
1
100
AcDbSymbolTable
70
1
0
BLOCK_RECORD
5
1F
100
AcDbSymbolTableRecord
100
AcDbBlockTableRecord
2
*MODEL_SPACE
0
BLOCK_RECORD
5
1B
100
AcDbSymbolTableRecord
100
AcDbBlockTableRecord
2
*PAPER_SPACE
0
ENDTAB
0
ENDSEC
0
SECTION
2
BLOCKS
0
BLOCK
5
20
100
AcDbEntity
100
AcDbBlockBegin
2
*MODEL_SPACE
0
ENDBLK
5
21
100
AcDbEntity
100
AcDbBlockEnd
0
BLOCK
5
1C
100
AcDbEntity
100
AcDbBlockBegin
2
*PAPER_SPACE
0
ENDBLK
5
1D
100
AcDbEntity
100
AcDbBlockEnd
0
ENDSEC
0
SECTION
2
ENTITIES
0
LWPOLYLINE
5
100
100
AcDbEntity
8
0
100
AcDbPolyline
90
28
70
1
43
0.0
10
103.10682900000002
20
249.49618399999997
42
0.025521000000013193
10
101.43282400000001
20
249.87629300000003
42
0.043089000000022637
10
100
20
250
42
0.043089000000021992
10
98.567176000000018
20
249.87629300000003
42
0.025521000000013193
10
96.893170999999995
20
249.49618399999997
42
0.025409999999988091
10
95.249235999999996
20
248.94204900000005
42
0.039430000000009929
10
93.905123000000003
20
248.28488300000004
42
-0.016176999999995348
10
92.146186
20
247.32120000000003
42
-0.11238100000000857
10
91.199961000000002
20
247.08458300000004
42
-0.16019799999999321
10
90.406165000000001
20
247.32707599999998
42
-0.042830999999981204
10
89.38250699999999
20
248.18892200000005
42
-0.17338399999999998
10
88.539344
20
249.97045499999999
42
-0.34388399999999381
10
89.326384000000004
20
251.21542200000005
42
-0.076713000000002543
10
92.645538000000002
20
251.85890099999995
42
-0.0095920000000027702
10
100
20
252.00000000000003
42
-0.0074939999999997248
10
104.62186199999999
20
251.93072700000002
42
-0.016139999999987942
10
108.174857
20
251.70926100000003
42
-0.013499999999994655
10
110.82976200000003
20
251.38501700000003
42
-0.22065400000003377
10
111.559307
20
250.90403900000001
42
-0.15118199999999773
10
111.698921
20
250.365103
42
-0.071943999999989752
10
111.56205300000002
20
249.65438900000004
42
-0.061322999999985812
10
111.18656700000001
20
248.88957700000003
42
-0.051676999999995997
10
110.61749300000001
20
248.18892200000005
42
-0.042830999999990828
10
109.59383500000001
20
247.32707599999998
42
-0.16019799999998185
10
108.80003899999998
20
247.08458300000004
42
-0.11238100000000872
10
107.85381399999999
20
247.32120000000003
42
-0.016177000000003938
10
106.09487700000001
20
248.28488300000004
42
0.039430000000003559
10
104.750764
20
248.94204900000005
42
0.025409999999992747
0
LWPOLYLINE
5
101
100
AcDbEntity
8
0
100
AcDbPolyline
90
26
70
1
43
0.0
10
67.340539000000007
20
248.68260500000002
42
0.043048999999996007
10
61.116233999999999
20
248.73564300000001
42
0.0079579999999995939
10
58.454841000000002
20
248.48623500000002
42
0.0092069999999921937
10
55.929456000000009
20
248.16180099999997
42
0.0083929999999810927
10
53.805769000000005
20
247.81260900000001
42
0.052424000000022286
10
52.75
20
247.50385699999998
42
-0.062773000000037188
10
51.865446000000006
20
247.264869
42
-0.24527699999995325
10
51.348981000000009
20
247.44905000000003
42
-0.16193699999996652
10
51.069840000000006
20
248.064031
42
-0.026258000000005055
10
51.000000000000007
20
249.39301099999997
10
51.000000000000007
20
252.00000000000003
10
63.03983800000001
20
252.00000000000011
42
-0.0059420000000013282
10
69.700210999999996
20
251.92084800000003
42
-0.026023999999990288
10
73.624082999999999
20
251.62283300000001
42
-0.042283999999996498
10
76.468275000000006
20
251.00959800000001
42
-0.043745000000010886
10
79.135052999999999
20
249.93110099999998
42
-0.04939600000000726
10
82.708091000000024
20
247.638597
42
-0.019374000000000322
10
87.160924999999992
20
243.82740299999995
42
-0.012828000000004385
10
91.267281000000011
20
239.82717000000005
42
-0.19564900000000107
10
92.000000000000014
20
238.02631600000001
42
-0.3743890000000058
10
91.16224600000001
20
237.06430900000001
42
-0.12427199999998206
10
89.146756000000011
20
237.28572600000001
42
-0.061375000000005939
10
86.153648000000004
20
238.84127500000002
42
-0.03261700000000043
10
82.867169000000004
20
241.42951800000006
42
0.044357000000004074
10
77.951566
20
245.11740000000003
42
0.05779999999999802
10
72.86519100000001
20
247.509039
42
0.057435999999994665
0
LWPOLYLINE
5
102
100
AcDbEntity
8
0
100
AcDbPolyline
90
30
70
1
43
0.0
10
83
20
234.99458399999997
42
-0.17435299999991957
10
82.865898000000001
20
234.62170400000002
42
-0.056626999999994002
10
82.437786000000003
20
234.20890400000002
42
-0.048481000000028758
10
81.818589000000003
20
233.82313400000001
42
-0.038257000000010068
10
81.086080000000024
20
233.527321
42
-0.12550899999997173
10
79.968863000000013
20
233.46287599999997
42
-0.048774999999991742
10
78.473784999999992
20
233.90831700000001
42
-0.037623000000014728
10
76.652245999999991
20
234.81589900000003
42
-0.019134000000000029
10
74.504505000000023
20
236.20993300000004
42
0.021572000000007474
10
71.719177999999999
20
237.99856900000003
42
0.059188999999998257
10
69.578955000000008
20
238.92742800000002
42
0.056379000000014619
10
67.221699999999998
20
239.35294900000002
42
0.018189000000004344
10
63.668425000000006
20
239.45808400000001
42
0.020227000000005955
10
60.870321999999994
20
239.32579199999998
42
0.024667999999995634
10
58.273537000000019
20
238.96773999999999
42
0.027218999999995681
10
56.014118000000011
20
238.41297800000001
42
0.048755000000014967
10
54.250000000000007
20
237.68240399999999
10
51.000000000000007
20
235.94864000000001
10
51.000000000000007
20
238.94406000000004
42
-0.053368999999998126
10
51.183525000000003
20
240.65857600000001
42
-0.15216999999999126
10
51.768342000000004
20
241.69121500000003
42
-0.098653999999998576
10
53.009205000000001
20
242.46366300000003
42
-0.015455000000005515
10
55.75
20
243.40008799999998
42
-0.022345999999990252
10
59.949818000000015
20
244.48875800000002
42
-0.050110000000001285
10
63.221031000000004
20
244.84613100000004
42
-0.050926999999992041
10
66.465263000000022
20
244.54326699999999
42
-0.023775999999999277
10
70.568499000000003
20
243.52872400000001
42
-0.050047999999997997
10
74.320641000000023
20
241.98661099999998
42
-0.027916999999999935
10
78.546863999999999
20
239.419951
42
-0.021736000000002861
10
82.213017000000036
20
236.66134500000001
42
-0.22421299999999941
0
LWPOLYLINE
5
103
100
AcDbEntity
8
0
100
AcDbPolyline
90
20
70
1
43
0.0
10
95.031802999999996
20
242.17857100000003
42
-0.19306700000001872
10
95.414764000000005
20
243.28004500000006
42
-0.049812999999996152
10
96.811363
20
244.59475699999999
42
-0.050152000000005588
10
98.525209000000004
20
245.658401
42
-0.11429999999999085
10
100
20
246
42
-0.068561999999992976
10
100.825464
20
245.88627400000004
42
-0.039004999999973276
10
101.773214
20
245.53839300000004
42
-0.038141000000000744
10
102.69052700000002
20
245.03008300000005
42
-0.050829999999984152
10
103.42857100000001
20
244.42857100000001
42
-0.0208199999999918
10
104.02786200000001
20
243.77718000000002
42
-0.025514000000000262
10
104.52905100000001
20
243.11942000000002
42
-0.025352999999954853
10
104.88589900000001
20
242.53660300000001
42
-0.13723700000000888
10
104.96819700000002
20
242.17857100000003
42
-0.14266399999999893
10
104.50224399999999
20
240.81933599999999
42
-0.064550999999990463
10
103.21752600000002
20
239.41963200000001
42
-0.063257999999999204
10
101.56935799999999
20
238.35637000000006
42
-0.11211299999999616
10
100
20
238
42
-0.11211300000000059
10
98.430642000000006
20
238.35637000000006
42
-0.06325800000000488
10
96.782474000000008
20
239.41963200000001
42
-0.064550999999991004
10
95.497756000000024
20
240.81933599999999
42
-0.14266400000000137
0
LWPOLYLINE
5
104
100
AcDbEntity
8
0
100
AcDbPolyline
90
24
70
1
43
0.0
10
129.64635200000001
20
251.84977200000006
42
-0.0067210000000127992
10
135.75
20
251.95580400000014
42
-0.003367999999966243
10
142.61464899999999
20
251.93652700000001
42
-0.038999999999999237
10
145.29310000000004
20
251.70154600000004
42
-0.13823100000000463
10
146.52335600000001
20
251.12208100000004
42
-0.21729800000000862
10
147
20
250.07711499999999
42
-0.15322200000002198
10
146.68146100000001
20
249.06205
42
-0.19712400000000002
10
145.867503
20
248.536438
42
-0.059625000000013743
10
144.09963500000001
20
248.42133899999999
42
-0.0053480000000169911
10
139.656879
20
248.709588
42
0.038477999999999256
10
132.97597300000001
20
248.70001500000001
42
0.0586329999999948
10
127.29213000000001
20
247.57454500000006
42
0.060558000000005739
10
122.15724
20
245.197271
42
0.044469000000001618
10
117.13283100000001
20
241.42951800000006
42
-0.032616999999992097
10
113.846352
20
238.84127500000002
42
-0.061375000000001116
10
110.85324399999999
20
237.28572600000001
42
-0.12427199999998301
10
108.83775400000002
20
237.06430900000001
42
-0.37438899999998643
10
108
20
238.02631600000001
42
-0.19484100000001009
10
108.706445
20
239.77036699999999
42
-0.012021000000004787
10
112.77358899999999
20
243.77003700000003
42
-0.018586000000002139
10
117.15719200000002
20
247.582492
42
-0.048346999999998662
10
120.64690200000001
20
249.87902200000005
42
-0.045716999999991188
10
123.158315
20
250.923258
42
-0.041530999999990874
10
125.89976399999999
20
251.53533199999998
42
-0.026466000000003445
0
LWPOLYLINE
5
105
100
AcDbEntity
8
0
100
AcDbPolyline
90
24
70
1
43
0.0
10
60.230506999999996
20
228.76343900000001
42
0.085800999999999183
10
57.447866000000012
20
227.55779700000005
42
-0.020596000000012861
10
55.991106000000002
20
226.68684200000001
42
-0.11413899999999935
10
55.117568000000006
20
226.44473399999998
42
-0.15785099999998031
10
54.372134000000003
20
226.65107200000006
42
-0.050602999999992675
10
53.470773999999999
20
227.38636900000003
42
-0.070045999999988784
10
52.317284000000008
20
228.91785600000003
42
-0.2058459999999929
10
52.188761
20
230.20331600000003
42
-0.14803899999998663
10
53.057012999999998
20
231.47158599999997
42
-0.0322640000000083
10
55.25
20
233.01096000000001
42
-0.077407000000005818
10
58.600057999999997
20
234.39987500000001
42
-0.053703999999992723
10
62.670930000000013
20
234.937116
42
-0.052517999999994007
10
66.872454000000005
20
234.59591700000001
42
-0.064361999999996963
10
70.615005000000011
20
233.37840200000002
42
-0.023646000000006308
10
73.460311000000019
20
231.85947799999997
42
-0.1540789999999902
10
74.525424999999998
20
230.66307999999998
42
-0.24321599999999241
10
74.454566
20
229.387878
42
-0.063264000000008383
10
73.156649999999999
20
227.71220499999998
42
-0.018123999999982578
10
71.818978000000001
20
226.46814500000005
42
-0.16122000000003525
10
71.08608000000001
20
226.16411900000003
42
-0.18033800000000544
10
70.357994000000005
20
226.37609100000003
42
-0.023858999999995925
10
69.096055000000007
20
227.41307200000006
42
0.11657099999999762
10
66.785530000000008
20
228.685742
42
0.064827999999996291
10
63.585477000000019
20
229.14289800000003
42
0.06260599999999876
0
LWPOLYLINE
5
106
100
AcDbEntity
8
0
100
AcDbPolyline
90
22
70
1
43
0.0
10
132.83504099999999
20
244.48342500000001
42
-0.047041000000002414
10
135.80059399999999
20
244.85553400000001
42
-0.047708999999994103
10
138.75781499999999
20
244.66442799999999
42
-0.021702000000010879
10
142.55718000000002
20
243.88128500000005
42
-0.017314999999995459
10
145.05511200000001
20
243.15947100000002
42
-0.10027499999999488
10
146.24333799999999
20
242.48573100000002
42
-0.15498799999999036
10
146.815617
20
241.54721899999998
42
-0.060082999999988999
10
147
20
240.01836499999999
10
147
20
237.274159
10
142.510423
20
238.75218599999999
42
0.05852900000000661
10
138.00652700000001
20
239.67039200000002
42
0.06151300000000319
10
133.48984199999998
20
239.49558800000003
42
0.060917000000002559
10
129.113597
20
238.22182900000001
42
0.055554999999995712
10
125.023877
20
235.90233600000002
42
-0.048163000000005465
10
122.20013300000002
20
234.245351
42
-0.080613000000010898
10
119.555702
20
233.50342200000003
42
-0.14187800000000517
10
117.74015900000002
20
233.81361900000002
42
-0.28747299999997972
10
117.00000000000001
20
234.99458399999997
42
-0.22254000000000704
10
117.75105900000001
20
236.59848100000002
42
-0.020088000000001122
10
121.35866499999999
20
239.36806099999998
42
-0.026559000000002331
10
125.45649099999999
20
241.94553100000005
42
-0.051867999999991386
10
129
20
243.46341800000005
42
-0.02056100000000595
0
LWPOLYLINE
5
107
100
AcDbEntity
8
0
100
AcDbPolyline
90
24
70
1
43
0.0
10
146.82272599999999
20
228.83409599999999
42
-0.11927800000001741
10
145.86524300000002
20
227.26524300000005
42
-0.099344000000023483
10
145.19610900000001
20
226.81977400000005
42
-0.1266350000000212
10
144.46444299999999
20
226.71861100000001
42
-0.087514999999974002
10
143.57342700000001
20
226.98364900000001
42
-0.029091999999982267
10
142.38815099999999
20
227.665243
42
0.087364999999990978
10
139.79862600000001
20
228.77767599999999
42
0.059522999999997037
10
136.60643999999999
20
229.13850600000004
42
0.059284000000005124
10
133.40324899999999
20
228.73673300000004
42
0.084407999999991379
10
130.780069
20
227.59155200000004
42
-0.022162999999999686
10
129.26539299999999
20
226.692398
42
-0.14851399999997036
10
128.416661
20
226.52341600000003
42
-0.15907000000000165
10
127.64735200000001
20
226.86129900000003
42
-0.026480000000014558
10
126.48626200000002
20
228.01518000000002
42
-0.070872999999999742
10
125.46663600000002
20
229.52474300000006
42
-0.2447999999999694
10
125.49820500000001
20
230.66779700000001
42
-0.13004200000000718
10
126.57633400000002
20
231.787688
42
-0.01680399999999824
10
129.49999999999997
20
233.43136000000001
42
-0.073443999999999884
10
132.75568700000002
20
234.55353200000002
42
-0.045619000000010491
10
136.78656999999998
20
234.93407599999998
42
-0.045669000000004518
10
140.81192799999999
20
234.57762200000005
42
-0.074551000000002851
10
144.04966000000002
20
233.47432000000001
42
-0.075508999999990181
10
145.87919299999999
20
232.14603100000002
42
-0.12758700000000273
10
146.84480500000001
20
230.52884700000004
42
-0.14985899999999949
0
LWPOLYLINE
5
108
100
AcDbEntity
8
0
100
AcDbPolyline
90
40
70
1
43
0.0
10
123.699517
20
217.70082000000002
42
-0.038433999999997248
10
120.89916600000001
20
220.10083399999999
42
0.04238900000000153
10
116.30574799999999
20
223.97508500000001
42
0.058946999999997314
10
111.58299800000002
20
226.54402300000001
42
0.057440000000000206
10
106.29621200000003
20
227.98260200000001
42
0.037748999999993295
10
100
20
228.45862700000001
42
0.037748999999993663
10
93.703788000000003
20
227.98260200000001
42
0.057440000000000817
10
88.417001999999997
20
226.54402300000001
42
0.058946999999998625
10
83.694252000000006
20
223.97508500000001
42
0.04238900000000153
10
79.100833999999992
20
220.10083399999999
42
-0.038433999999997789
10
76.300483
20
217.70082000000002
42
-0.067243999999997583
10
73.620909999999995
20
216.24581899999998
42
-0.13719000000000373
10
71.785212999999999
20
216.07925499999999
42
-0.36180399999996493
10
71
20
217.02234300000001
42
-0.18776300000000037
10
71.782606000000001
20
219.03290000000001
42
-0.016896000000010802
10
75.639527999999999
20
222.96146800000002
42
-0.022917000000001318
10
80.058766000000006
20
226.79840499999997
42
-0.042708000000006699
10
84.012658000000016
20
229.41037200000005
42
-0.022112999999998682
10
86.304093999999992
20
230.52919200000002
42
-0.015243999999983415
10
88.987402000000003
20
231.59940899999998
42
-0.015398000000005489
10
91.636574999999993
20
232.47211300000001
42
-0.030114000000019212
10
93.80105800000004
20
232.9725830000001
42
0.00042499999997897594
10
95.64239000000002
20
233.28461799999985
42
0.00059600000004003271
10
97.28604799999998
20
233.56661000000003
42
0.00035000000001946798
10
98.671609000000018
20
233.80702400000004
42
0.0080670000000786779
10
99.066341000000023
20
233.88238100000001
42
-0.08593499999994722
10
99.47541200000002
20
233.896017
42
-0.0024629999999758166
10
101.20933100000002
20
233.64626600000005
42
-0.0049229999999922903
10
103.25165800000001
20
233.32122699999999
42
-0.0033600000000154435
10
105.56634099999999
20
232.91341700000001
42
-0.022728999999992016
10
108.18692
20
232.309315
42
-0.014648999999999461
10
111.16358000000002
20
231.384252
42
-0.014728000000004463
10
114.02759500000001
20
230.30603500000001
42
-0.026714999999997005
10
116.28840100000002
20
229.23358800000003
42
-0.044813999999992277
10
120.08574299999999
20
226.713459
42
-0.022463999999999464
10
124.417998
20
222.91067800000002
42
-0.016383999999995486
10
128.23456399999998
20
218.99598300000002
42
-0.18712499999999904
10
129
20
217.02234300000001
42
-0.36180400000002672
10
128.214787
20
216.07925499999999
42
-0.13719000000000373
10
126.37909000000001
20
216.24581899999998
42
-0.067243999999998
0
LWPOLYLINE
5
109
100
AcDbEntity
8
0
100
AcDbPolyline
90
12
70
1
43
0.0
10
66.907111999999998
20
223.61192299999999
42
-0.18813099999998262
10
67.509967000000003
20
221.79766600000005
42
-0.10632099999999488
10
66.899001999999996
20
219.52798799999999
42
-0.10375499999999664
10
65.390291000000005
20
217.66827400000005
42
-0.17228900000001002
10
63.508465000000001
20
217.00000000000003
42
-0.15848299999999368
10
61.523460999999998
20
217.64539100000005
42
-0.11084199999998856
10
59.958089000000015
20
219.425466
42
-0.11618300000000152
10
59.349093999999994
20
221.63282800000002
42
-0.18470600000001502
10
59.971709000000004
20
223.46591099999998
42
-0.12534599999997839
10
61.449276000000012
20
224.54024700000005
42
-0.089799999999985197
10
63.459846000000006
20
224.94816600000004
42
-0.091092999999993499
10
65.459404000000006
20
224.62417599999998
42
-0.13474500000001155
0
LWPOLYLINE
5
110
100
AcDbEntity
8
0
100
AcDbPolyline
90
20
70
1
43
0.0
10
138.91689700000001
20
34.264555000000016
42
-0.029925000000002193
10
142.61028899999999
20
33.750153000000005
42
-0.069091000000000236
10
145.25
20
32.827716000000009
42
-0.060196999999995206
10
145.91927100000001
20
32.375331000000003
42
-0.054725999999996493
10
146.48593799999998
20
31.763154999999998
42
-0.058267000000011969
10
146.87143700000001
20
31.091527000000006
42
-0.10151300000000379
10
147
20
30.464815999999999
42
-0.31936700000000939
10
146.45701200000002
20
29.701421000000003
42
-0.05446100000000284
10
144.61662699999999
20
29.279296000000006
42
-0.025196000000003049
10
141.211826
20
29.053325000000001
42
-0.0039719999999976883
10
134.5
20
28.999999999999986
42
-0.0035559999999998488
10
129.706929
20
29.034089999999964
42
-0.0059260000000038544
10
125.67187500000001
20
29.139330999999871
42
-0.0014079999999889732
10
122.18460300000002
20
29.281495
42
-0.40151200000001569
10
122.00000000000001
20
29.474320000000006
42
-0.28072599999998987
10
122.46917100000002
20
30.244104000000007
42
-0.012327000000001687
10
125.41450600000002
20
31.672004000000019
42
-0.020554000000003153
10
128.69855000000001
20
33.005287000000003
42
-0.029303000000000422
10
131.71750200000002
20
33.892929000000002
42
-0.046774999999997936
10
135.02717200000001
20
34.338741999999996
42
-0.029750000000000193
0
LWPOLYLINE
5
111
100
AcDbEntity
8
0
100
AcDbPolyline
90
16
70
1
43
0.0
10
77.837770999999989
20
29.846922999999997
42
-0.26015399999997874
10
78
20
29.556229999999999
42
-0.40027899999996014
10
77.784689
20
29.33037199999994
42
-0.0016579999999988574
10
74.034375000000011
20
29.163393000000006
42
-0.0064329999999984573
10
69.676504000000008
20
29.039977999999991
42
-0.0038609999999899844
10
64.5
20
28.999999999999986
42
-0.006065999999995666
10
55.707191000000009
20
29.106684000000005
42
-0.062265999999999828
10
52.117971999999995
20
29.644131999999999
42
-0.49826300000000368
10
51.708424999999998
20
30.689861999999998
42
-0.13139700000000218
10
53.25
20
32.149968000000008
42
-0.068222000000000643
10
57.774117000000011
20
33.856656999999998
42
-0.058731000000000692
10
62.831468999999991
20
34.400765999999997
42
-0.054521999999999009
10
68.227390999999997
20
33.755122999999998
42
-0.044641999999998842
10
73.75
20
31.941842999999995
42
-0.010329000000006645
10
75.378818999999993
20
31.200485999999998
42
-0.015927999999993545
10
76.751563000000004
20
30.486449
42
-0.010313999999994772
0
LWPOLYLINE
5
112
100
AcDbEntity
8
0
100
AcDbPolyline
90
22
70
1
43
0.0
10
111.85593700000001
20
29.178740000000005
10
108.50000000000001
20
29.5
10
112.80718700000001
20
33.688478000000003
42
-0.063885999999999679
10
119.93102700000001
20
39.034995000000009
42
-0.063735999999998155
10
128.179348
20
42.415198000000018
42
-0.065004000000001103
10
136.859025
20
43.565905000000001
42
-0.071567000000000186
10
145.25
20
42.375652000000002
42
-0.10402699999999442
10
145.947598
20
42.002567999999997
42
-0.081087999999980911
10
146.50973400000001
20
41.349303000000006
42
-0.073729999999997395
10
146.87531799999999
20
40.488321999999997
42
-0.063673000000011692
10
147
20
39.513220000000004
42
-0.041786999999989763
10
146.88600600000001
20
38.151598
42
-0.27302799999996902
10
146.46147199999999
20
37.647689
42
-0.14243399999999859
10
145.596642
20
37.600373000000005
42
-0.01027999999999229
10
143.25
20
38.196736000000001
42
0.085389999999999619
10
136.48138600000004
20
38.869422999999998
42
0.048792000000002278
10
128.36162099999999
20
37.485509999999998
42
0.049364000000001212
10
120.99117700000001
20
34.669356000000001
42
0.12468199999999846
10
116.67555
20
30.94717
42
-0.062536999999997414
10
115.79506699999999
20
29.974950000000003
42
-0.089812999999987181
10
114.79539199999999
20
29.388125000000002
42
-0.076974000000006426
10
113.53785500000001
20
29.135794000000001
42
-0.03496899999999898
0
LWPOLYLINE
5
113
100
AcDbEntity
8
0
100
AcDbPolyline
90
16
70
1
43
0.0
10
104.75636100000001
20
32.313940000000002
42
-0.067289000000008786
10
104.559645
20
31.187926000000004
42
-0.21420700000000098
10
102.99102900000001
20
29.432887000000001
42
-0.10523400000000173
10
100
20
28.796321000000002
42
-0.10523400000000112
10
97.008971000000003
20
29.432887000000001
42
-0.21420700000000156
10
95.440355000000011
20
31.187926000000004
42
-0.067289000000006163
10
95.243639000000002
20
32.313940000000002
42
-0.1020589999999877
10
95.406203000000005
20
33.291218999999998
42
-0.089182999999991172
10
95.967706000000007
20
34.215029000000001
42
-0.041547999999989108
10
96.983750999999998
20
35.187926000000004
42
-0.026317999999999529
10
98.831940000000017
20
36.529910999999998
42
-0.14485300000000495
10
100
20
36.875557000000001
42
-0.14485299999999832
10
101.16806
20
36.529910999999998
42
-0.026317999999995036
10
103.016249
20
35.187926000000004
42
-0.04154799999999835
10
104.03229400000001
20
34.215028999999994
42
-0.089183000000005716
10
104.593797
20
33.291218999999998
42
-0.10205900000000542
0
LWPOLYLINE
5
114
100
AcDbEntity
8
0
100
AcDbPolyline
90
36
70
1
43
0.0
10
87.283038000000005
20
33.882055000000001
42
-0.070023000000003915
10
89.515618000000003
20
31.335819000000001
42
-0.015372999999999708
10
90.437083000000001
20
29.830493000000004
42
-0.29898300000000361
10
90.404595
20
29.311334999999996
42
-0.22600300000002305
10
89.887901000000014
20
29.040554
42
-0.009544000000001376
10
87.763599999999997
20
29.000000000000004
42
-0.040596999999997836
10
86.249072000000012
20
29.123175000000003
42
-0.062801000000000454
10
84.992093000000025
20
29.495178000000006
42
-0.07195600000000002
10
83.993047000000004
20
30.117137
42
-0.078169999999990469
10
83.243541000000008
20
30.981637000000003
42
0.077504999999988403
10
82.431904000000017
20
31.920307000000005
42
0.019201000000001925
10
80.826452000000003
20
33.178577000000018
42
0.019177000000001852
10
78.854713000000018
20
34.493080000000006
42
0.018173000000001261
10
76.752994000000001
20
35.677858000000001
42
0.023834000000001607
10
73.776387999999997
20
37.040521000000005
42
0.039884000000002147
10
71.149532999999991
20
37.858657999999998
42
0.036714000000000406
10
68.277807999999993
20
38.289174000000003
42
0.016933999999997298
10
64.5
20
38.446221000000008
42
0.010750999999996109
10
61.58163900000001
20
38.405892000000009
42
0.010052999999998157
10
58.601562000000001
20
38.240550000000006
42
0.01008000000000428
10
55.962531999999996
20
37.987245999999999
42
0.033520999999997726
10
54.250000000000007
20
37.670545000000004
42
-0.015378999999998668
10
52.383512000000003
20
37.254871999999999
42
-0.13573199999999475
10
51.549507000000006
20
37.322946999999999
42
-0.24963299999999827
10
51.129507000000004
20
37.792009999999998
42
-0.060323999999992869
10
51.000000000000007
20
38.861528
42
-0.088782999999998835
10
51.27899
20
40.420335999999999
42
-0.15985900000000935
10
52.078431000000009
20
41.426846999999995
42
-0.082698000000008362
10
53.732424999999999
20
42.160525
42
-0.012833000000003668
10
57.234639000000001
20
42.968792000000008
42
-0.044062000000001406
10
61.305997000000005
20
43.431173000000001
42
-0.027918999999998646
10
66.082938999999996
20
43.283970000000011
42
-0.02746200000000101
10
70.942965999999998
20
42.591453999999999
42
-0.035698999999998246
10
75.278490000000005
20
41.401742999999996
42
-0.044712999999995694
10
79.076471999999995
20
39.666561000000009
42
-0.02438099999999924
10
83.403570999999999
20
36.913313000000002
42
-0.023928999999997039
0
LWPOLYLINE
5
115
100
AcDbEntity
8
0
100
AcDbPolyline
90
28
70
1
43
0.0
10
104.94883200000002
20
45.761190999999997
42
-0.019357000000001741
10
106.765242
20
45.020105999999998
42
-0.037780000000003325
10
109.782721
20
43.365324999999999
42
-0.11345800000000325
10
111.40454800000001
20
41.685082000000008
42
-0.19102299999999967
10
111.68267200000001
20
40.00716400000001
42
-0.14402400000000529
10
110.77913500000001
20
38.350563999999999
42
-0.067342999999992742
10
109.82863200000003
20
37.626614000000004
42
-0.15966599999999254
10
108.967247
20
37.452205999999997
42
-0.093411000000004546
10
107.87255000000002
20
37.794637000000002
42
-0.014509999999996201
10
105.892391
20
38.924366999999997
42
0.050846000000001813
10
102.80962500000001
20
40.397866999999998
42
0.086281000000001454
10
100
20
40.886339000000007
42
0.086281000000002453
10
97.190375000000003
20
40.397866999999998
42
0.050846000000001265
10
94.107608999999997
20
38.924366999999997
42
-0.014509999999994288
10
92.127449999999996
20
37.794637000000002
42
-0.093410999999997454
10
91.032753
20
37.452205999999997
42
-0.15966599999998365
10
90.171368000000015
20
37.626614000000004
42
-0.067342999999999764
10
89.220865000000003
20
38.350563999999999
42
-0.068310000000007656
10
88.695810999999992
20
39.042689000000003
42
-0.059895000000009108
10
88.348043999999987
20
39.881710999999996
42
-0.062818999999998903
10
88.221113000000017
20
40.734164
42
-0.097493999999979389
10
88.34801400000002
20
41.464527000000004
42
-0.16445799999999264
10
89.665238000000016
20
43.052712
42
-0.027998999999997904
10
93.170451
20
44.951299000000006
42
-0.031223999999999127
10
97.028484000000006
20
46.483286999999997
42
-0.079056000000000293
10
100
20
46.95607600000001
42
-0.051907999999998872
10
101.249999
20
46.825955000000008
42
-0.017818999999999773
10
103.01854
20
46.387384999999995
42
-0.01748999999999892
0
LWPOLYLINE
5
116
100
AcDbEntity
8
0
100
AcDbPolyline
90
8
70
1
43
0.0
10
45
20
25
10
99.504131000000001
20
25
10
154.008263
20
25
10
153.754131
20
142.25
10
153.5
20
259.5
10
99.25
20
259.75861200000003
10
45
20
260.017225
10
45
20
142.508612
0
LWPOLYLINE
5
117
100
AcDbEntity
8
0
100
AcDbPolyline
90
32
70
1
43
0.0
10
99.513553999999999
20
224.18913500000002
42
-0.032754000000004044
10
104.24982499999999
20
223.80273500000001
42
-0.033268000000000429
10
108.67824800000001
20
222.84309800000003
42
-0.071310999999997154
10
111.86012500000001
20
221.41340099999996
42
-0.027084000000006249
10
114.44565
20
219.57214300000004
42
-0.018432000000007977
10
117.185115
20
217.21824600000002
42
-0.011767000000002501
10
119.587795
20
214.88734600000001
42
-0.19673800000000061
10
120
20
213.88029599999999
42
-0.200460999999998
10
119.86151000000001
20
213.54874800000002
42
-0.046725000000003292
10
119.38493100000004
20
213.158557
42
-0.041050000000014616
10
118.707857
20
212.77927599999998
42
-0.03031800000003897
10
117.906148
20
212.47021200000003
42
-0.09083299999997331
10
116.77444100000001
20
212.32667000000004
42
-0.085364000000013041
10
115.638626
20
212.58701400000004
42
-0.064308999999990943
10
114.40578400000001
20
213.29958500000004
42
-0.027873000000005976
10
112.96426500000001
20
214.53423600000002
42
0.11142100000000195
10
107.036934
20
218.10384100000005
42
0.084417000000000061
10
99.509602000000001
20
219.25454400000001
42
0.085555000000000367
10
92.119686999999999
20
217.85298500000005
42
0.11984600000000006
10
86.583823999999993
20
214.09262400000003
42
-0.041123000000004989
10
85.118928000000011
20
212.71961200000004
42
-0.11841599999998746
10
83.864721000000003
20
212.136651
42
-0.13322999999999308
10
82.574629000000002
20
212.22132299999998
42
-0.058415999999991634
10
81.017564000000007
20
212.96798300000003
42
-0.12783000000000364
10
80.422850999999994
20
213.60294700000003
42
-0.21606699999999429
10
80.370776000000021
20
214.31695300000001
42
-0.08908199999998391
10
80.950997999999998
20
215.30613599999998
42
-0.013008000000003387
10
82.517564000000021
20
217.04194700000002
42
-0.03493399999999449
10
85.351993000000007
20
219.63392799999997
42
-0.045477999999997513
10
88.292253000000017
20
221.56036499999999
42
-0.045197000000010618
10
91.547250000000005
20
222.93192000000005
42
-0.033882000000004305
10
95.326400000000007
20
223.85962800000001
42
-0.047259999999999774
0
LWPOLYLINE
5
118
100
AcDbEntity
8
0
100
AcDbPolyline
90
12
70
1
43
0.0
10
147
20
218
42
-0.072314000000028342
10
146.888136
20
217.23058900000001
42
-0.088919999999982222
10
146.5625
20
216.58333300000004
42
-0.10213999999996964
10
146.07575400000002
20
216.153209
42
-0.13077500000000769
10
145.5
20
216
42
-0.10256200000001438
10
144.483981
20
216.21062499999999
42
-0.27010600000002977
10
144.05947599999999
20
216.78754800000002
42
-0.17567200000001565
10
144.27795700000001
20
217.676264
42
-0.049175999999989985
10
145.19999999999999
20
218.80000000000001
42
-0.015012000000009712
10
146.27551599999998
20
219.81280099999998
42
-0.2939470000000774
10
146.70516999999995
20
219.87930399999999
42
-0.28113199999999744
10
146.95733200000001
20
219.51422100000002
42
-0.014086000000003523
0
LWPOLYLINE
5
119
100
AcDbEntity
8
0
100
AcDbPolyline
90
12
70
1
43
0.0
10
140.028291
20
223.46591099999998
42
-0.18470599999998744
10
140.65090599999999
20
221.63282800000002
42
-0.11618300000000417
10
140.041911
20
219.42546600000003
42
-0.11084199999998712
10
138.476539
20
217.64539100000005
42
-0.15848299999999368
10
136.491535
20
217.00000000000003
42
-0.17228900000001335
10
134.60970900000001
20
217.66827400000005
42
-0.10375500000000237
10
133.100998
20
219.52798799999999
42
-0.10632100000000608
10
132.49003300000001
20
221.79766600000005
42
-0.18813100000000532
10
133.09288799999999
20
223.61192299999999
42
-0.13474500000001327
10
134.54059599999999
20
224.62417599999998
42
-0.091092999999994276
10
136.540154
20
224.94816600000004
42
-0.089799999999988236
10
138.550724
20
224.54024700000005
42
-0.12534600000001386
0
LWPOLYLINE
5
120
100
AcDbEntity
8
0
100
AcDbPolyline
90
14
70
1
43
0.0
10
51.093664000000004
20
217.59935400000003
42
-0.018208999999998376
10
51.035963000000002
20
219.75
10
51.071926000000005
20
223.5
10
53.530996000000002
20
220.5
42
-0.011258000000005087
10
54.473185000000008
20
219.29626800000005
42
-0.015068000000007289
10
55.269173000000002
20
218.16093700000005
42
-0.012207999999979699
10
55.873245999999995
20
217.19079600000001
42
-0.13223299999998248
10
55.995032999999992
20
216.75
42
-0.27193600000010659
10
55.827936999999999
20
216.46112200000005
42
-0.055896999999990732
10
55.26416600000001
20
216.220313
42
-0.044630999999997867
10
54.457523999999999
20
216.05444500000004
42
-0.028407000000015059
10
53.500000000000007
20
216
42
-0.051953000000022898
10
52.120661000000005
20
216.14370899999997
42
-0.19798699999997066
10
51.420228000000002
20
216.62140400000001
42
-0.13025400000000747
0
LWPOLYLINE
5
121
100
AcDbEntity
8
0
100
AcDbPolyline
90
22
70
1
43
0.0
10
79.073627000000002
20
203.229422
42
0.06182600000000129
10
71.420348000000018
20
206.44744000000003
42
0.061821999999999502
10
63.211924000000003
20
207.696842
42
0.082324999999997248
10
55.75
20
206.67027099999999
10
51.000000000000007
20
205.19573600000001
10
51.000000000000007
20
207.63009199999999
42
-0.17808700000000272
10
51.783415999999995
20
209.75986400000005
42
-0.14463900000000227
10
53.833225000000013
20
211.09859500000002
42
-0.066999000000003625
10
57.710147000000006
20
211.71418399999999
42
-0.014553999999996445
10
64.5
20
211.67727900000003
42
-0.011067000000007491
10
69.364085000000003
20
211.40131499999998
42
-0.031309000000003175
10
72.729644999999991
20
210.922211
42
-0.039416000000001686
10
75.547595000000001
20
210.103364
42
-0.028424999999988789
10
78.540145999999993
20
208.77263500000001
42
-0.048287000000005867
10
82.487166000000002
20
206.23293100000006
42
-0.022523000000001493
10
87.09231299999999
20
202.24822700000004
42
-0.016417999999999388
10
91.181459000000004
20
198.111639
42
-0.18889900000000764
10
92.000000000000014
20
196.02234300000003
42
-0.34813900000003578
10
91.257417000000004
20
195.08510100000001
42
-0.14130200000000462
10
89.520085999999992
20
195.17206200000004
42
-0.075526999999991837
10
87.126071999999994
20
196.42305400000001
42
-0.054547000000002059
10
84.901052000000007
20
198.459915
42
0.082369000000002537
0
LWPOLYLINE
5
122
100
AcDbEntity
8
0
100
AcDbPolyline
90
28
70
1
43
0.0
10
101.671464
20
208.86194900000004
42
0.041225999999984178
10
100
20
209.00000000000003
42
0.041225999999984178
10
98.328536
20
208.86194900000004
42
0.035349000000009762
10
96.611364000000009
20
208.44994700000001
42
0.036335000000014286
10
95.028629000000024
20
207.82001000000002
42
0.05382499999999539
10
93.763766000000004
20
207.028818
42
-0.013501999999998257
10
92.116676999999996
20
205.80373400000002
42
-0.15321200000000909
10
91.352484000000004
20
205.560247
42
-0.18940999999997463
10
90.662847999999997
20
205.82772800000001
42
-0.022716999999994932
10
89.490894999999995
20
207.01006100000001
42
-0.027685000000007134
10
88.576164000000006
20
208.140748
42
-0.1308850000000244
10
88.281486999999998
20
208.91292200000004
42
-0.15599600000002706
10
88.435879000000014
20
209.65462299999999
42
-0.044529000000016597
10
89.111601000000022
20
210.63447100000002
42
-0.10889800000000086
10
92.395626000000007
20
213.18917900000002
42
-0.071747000000000005
10
96.983731999999989
20
214.61318700000004
42
-0.068737000000004891
10
102.00357100000002
20
214.71578399999999
42
-0.081742000000004492
10
106.552875
20
213.40788500000002
42
-0.026754999999992115
10
109.73154199999999
20
211.68553300000002
42
-0.1172629999999982
10
111.23413400000003
20
210.188579
42
-0.21196099999998214
10
111.44058999999999
20
208.68077400000001
42
-0.1139660000000008
10
110.50910500000001
20
207.01006100000001
42
-0.022717000000017279
10
109.33715200000002
20
205.82772800000001
42
-0.18940999999995822
10
108.647516
20
205.560247
42
-0.15321200000000909
10
107.883323
20
205.80373400000002
42
-0.013501999999983342
10
106.23623400000001
20
207.028818
42
0.053824999999996306
10
104.971371
20
207.82001000000002
42
0.036335000000014092
10
103.38863600000002
20
208.44994700000001
42
0.035349000000007395
0
LWPOLYLINE
5
123
100
AcDbEntity
8
0
100
AcDbPolyline
90
28
70
1
43
0.0
10
145.41821299999998
20
211.39301099999997
42
-0.11537099999999668
10
146.02341200000001
20
210.98239800000002
42
-0.065675000000000483
10
146.53534999999999
20
210.25578199999998
42
-0.060113000000018464
10
146.88213100000002
20
209.34150600000004
42
-0.06068700000002282
10
147
20
208.37395900000004
42
-0.034715999999996548
10
146.90691000000001
20
207.03485600000005
42
-0.22714900000000871
10
146.54468300000002
20
206.48859200000001
42
-0.18297600000004749
10
145.83386100000001
20
206.36173900000003
42
-0.021838999999997277
10
144.25
20
206.73094800000001
42
0.036702999999975644
10
142.79285300000001
20
207.02528900000001
42
0.010851000000001266
10
140.527423
20
207.26230200000003
42
0.010828000000013518
10
137.96124499999996
20
207.41873999999999
42
0.011463999999991259
10
135.439098
20
207.45986700000003
42
0.056024999999999596
10
129.88373200000001
20
206.79815400000001
42
0.046556000000000292
10
124.238193
20
204.90513100000001
42
0.047089000000004579
10
119.11105500000002
20
202.03260500000002
42
0.061443999999993129
10
115.09894799999999
20
198.459915
42
-0.053740999999999567
10
112.80511100000001
20
196.35327100000001
42
-0.084839999999994531
10
110.42437200000001
20
195.15520100000003
42
-0.16695500000000257
10
108.740416
20
195.21231
42
-0.31099100000001262
10
108
20
196.28759200000002
42
-0.20564100000000501
10
109.29074700000001
20
199.29322200000001
42
-0.024586000000004653
10
114.89905200000001
20
204.11742000000001
42
-0.029823999999995587
10
121.38691999999999
20
208.571145
42
-0.061743999999999043
10
126.993526
20
211.06565899999998
42
-0.059111999999993267
10
130.26594900000001
20
211.651702
42
-0.010338999999997035
10
136.534931
20
211.89281700000004
42
-0.0087680000000070202
10
142.83774399999999
20
211.89425900000001
42
-0.087496999999995065
0
LWPOLYLINE
5
124
100
AcDbEntity
8
0
100
AcDbPolyline
90
16
70
1
43
0.0
10
95.459792000000022
20
200.08384800000002
42
-0.13247400000001475
10
95.248656000000011
20
200.96919900000003
42
-0.14921600000001142
10
95.525052000000002
20
201.78798500000002
42
-0.02844799999999495
10
96.523189000000002
20
203.02562300000002
42
-0.075422999999991025
10
98.235410999999999
20
204.42351200000004
42
-0.13215399999999733
10
99.986311000000001
20
204.91058800000002
42
-0.13374299999998765
10
101.73050000000003
20
204.45151200000001
42
-0.078147999999989434
10
103.423473
20
203.08456200000001
42
-0.029696000000012553
10
104.39268400000002
20
201.87664100000001
42
-0.15316400000000133
10
104.653352
20
201.07079900000002
42
-0.12917799999999779
10
104.42954499999999
20
200.18711300000001
42
-0.018767000000004273
10
103.46344999999999
20
198.58456200000003
42
-0.08315900000000806
10
101.769961
20
196.75199800000001
42
-0.16408699999998599
10
99.918605000000014
20
196.11039000000002
42
-0.16598399999999788
10
98.072069999999997
20
196.723615
42
-0.085495000000013532
10
96.391254000000004
20
198.52562300000002
42
-0.020633000000000613
0
LWPOLYLINE
5
125
100
AcDbEntity
8
0
100
AcDbPolyline
90
24
70
1
43
0.0
10
51.584371000000004
20
195.16674
42
-0.31839400000001344
10
51.109135999999999
20
195.69348300000001
42
-0.02939499999999556
10
51.000000000000007
20
197.54827399999999
42
-0.069254999999993808
10
51.179856000000008
20
198.840551
42
-0.10300099999999653
10
51.707426000000005
20
199.84934300000003
42
-0.084422000000006214
10
52.682341000000008
20
200.69619500000002
42
-0.034205000000010019
10
54.250000000000007
20
201.50913200000002
42
-0.072168000000008239
10
58.394655000000014
20
202.63801999999998
42
-0.036052999999996373
10
63.834957000000003
20
202.90895000000003
42
-0.03601499999999528
10
69.291643999999991
20
202.39277000000001
42
-0.068191999999999003
10
73.5
20
201.07949000000002
42
-0.038079000000007364
10
76.604461000000001
20
199.32343600000002
42
-0.027453999999998323
10
79.783704999999998
20
196.92757499999999
42
-0.022526000000000115
10
82.410039000000012
20
194.50172600000002
42
-0.19751400000000194
10
83
20
193.06652
42
-0.28068999999998523
10
82.339469999999992
20
191.98260400000004
42
-0.15875000000000986
10
80.768602999999999
20
191.726956
42
-0.079043999999991371
10
78.336791000000019
20
192.50942600000002
42
-0.036245999999996878
10
75.474338000000003
20
194.23119600000001
42
0.071162000000003403
10
70.813344000000001
20
196.60996499999999
42
0.053338000000003244
10
65.186867000000007
20
197.88729700000002
42
0.054843000000004381
10
59.631926
20
197.92666
42
0.09396500000000807
10
55.206024000000014
20
196.606539
42
-0.0087569999999957265
10
52.505313000000001
20
195.26936500000002
42
-0.1671540000000255
0
LWPOLYLINE
5
126
100
AcDbEntity
8
0
100
AcDbPolyline
90
28
70
1
43
0.0
10
140.89958799999999
20
202.80913300000003
42
-0.072621000000007693
10
144.4349
20
202.02475100000001
42
-0.052352999999983912
10
145.62735000000001
20
201.42212700000002
42
-0.095308999999996646
10
146.41368700000001
20
200.670873
42
-0.097698999999993749
10
146.85333400000002
20
199.69527500000001
42
-0.05721500000000402
10
147
20
198.41776200000001
42
-0.023997999999994933
10
146.93433300000004
20
197.050363
42
-0.16867299999996621
10
146.66037900000001
20
196.45329099999998
42
-0.25838000000001154
10
146.151399
20
196.29544199999998
42
-0.05678499999996877
10
145.25
20
196.59258199999999
42
0.062244999999996574
10
144.19381200000001
20
196.92805000000004
42
0.010432000000016243
10
142.09299199999998
20
197.27215000000001
42
0.011282999999991855
10
139.59230300000002
20
197.57094900000001
42
0.0097990000000028159
10
136.960184
20
197.77338999999998
42
0.015343999999993906
10
132.95663300000001
20
197.879423
42
0.065478000000001188
10
130.59227200000004
20
197.55833600000003
42
0.0659999999999967
10
128.40038799999999
20
196.63792900000004
42
0.015744999999988844
10
125.04493799999999
20
194.53024099999999
42
-0.023577000000006714
10
121.479308
20
192.36764199999999
42
-0.090402999999994321
10
119.02348400000001
20
191.55998300000005
42
-0.22636399999999293
10
117.61029199999999
20
192.009255
42
-0.20733700000000346
10
117.00000000000001
20
193.41772399999999
42
-0.196986999999999
10
117.64220300000002
20
194.98453400000002
42
-0.029989999999990503
10
120.20575700000002
20
197.29188100000002
42
-0.032100999999996938
10
123.51870400000003
20
199.60099100000002
42
-0.033820000000000836
10
127.04427000000001
20
201.42262900000003
42
-0.066629999999994222
10
130.673767
20
202.45153000000002
42
-0.027146999999996875
10
135.79545400000001
20
202.90800500000003
42
-0.026996000000005235
0
LWPOLYLINE
5
127
100
AcDbEntity
8
0
100
AcDbPolyline
90
24
70
1
43
0.0
10
145.847431
20
185.24743100000001
42
-0.11232700000003006
10
145.15880900000002
20
184.81408500000001
42
-0.13954600000001882
10
144.40643600000001
20
184.76838700000002
42
-0.087409999999992535
10
143.48006800000002
20
185.15027400000002
42
-0.025286999999993242
10
142.21257199999999
20
186.04743100000005
42
0.089685000000002166
10
139.58237399999999
20
187.44233600000001
42
0.07774600000000069
10
136.49311499999999
20
187.920469
42
0.077633999999989045
10
133.40128700000002
20
187.43234799999999
42
0.088977999999994908
10
130.763766
20
186.02881800000003
42
-0.013501999999997743
10
129.11667700000004
20
184.80373400000002
42
-0.15321200000001306
10
128.352484
20
184.560247
42
-0.18941000000002053
10
127.66284800000001
20
184.82772800000004
42
-0.022716999999995238
10
126.49089500000001
20
186.01006100000004
42
-0.02768499999999733
10
125.57616400000001
20
187.14074800000003
42
-0.13088500000001999
10
125.28148700000003
20
187.91292200000001
42
-0.15599600000000713
10
125.435879
20
188.65462300000002
42
-0.04452900000000215
10
126.11160100000001
20
189.63447099999999
42
-0.12052000000000163
10
129.63846000000001
20
192.25045300000002
42
-0.073043999999996737
10
134.69669500000003
20
193.55537200000001
42
-0.071274000000004806
10
140.05977899999999
20
193.36402500000003
42
-0.10085700000000095
10
144.48557199999999
20
191.60141000000004
42
-0.078056000000000639
10
146.07774900000004
20
190.15972099999999
42
-0.11754300000000899
10
146.88044299999999
20
188.47723300000001
42
-0.13357699999999026
10
146.787477
20
186.77139299999999
42
-0.11687100000000629
0
LWPOLYLINE
5
128
100
AcDbEntity
8
0
100
AcDbPolyline
90
28
70
1
43
0.0
10
56.33256200000001
20
191.93555700000002
42
-0.038864999999996555
10
59.802379000000002
20
193.32928300000003
42
-0.062270999999998966
10
62.938223999999998
20
193.89950400000004
42
-0.065275000000009159
10
66.010432999999992
20
193.669051
42
-0.047709999999999676
10
69.282118999999994
20
192.65490400000004
42
-0.025060999999991878
10
70.615893
20
192.01711399999999
42
-0.021006999999996504
10
71.962475999999995
20
191.21329200000002
42
-0.021523000000013327
10
73.131962000000001
20
190.372704
42
-0.053094000000009675
10
73.888012000000003
20
189.636146
42
-0.044458000000016658
10
74.564138999999997
20
188.65526299999999
42
-0.1559389999999973
10
74.718631000000002
20
187.91323500000001
42
-0.13091999999998877
10
74.423986000000014
20
187.14095
42
-0.02768900000000939
10
73.509105000000005
20
186.01006100000004
42
-0.02271700000000932
10
72.337152000000003
20
184.82772800000004
42
-0.18941000000001759
10
71.64751600000001
20
184.560247
42
-0.15321200000000698
10
70.883323000000019
20
184.80373400000002
42
-0.013502000000011628
10
69.236233999999996
20
186.02881800000003
42
0.088974999999992144
10
66.598928000000001
20
187.43225300000003
42
0.077617999999994899
10
63.507190000000008
20
187.92049200000002
42
0.077735999999996169
10
60.418133999999995
20
187.44268300000002
42
0.08971299999999717
10
57.788474000000001
20
186.04825300000002
42
-0.022501000000005728
10
56.30384200000001
20
184.98494399999998
42
-0.11905499999998417
10
55.367289
20
184.65413899999999
42
-0.14225699999999114
10
54.469037
20
184.81766300000001
42
-0.037097000000019004
10
53.195501000000007
20
185.57561899999999
42
-0.11402000000001158
10
51.855280999999998
20
187.06502499999999
42
-0.24575000000000974
10
51.819722999999996
20
188.56419
42
-0.13328199999999163
10
53.217385000000007
20
190.14738400000002
42
-0.030739999999996361
0
LWPOLYLINE
5
129
100
AcDbEntity
8
0
100
AcDbPolyline
90
14
70
1
43
0.0
10
60.09881
20
182.25
42
-0.0426289999999966
10
61.879783000000003
20
183.47953899999999
42
-0.11691100000001071
10
63.336156999999993
20
183.90822299999999
42
-0.1226019999999835
10
64.787117000000023
20
183.62844199999998
42
-0.049264000000009377
10
66.539334999999994
20
182.59489600000001
42
-0.042364999999982757
10
67.622810000000001
20
181.65216000000001
42
-0.18419900000001482
10
67.952885999999992
20
180.88381000000001
42
-0.11094700000001001
10
67.767993000000004
20
179.86515399999999
42
-0.011108000000003254
10
66.746643999999989
20
177.59489600000001
42
-0.054463000000004251
10
65.147005000000007
20
175.00786299999999
42
-0.2176720000000234
10
63.534765
20
174.16946999999999
42
-0.21691399999999519
10
61.841576000000003
20
174.83856299999999
42
-0.054104999999999043
10
59.973328000000009
20
177.25
10
57.976053000000007
20
180.5
0
LWPOLYLINE
5
130
100
AcDbEntity
8
0
100
AcDbPolyline
90
32
70
1
43
0.0
10
115.70727900000001
20
187.49092099999999
42
-0.028474999999992645
10
118.39154300000001
20
185.88469000000001
42
-0.02653199999999661
10
121.051967
20
183.865497
42
-0.020783999999996808
10
123.71900800000003
20
181.41142700000003
42
-0.011064999999997814
10
127.24472900000002
20
177.72610600000004
42
-0.077172000000001073
10
128.62120100000001
20
175.65735599999999
42
-0.23808400000000221
10
128.575345
20
174.324996
42
-0.17745899999998055
10
127.44962000000001
20
173.34229399999998
42
-0.18863299999998911
10
126.523799
20
173.34829100000002
42
-0.0515190000000205
10
125.20530200000002
20
174.03859199999999
42
-0.038106999999995415
10
123.57683600000001
20
175.30620099999999
42
-0.017288000000000713
10
121.640421
20
177.19210700000002
42
0.040911999999999622
10
116.78459199999999
20
181.49396899999999
42
0.059522999999993255
10
111.83684699999999
20
184.35515000000004
42
0.059935999999997623
10
106.38073500000003
20
185.957571
42
0.042197999999998577
10
100
20
186.47931299999999
42
0.03882100000000429
10
93.538458000000006
20
185.95892900000001
42
0.059895000000004049
10
88.154793999999995
20
184.424733
42
0.060407000000004998
10
83.32050000000001
20
181.670075
42
0.040285999999994979
10
78.519656999999995
20
177.46683300000001
42
-0.01683000000000303
10
76.515081000000009
20
175.53857099999999
42
-0.033792999999993988
10
74.787600999999995
20
174.184585
42
-0.041926000000013793
10
73.385662999999994
20
173.39409799999999
42
-0.20167399999999663
10
72.489231000000004
20
173.365759
42
-0.14984000000001371
10
71.396659
20
174.22051399999998
42
-0.23525699999999167
10
71.225135999999992
20
175.37617299999997
42
-0.090574000000005941
10
72.16438500000001
20
177.11432600000001
42
-0.014659999999997621
10
74.666356999999991
20
180.052457
42
-0.073499000000001161
10
82.688885000000013
20
186.66498000000001
42
-0.080279999999998644
10
92.049231999999989
20
190.4297
42
-0.078335000000002306
10
102.31339900000002
20
191.10641600000002
42
-0.06564300000000195
10
112.96900800000002
20
188.70557099999999
42
-0.032409000000009583
0
LWPOLYLINE
5
131
100
AcDbEntity
8
0
100
AcDbPolyline
90
20
70
1
43
0.0
10
139.065741
20
182.96481599999998
42
-0.054909999999987663
10
139.80555200000001
20
182.45748200000003
42
-0.052105000000004904
10
140.43181200000001
20
181.793093
42
-0.056183000000022083
10
140.85898899999998
20
181.07964300000003
42
-0.10722099999999625
10
141
20
180.429633
42
-0.1102269999999988
10
140.598341
20
178.62981399999998
42
-0.042904000000001948
10
139.31306999999998
20
176.41029700000001
42
-0.041062000000006184
10
137.748244
20
174.52480300000002
42
-0.2016670000000077
10
136.5
20
174.00000000000003
42
-0.2016030000000047
10
135.25436999999999
20
174.52352400000001
42
-0.040858000000007791
10
133.68875500000001
20
176.40746100000001
42
-0.04272600000000476
10
132.40162599999999
20
178.622938
42
-0.11067600000000727
10
132
20
180.41512700000001
42
-0.16124899999998635
10
132.362325
20
181.50940800000001
42
-0.06065799999999627
10
133.489069
20
182.69332500000002
42
-0.059062000000007421
10
134.94026000000002
20
183.62550400000001
42
-0.10430900000001903
10
136.315741
20
183.96959100000001
42
-0.078910999999978831
10
136.752227
20
183.916856
42
-0.018144999999969328
10
137.460047
20
183.686982
42
-0.018312999999990059
10
138.26537500000001
20
183.35883899999999
42
-0.016963999999970808
0
LWPOLYLINE
5
132
100
AcDbEntity
8
0
100
AcDbPolyline
90
14
70
1
43
0.0
10
55.597068000000007
20
175.063875
42
-0.17280499999998578
10
55.628324000000006
20
174.5
42
-0.14947900000004746
10
55.375419000000001
20
174.11701300000001
42
-0.066542999999948907
10
54.856966000000007
20
173.79374999999999
42
-0.057297000000046262
10
54.171727000000018
20
173.57411999999999
42
-0.048964000000005531
10
53.416667000000011
20
173.5
42
-0.11131999999997502
10
52.460630000000002
20
173.71552199999999
42
-0.15699600000003991
10
51.828973000000005
20
174.30978300000004
42
-0.088263000000000355
10
51.439796999999999
20
175.45203999999998
42
-0.019881000000004104
10
51.208328000000009
20
177.5
10
50.916656000000003
20
181.50000000000003
10
53.419986000000002
20
178.5
42
-0.020603999999990106
10
54.357015000000004
20
177.27806200000001
42
-0.027143000000000587
10
55.101307999999996
20
176.08750000000001
42
-0.026715999999998487
0
LWPOLYLINE
5
133
100
AcDbEntity
8
0
100
AcDbPolyline
90
30
70
1
43
0.0
10
110.62826399999999
20
174.30794900000001
42
0.059982000000005975
10
107.62709600000001
20
175.86533799999998
42
0.056696000000005513
10
104.214037
20
176.72080199999999
42
0.033091000000009432
10
100
20
177
42
0.0331980000000031
10
95.772594999999995
20
176.71900600000001
42
0.057172999999997337
10
92.355998999999997
20
175.85763900000001
42
0.060201000000001267
10
89.344218000000012
20
174.284132
42
0.041417999999998949
10
86.357006999999996
20
171.846214
42
-0.016830000000004269
10
84.526826999999997
20
170.19637299999999
42
-0.092270000000005584
10
83.374398999999997
20
169.54272
42
-0.14400099999996802
10
82.320222000000015
20
169.49430500000003
42
-0.062896999999981884
10
81.000294999999994
20
169.999842
10
78.786575999999997
20
171.18458799999999
10
82.075586000000001
20
174.57798500000001
42
-0.044394000000000239
10
85.949429000000009
20
177.923115
42
-0.056729999999997928
10
90.061642000000006
20
180.224514
42
-0.056337999999995197
10
94.609270999999993
20
181.55352600000001
42
-0.042937000000004881
10
99.782118999999994
20
181.999211
42
-0.019069000000002157
10
102.428629
20
181.89857599999999
42
-0.0166089999999934
10
105.18548100000002
20
181.59589
42
-0.016921999999996232
10
107.66157300000002
20
181.15448799999999
42
-0.046414999999983206
10
109.35484600000001
20
180.62509599999998
42
-0.051472999999992664
10
112.56450600000001
20
178.87734
42
-0.026753999999997311
10
116.18523700000003
20
176.09626299999999
42
-0.021130000000002109
10
119.31416400000001
20
173.17708200000001
42
-0.19694099999999282
10
120
20
171.50339700000001
42
-0.20480399999999707
10
119.39028200000003
20
170.07729699999999
42
-0.20931000000000075
10
117.94561700000001
20
169.54980500000002
42
-0.11796399999998559
10
115.82798799999999
20
170.198868
42
-0.058811000000003937
10
113.58181399999999
20
171.90551200000002
42
0.042208999999993155
0
LWPOLYLINE
5
134
100
AcDbEntity
8
0
100
AcDbPolyline
90
16
70
1
43
0.0
10
146.56413600000002
20
173.23080300000001
42
-0.18388799999997396
10
146.24924099999998
20
173.08954299999999
42
-0.090489000000077077
10
145.80701900000003
20
173.14399500000002
42
-0.070364000000014332
10
145.30641599999998
20
173.38181200000005
42
-0.050393000000004219
10
144.825715
20
173.77428500000005
42
-0.078765000000020499
10
144.363281
20
174.41093999999998
42
-0.14202799999997609
10
144.24319399999999
20
175.039354
42
-0.11141199999996122
10
144.47219099999998
20
175.74150600000002
42
-0.038090999999976186
10
145.09238200000001
20
176.62263400000001
42
-0.013835000000009061
10
145.96803400000002
20
177.62682900000001
42
-0.28999300000005129
10
146.33545000000001
20
177.72515900000002
42
-0.27432199999997303
10
146.59607700000004
20
177.43528600000002
42
-0.012732999999983081
10
146.830803
20
176.07915200000002
42
-0.027435000000015052
10
146.91349299999999
20
175.17363999999998
42
-0.032401000000008291
10
146.888926
20
174.313962
42
-0.034224000000017116
10
146.77358300000003
20
173.60719
42
-0.13969999999991314
0
LWPOLYLINE
5
135
100
AcDbEntity
8
0
100
AcDbPolyline
90
28
70
1
43
0.0
10
106.96405200000001
20
171.15894300000002
42
-0.032948999999997876
10
109.92261999999999
20
169.31171899999998
42
-0.10797199999998555
10
111.45390200000001
20
167.60637400000002
42
-0.18724199999999128
10
111.69372299999999
20
165.979557
42
-0.1413209999999957
10
110.812365
20
164.38379399999999
42
-0.042170999999974375
10
109.76815000000002
20
163.50228600000003
42
-0.18366099999999075
10
108.99832099999999
20
163.30281000000002
42
-0.12445299999999548
10
108.11385200000002
20
163.63306800000001
42
-0.015381000000013018
10
106.444457
20
164.86503000000002
42
0.047857999999994696
10
105.07091299999999
20
165.74712399999999
42
0.038850000000018821
10
103.456627
20
166.42501500000003
42
0.038181999999989329
10
101.72468800000001
20
166.85543100000001
42
0.041837999999997148
10
100
20
167
42
0.041837999999997481
10
98.275312000000014
20
166.85543100000001
42
0.03818199999998842
10
96.543373000000017
20
166.42501500000003
42
0.038849999999980914
10
94.929086999999996
20
165.74712399999999
42
0.047858000000000699
10
93.555543
20
164.86503000000002
42
-0.015380999999998117
10
91.886147999999991
20
163.63306800000001
42
-0.12445299999998796
10
91.00167900000001
20
163.30281000000002
42
-0.18366100000000435
10
90.231849999999994
20
163.50228600000003
42
-0.042170999999982327
10
89.187635
20
164.38379399999999
42
-0.1462699999999913
10
88.304431000000022
20
166.02019899999999
42
-0.18188900000000749
10
88.570183
20
167.71645599999999
42
-0.10907399999999542
10
90.143088000000006
20
169.465103
42
-0.037260999999995763
10
93.074888000000016
20
171.248446
42
-0.059185000000007523
10
96.48089800000001
20
172.50628000000003
42
-0.060566999999996138
10
100.05997000000001
20
172.91803999999999
42
-0.060849999999999904
10
103.618447
20
172.460071
42
-0.060756000000004647
0
LWPOLYLINE
5
136
100
AcDbEntity
8
0
100
AcDbPolyline
90
28
70
1
43
0.0
10
86.265936999999994
20
160.89518300000003
42
-0.0602489999999999
10
89.556057999999979
20
157.51539100000002
42
-0.047455999999996674
10
92.129842000000011
20
153.380448
42
-0.5299400000000134
10
91.334215999999998
20
151.96704
42
-0.18309600000000301
10
88.373335999999995
20
152.814322
42
-0.024898999999999553
10
83.316854000000006
20
156.99338999999998
42
0.044718999999999662
10
78.238291000000004
20
160.86285000000001
42
0.05694499999999926
10
72.933522999999994
20
163.411878
42
0.057942999999999037
10
67.266982999999996
20
164.669603
42
0.048739999999998868
10
61.114389000000003
20
164.70193800000001
42
0.0078589999999796288
10
58.799896999999994
20
164.45130800000001
42
0.0077970000000048851
10
56.488289000000016
20
164.12748700000003
42
0.0076869999999867713
10
54.476130000000005
20
163.781781
42
0.029861999999983336
10
53.25
20
163.47492500000001
42
-0.03568200000000922
10
52.018918999999997
20
163.181996
42
-0.21583700000003872
10
51.400697999999998
20
163.34836800000002
42
-0.19449400000004113
10
51.079343000000001
20
163.93861299999998
42
-0.028602000000004037
10
51.000000000000007
20
165.32451899999998
42
-0.067433000000003157
10
51.188546000000002
20
166.71618700000005
42
-0.15400299999999709
10
51.75842500000001
20
167.59570199999999
42
-0.098992000000009253
10
52.918993999999998
20
168.21909399999998
42
-0.01881900000000547
10
55.25
20
168.834059
42
-0.02147199999998841
10
59.489495000000005
20
169.594008
42
-0.03681100000000314
10
63.073004000000012
20
169.812319
42
-0.035720000000002132
10
66.723240000000004
20
169.50442200000001
42
-0.018899000000008864
10
71.183933999999994
20
168.63101900000001
42
-0.045280000000003436
10
76.266116000000011
20
166.937547
42
-0.033002999999997812
10
81.555981000000003
20
164.19617299999999
42
-0.033607999999999923
0
LWPOLYLINE
5
137
100
AcDbEntity
8
0
100
AcDbPolyline
90
20
70
1
43
0.0
10
146.812614
20
166.296502
42
-0.10152100000000096
10
146.73836900000001
20
165.07283200000001
42
-0.27303900000003056
10
146.13891100000001
20
164.48598900000002
42
-0.076715999999982395
10
144.66019499999999
20
164.35470800000002
42
-0.0047639999999946015
10
140.26039800000001
20
164.681389
42
0.039988000000002681
10
133.30096499999999
20
164.70718400000004
42
0.059816000000002284
10
127.34314400000001
20
163.52601799999999
42
0.061415000000002738
10
121.948144
20
161.00011000000001
42
0.04500799999999823
10
116.68314600000001
20
156.99338999999998
42
-0.024689999999998075
10
111.75942800000001
20
152.92058300000002
42
-0.16569800000000229
10
108.783501
20
151.956423
42
-0.53124400000001959
10
107.93127200000001
20
153.259929
42
-0.055345999999999486
10
110.06643200000001
20
157.09329499999998
42
-0.09210599999999676
10
116.122759
20
162.94628
42
-0.059868000000000234
10
124.84567900000002
20
167.32291799999999
42
-0.058898000000001997
10
134.54366399999998
20
169.57100199999999
42
-0.080097999999998865
10
143.5
20
169.12525400000004
42
-0.04303799999997758
10
144.86867800000002
20
168.70845400000005
42
-0.081466000000027003
10
145.85251399999999
20
168.11308100000002
42
-0.096767999999989834
10
146.48655600000001
20
167.31456699999998
42
-0.08429999999997817
0
LWPOLYLINE
5
138
100
AcDbEntity
8
0
100
AcDbPolyline
90
24
70
1
43
0.0
10
76.183880000000002
20
150.928684
42
0.068408000000001509
10
70.967002000000008
20
154.006955
42
0.071896999999998629
10
65.200409999999991
20
155.497412
42
0.072986999999996888
10
59.323963000000006
20
155.283805
42
0.073933999999998459
10
53.784555000000012
20
153.388589
42
-0.011886000000003644
10
51.965803000000008
20
152.502217
42
-0.23575100000001542
10
51.364021999999999
20
152.522289
42
-0.26001600000000125
10
51.053636000000004
20
153.011211
42
-0.014219999999999944
10
51.000000000000007
20
154.89676799999998
42
-0.099136999999997408
10
51.379428999999995
20
156.79162400000001
42
-0.15232199999998938
10
52.445880000000002
20
158.064008
42
-0.072694999999999052
10
54.673458000000004
20
159.07423199999999
42
-0.010546999999996583
10
59.5
20
160.355819
42
-0.072797999999991439
10
62.528288000000003
20
160.638597
42
-0.029339000000005
10
66.666277000000008
20
160.177841
42
-0.029205999999996287
10
70.939498000000015
20
159.186542
42
-0.044647000000001116
10
74.476530000000011
20
157.79190600000001
42
-0.026516000000002322
10
77.762923999999998
20
155.91968000000003
42
-0.035358000000000098
10
80.514384000000007
20
153.86450099999999
42
-0.038485999999995205
10
82.458299000000011
20
151.90590600000002
42
-0.17802100000001145
10
83
20
150.43267499999999
42
-0.2207980000000056
10
82.388005000000021
20
149.11436699999999
42
-0.1960019999999944
10
80.940410999999997
20
148.64354299999999
42
-0.10306300000000328
10
78.726027999999999
20
149.275609
42
-0.046593000000002847
0
LWPOLYLINE
5
139
100
AcDbEntity
8
0
100
AcDbPolyline
90
16
70
1
43
0.0
10
104.94635900000003
20
159.01906200000002
42
-0.15277199999998853
10
104.798208
20
158.11418600000002
42
-0.018391000000006989
10
103.81301500000001
20
156.32045900000003
42
-0.089429999999992765
10
102.04707200000001
20
154.29650800000002
42
-0.16625600000000335
10
100.02057700000002
20
153.56712899999999
42
-0.16912399999999084
10
97.996952000000022
20
154.235693
42
-0.093079999999996887
10
96.236124000000004
20
156.19931100000002
42
-0.020242000000004281
10
95.316119
20
157.86393000000001
42
-0.12826799999998423
10
95.116807999999992
20
158.80235400000001
42
-0.14509099999998293
10
95.414866000000004
20
159.66121299999998
42
-0.028347000000012387
10
96.454127000000014
20
160.94931100000002
42
-0.053787999999984779
10
98.094513000000006
20
162.41071900000003
42
-0.15168999999997171
10
99.536125999999996
20
162.88718200000002
42
-0.13642700000001998
10
101.093086
20
162.48454599999999
42
-0.040265999999987569
10
103.139216
20
161.070459
42
-0.022445000000002335
10
104.54524599999999
20
159.81191999999999
42
-0.16520399999997995
0
LWPOLYLINE
5
140
100
AcDbEntity
8
0
100
AcDbPolyline
90
28
70
1
43
0.0
10
54.189728000000002
20
142.61974599999999
42
-0.042861999999989374
10
53.036402000000002
20
143.20934
42
-0.022676000000007693
10
52.256655000000009
20
143.746914
42
-0.029543000000009569
10
51.598193000000009
20
144.31060300000001
42
-0.03002400000001345
10
51.122750000000003
20
144.82745500000001
42
-0.17260000000001652
10
51.000000000000007
20
145.17245299999999
42
-0.22638300000000108
10
51.363822999999996
20
145.93482900000004
42
-0.011268000000006492
10
53.618336000000006
20
147.67641899999998
42
-0.018794000000004044
10
56.033510000000007
20
149.32030600000002
42
-0.042413000000006182
10
58.000000000000007
20
150.332269
42
-0.10052199999999444
10
60.840887000000009
20
150.878975
42
-0.030448999999998359
10
65.241181000000012
20
150.56544
42
-0.030696000000002235
10
69.592386999999988
20
149.71333200000001
42
-0.093383000000000063
10
72.305734999999999
20
148.43267800000001
42
-0.05935099999999819
10
74.000663000000003
20
146.867019
42
-0.15618700000000288
10
74.632124000000005
20
145.35915800000001
42
-0.18633799999999962
10
74.222419000000002
20
143.94359800000001
42
-0.089898999999993581
10
72.808536000000004
20
142.64922200000001
42
-0.066338000000013206
10
71.894083999999992
20
142.23038500000001
42
-0.11924700000000936
10
71.074888999999999
20
142.18146399999998
42
-0.10104399999999179
10
70.232202999999998
20
142.51719399999999
42
-0.038777000000008326
10
69.229794999999996
20
143.29203799999999
42
0.12502599999999528
10
66.910871999999998
20
144.51941499999998
42
0.055877000000002473
10
63.461604000000008
20
144.95774800000001
42
0.055253999999997062
10
59.912036000000001
20
144.61725900000002
42
0.10159400000000215
10
57.258908000000005
20
143.46879300000001
42
-0.033639999999986396
10
56.030537000000002
20
142.726181
42
-0.10415800000001298
10
55.101242000000006
20
142.470056
42
-0.11253999999998707
0
LWPOLYLINE
5
141
100
AcDbEntity
8
0
100
AcDbPolyline
90
22
70
1
43
0.0
10
117.22184900000002
20
151.22209300000003
42
-0.068241000000001301
10
120.19363
20
154.50947500000001
42
-0.048714000000001659
10
124.44312099999999
20
157.43017500000002
42
-0.051133999999999603
10
129.11050800000001
20
159.41797600000001
42
-0.051843999999997517
10
134.02347499999999
20
160.397784
42
-0.052866999999994634
10
139
20
160.336164
42
-0.014219999999987248
10
140.85116800000003
20
160.063097
42
-0.01403000000000521
10
142.69218700000005
20
159.684247
42
-0.014033999999995141
10
144.28387699999999
20
159.26240200000001
42
-0.051100000000008181
10
145.25
20
158.86612
42
-0.091934000000011937
10
145.91968899999998
20
158.33040199999999
42
-0.057608999999992208
10
146.48593799999998
20
157.498516
42
-0.055301999999983087
10
146.86990299999999
20
156.51458200000002
42
-0.065485999999990108
10
147
20
155.52551399999999
10
147
20
153.121396
10
142.36397600000001
20
154.70104799999999
42
0.070496000000000961
10
137.76278500000001
20
155.57467800000001
42
0.061442999999999692
10
132.87049099999999
20
155.20285900000002
42
0.059785999999997452
10
128.08932300000004
20
153.628941
42
0.059780999999998259
10
123.81612000000001
20
150.96847399999999
42
-0.063330999999998472
10
119.88318200000002
20
148.55828700000001
42
-0.30860300000000151
10
117.44352600000001
20
148.99054799999999
42
-0.36376000000000874
0
LWPOLYLINE
5
142
100
AcDbEntity
8
0
100
AcDbPolyline
90
24
70
1
43
0.0
10
136.361042
20
144.94242299999999
42
0.058044000000000213
10
133.08989
20
144.55138600000001
42
0.12581500000000287
10
130.86598600000002
20
143.37871899999999
42
-0.10221100000000333
10
129.32559300000003
20
142.47234399999999
42
-0.13472500000000881
10
127.706119
20
142.374572
42
-0.13892400000001198
10
126.29908
20
143.11357699999999
42
-0.11163200000000001
10
125.34585900000002
20
144.54109
42
-0.21642300000001299
10
125.42136900000001
20
145.80095900000001
42
-0.074551000000004461
10
126.52998600000002
20
147.30571399999999
42
-0.056421999999994629
10
128.44721899999999
20
148.83806200000004
42
-0.036107999999998044
10
130.96636100000001
20
150.17971499999999
42
-0.08412499999999383
10
133.51635300000001
20
150.829024
42
-0.036071000000004565
10
137.041741
20
150.86204900000001
42
-0.035860999999993988
10
140.671448
20
150.371129
42
-0.059304000000007122
10
143.59887100000003
20
149.38605900000002
42
-0.03250799999999595
10
145.173945
20
148.509039
42
-0.071558000000007796
10
146.211218
20
147.60673700000001
42
-0.091524000000006059
10
146.79646599999998
20
146.60664800000001
42
-0.086949000000012974
10
147
20
145.445076
42
-0.07560200000000003
10
146.70705100000001
20
143.518699
42
-0.21462800000001089
10
145.82715000000002
20
142.524877
42
-0.19232500000000166
10
144.41647
20
142.463796
42
-0.060901000000006256
10
142.491207
20
143.413804
42
0.089457999999991697
10
139.78198600000002
20
144.56435300000004
42
0.056603999999997739
0
LWPOLYLINE
5
143
100
AcDbEntity
8
0
100
AcDbPolyline
90
16
70
1
43
0.0
10
59.782283999999997
20
134.79141800000002
42
-0.01592599999999738
10
58.816310999999999
20
136.552437
42
-0.11667100000000195
10
58.591655000000003
20
137.480208
42
-0.16089699999999149
10
58.847262000000001
20
138.26790600000004
42
-0.038157999999999449
10
59.758320000000005
20
139.329748
42
-0.075211999999997114
10
61.331525000000006
20
140.48951100000005
42
-0.11343099999999598
10
62.970800000000004
20
140.92422400000001
42
-0.1070230000000028
10
64.704940000000008
20
140.60882599999999
42
-0.061649999999996354
10
66.558869999999999
20
139.556455
42
-0.036752000000009839
10
67.631260999999995
20
138.629279
42
-0.1739180000000079
10
67.971906000000004
20
137.90576299999998
42
-0.13181500000000623
10
67.822179000000006
20
137.01471899999999
42
-0.017869000000003452
10
66.966581999999988
20
135.306455
42
-0.077156999999997283
10
65.272188
20
133.096349
42
-0.17452599999999002
10
63.371710000000007
20
132.25416300000001
42
-0.18847800000000506
10
61.475431000000007
20
132.84286500000002
42
-0.091159000000002405
0
LWPOLYLINE
5
144
100
AcDbEntity
8
0
100
AcDbPolyline
90
32
70
1
43
0.0
10
79.714122000000003
20
141.56633200000002
42
-0.043825000000001689
10
83.934116000000003
20
144.367625
42
-0.056162999999998332
10
91.430180000000007
20
147.415873
42
-0.063849000000000253
10
99.096453000000011
20
148.54700099999999
42
-0.06330600000000125
10
106.85486100000003
20
147.70991500000002
42
-0.05380700000000134
10
114.62257800000002
20
144.94967800000001
42
-0.045834000000004295
10
119.38218000000001
20
142.09311499999998
42
-0.030058999999998733
10
124.30842900000002
20
138.00867099999999
42
-0.023071999999997664
10
128.31872099999998
20
133.89206100000001
42
-0.33132199999999984
10
128.484579
20
131.97504799999999
42
-0.20441199999998422
10
127.33590300000002
20
131.16543799999999
42
-0.151534999999999
10
125.77114600000002
20
131.30679699999999
42
-0.075927000000002506
10
123.66704200000001
20
132.57504199999997
42
-0.022852999999995859
10
120.89916600000001
20
135.10083400000002
42
0.042457000000000238
10
116.31335300000002
20
138.96760600000002
42
0.058663999999997614
10
111.58941900000001
20
141.53896699999999
42
0.057102000000001547
10
106.29817500000001
20
142.987436
42
0.037609000000005152
10
100
20
143.47931299999999
42
0.015028000000001256
10
95.830771999999996
20
143.36548100000002
42
0.037927999999996756
10
92.82414399999999
20
142.962703
42
0.041195000000004312
10
90.060279000000008
20
142.13391100000001
42
0.020697999999998062
10
86.723665000000011
20
140.663567
42
0.024775000000002954
10
84.312465000000003
20
139.32748600000002
42
0.019623999999998663
10
81.844052000000005
20
137.65760900000004
42
0.020029999999998993
10
79.673102
20
135.923216
42
0.045833000000001387
10
78.223664999999997
20
134.41359599999998
42
-0.045275999999998581
10
76.246150999999998
20
132.349378
42
-0.092183000000004761
10
74.318231999999995
20
131.213266
42
-0.14708900000000114
10
72.695292000000009
20
131.121342
42
-0.19795599999999677
10
71.515420999999989
20
131.97504799999999
42
-0.32591799999999471
10
71.645711000000006
20
133.673745
42
-0.01994700000000128
10
75.303454999999985
20
137.62722600000001
42
-0.02768899999999808
0
LWPOLYLINE
5
145
100
AcDbEntity
8
0
100
AcDbPolyline
90
16
70
1
43
0.0
10
141.44803300000001
20
137.54876399999998
42
-0.12406899999999224
10
141.23838700000002
20
136.640885
42
-0.014937999999998501
10
140.23893200000001
20
134.82733300000001
42
-0.089267999999996558
10
138.55152799999999
20
132.87061399999999
42
-0.18372499999999081
10
136.65889799999999
20
132.24823100000003
42
-0.17523099999998867
10
134.76526299999998
20
133.03245000000001
42
-0.080466000000000343
10
133.081784
20
135.154583
42
-0.024088999999995673
10
132.34941899999998
20
136.62578999999999
42
-0.094242000000004378
10
132.123188
20
137.610669
42
-0.12516700000001024
10
132.30455800000001
20
138.45670000000001
42
-0.05819200000001018
10
132.92081100000001
20
139.404583
42
-0.11560299999999933
10
134.41913200000002
20
140.53863000000001
42
-0.10616899999999445
10
136.31367599999999
20
140.93483799999998
42
-0.098231999999992062
10
138.32591500000001
20
140.52438000000001
42
-0.084829000000006094
10
140.14844099999999
20
139.36566299999998
42
-0.034729999999995959
10
141.162846
20
138.31069600000001
42
-0.17073800000001607
0
LWPOLYLINE
5
146
100
AcDbEntity
8
0
100
AcDbPolyline
90
14
70
1
43
0.0
10
55.381470999999998
20
131.80821599999999
42
-0.12925899999997173
10
55.054659000000001
20
131.49751599999999
42
-0.045840999999998765
10
54.458532000000005
20
131.237413
42
-0.041762999999994943
10
53.720576999999999
20
131.05969600000003
42
-0.038229999999991424
10
52.940983000000003
20
131
42
-0.097121000000009811
10
51.968003000000003
20
131.19079299999999
42
-0.18028999999999698
10
51.383986000000007
20
131.72837100000004
42
-0.10065899999999381
10
51.094322000000005
20
132.777502
42
-0.019586000000002411
10
51.035963000000002
20
134.75
10
51.071926000000005
20
138.5
10
53.476451000000012
20
135.55821599999999
42
-0.022133000000009895
10
54.361089000000007
20
134.37249399999999
42
-0.031684000000008462
10
55.027917000000002
20
133.243167
42
-0.032623999999992208
10
55.433840000000004
20
132.29578900000001
42
-0.22707499999998479
0
LWPOLYLINE
5
147
100
AcDbEntity
8
0
100
AcDbPolyline
90
32
70
1
43
0.0
10
102.52353000000001
20
139.28187000000003
42
-0.067898999999999349
10
110
20
137.33743700000002
42
-0.055140000000000258
10
112.82901299999999
20
135.79122500000003
42
-0.023046000000003085
10
116.27606000000002
20
133.13552899999999
42
-0.016658999999999577
10
119.38646599999998
20
130.31906200000003
42
-0.20313600000000662
10
120
20
128.87122099999999
42
-0.20180199999999432
10
119.862015
20
128.543262
42
-0.046182000000016529
10
119.38493100000002
20
128.155891
42
-0.040671999999983957
10
118.70787300000001
20
127.778603
42
-0.029949000000006162
10
117.906148
20
127.47021200000003
42
-0.086369999999991245
10
116.79676200000003
20
127.31950800000001
42
-0.081894999999999718
10
115.67955300000001
20
127.54681500000001
42
-0.064885999999993296
10
114.49029400000001
20
128.18686700000001
42
-0.031705999999999547
10
113.156148
20
129.28063799999998
42
0.035243999999998075
10
110.114575
20
131.738472
42
0.060757999999999111
10
107.24317900000001
20
133.26201499999999
42
0.05951700000000304
10
104.048078
20
134.06956299999999
42
0.032413000000003744
10
100.004322
20
134.32817
42
0.03962100000000051
10
95.902361999999997
20
133.99874299999999
42
0.053101999999998685
10
92.304288
20
133.020577
42
0.057231000000000955
10
89.206994999999992
20
131.38484900000003
42
0.058819999999995133
10
86.592652000000001
20
129.10237900000001
42
-0.04086900000000189
10
85.122611000000006
20
127.723145
42
-0.11832500000000426
10
83.866613999999998
20
127.13752800000002
42
-0.13348599999999333
10
82.575793999999988
20
127.221118
42
-0.058509000000000283
10
81.017564000000007
20
127.967983
42
-0.12782999999999101
10
80.422850999999994
20
128.602947
42
-0.21606699999998641
10
80.370776000000021
20
129.31695300000001
42
-0.089081999999995082
10
80.950997999999998
20
130.30613600000004
42
-0.013007999999998049
10
82.517564000000021
20
132.04194699999999
42
-0.076045999999998462
10
88.330431000000004
20
136.54207199999999
42
-0.079324999999997148
10
95.14080300000002
20
139.01780500000001
42
-0.077455000000000732
0
LWPOLYLINE
5
148
100
AcDbEntity
8
0
100
AcDbPolyline
90
16
70
1
43
0.0
10
145.95880299999999
20
131.15546899999998
42
-0.061345000000018406
10
145.48322199999998
20
131.26400900000002
42
-0.051708999999999436
10
145.01797300000001
20
131.48889199999999
42
-0.10464199999999908
10
144.58775199999999
20
131.89952
42
-0.1719970000000228
10
144.46002300000001
20
132.38061600000003
42
-0.11684799999998691
10
144.65302600000001
20
132.97536200000002
42
-0.036430000000006818
10
145.20144199999999
20
133.744753
42
-0.013835000000002536
10
145.98777900000002
20
134.64175
42
-0.23552099999999548
10
146.34431499999999
20
134.776262
42
-0.30715599999998738
10
146.60362499999999
20
134.55879400000001
42
-0.021049000000003332
10
146.83839699999999
20
133.57745600000001
42
-0.031880999999979051
10
146.92946599999999
20
132.87537800000001
42
-0.036616999999995618
10
146.924092
20
132.199524
42
-0.039616000000006348
10
146.83341399999998
20
131.638845
42
-0.13732000000002229
10
146.65492900000001
20
131.321595
42
-0.1511059999999784
10
146.37288799999999
20
131.17280099999999
42
-0.071962999999985303
0
LWPOLYLINE
5
149
100
AcDbEntity
8
0
100
AcDbPolyline
90
36
70
1
43
0.0
10
81.901211000000004
20
121.82254200000003
42
-0.032893000000001837
10
86.584108000000001
20
118.44897700000001
42
-0.061102999999995834
10
89.800277000000008
20
115.05626999999998
42
-0.0069300000000118859
10
91.542140000000018
20
112.63065700000001
42
-0.13668500000000494
10
91.842810999999998
20
111.77313300000002
42
-0.31704400000002714
10
91.506444999999999
20
111.22264700000001
42
-0.038139999999993027
10
90.084108999999998
20
110.732246
42
-0.12604499999997623
10
89.032219999999995
20
110.72697500000001
42
-0.067465999999999193
10
87.818048000000019
20
111.212613
42
-0.049392000000002184
10
86.427870999999996
20
112.19236100000002
42
-0.023322999999997665
10
84.834109000000012
20
113.70490700000002
42
0.046255000000000261
10
80.430448999999996
20
117.51649999999999
42
0.053804000000001184
10
75.609037000000001
20
120.23562900000002
42
0.053732000000000224
10
70.312853000000004
20
121.86604
42
0.045930999999999528
10
64.5
20
122.44622100000001
42
0.010750999999995464
10
61.58163900000001
20
122.40589200000002
42
0.010052999999994013
10
58.601562000000001
20
122.24055000000001
42
0.010080000000009101
10
55.962531999999996
20
121.987246
42
0.033520999999997934
10
54.250000000000007
20
121.67054499999999
42
-0.015259999999995182
10
52.275686000000007
20
121.23036499999999
42
-0.16957799999999154
10
51.488793000000008
20
121.346968
42
-0.24337100000001916
10
51.097689000000003
20
121.90623500000001
42
-0.033214000000002443
10
51.000000000000007
20
123.37523200000001
42
-0.060938000000001075
10
51.16630700000001
20
124.73471799999999
42
-0.15802399999999533
10
51.681823000000009
20
125.56265600000002
42
-0.1113290000000005
10
52.718899999999998
20
126.10083899999999
42
-0.022809000000002518
10
54.750000000000007
20
126.53658
42
0.0040570000000061139
10
56.259048000000007
20
126.801579
42
0.0046899999999953706
10
57.692188000000009
20
127.07917299999998
42
0.0042089999999732819
10
58.901121000000003
20
127.33574099999998
42
0.027367999999987937
10
59.5
20
127.50294600000001
42
-0.071910000000008675
10
61.523821999999996
20
127.87835800000002
42
-0.031425999999998358
10
64.259822
20
127.81544199999999
42
-0.026083999999996492
10
67.604631000000012
20
127.35097500000003
42
-0.015402000000008713
10
71.539901
20
126.4671
42
-0.044450999999997368
10
76.618639000000002
20
124.66723700000003
42
-0.032285999999998857
0
LWPOLYLINE
5
150
100
AcDbEntity
8
0
100
AcDbPolyline
90
28
70
1
43
0.0
10
111.52504
20
123.21282500000001
42
-0.031589000000001283
10
110.66326599999999
20
122.23469499999999
42
-0.039169000000002042
10
109.60470900000003
20
121.33015900000002
42
-0.1613249999999781
10
108.81236399999999
20
121.077303
42
-0.11541700000001001
10
107.87523400000001
20
121.30743100000002
42
-0.015738000000000342
10
106.09487700000001
20
122.28488300000002
42
0.068226000000006698
10
103.18001500000001
20
123.508078
42
0.065363000000002752
10
100
20
123.925573
42
0.065363000000002863
10
96.819985000000003
20
123.508078
42
0.068226000000001716
10
93.905123000000003
20
122.28488300000002
42
-0.015738000000006525
10
92.124766000000008
20
121.30743100000002
42
-0.11541700000001033
10
91.187635999999998
20
121.077303
42
-0.16132499999999658
10
90.395291000000014
20
121.33015900000002
42
-0.039169000000001508
10
89.336734000000007
20
122.234695
42
-0.031582000000009332
10
88.475078000000011
20
123.21266299999999
42
-0.14721699999999682
10
88.208596
20
123.90633400000002
42
-0.15617999999997009
10
88.377022000000011
20
124.60851699999999
42
-0.036880000000017329
10
89.085516000000013
20
125.60304000000001
42
-0.1066169999999985
10
92.28365500000001
20
128.11417
42
-0.069503999999998498
10
96.764003000000002
20
129.57124299999998
42
-0.066269999999999774
10
101.71122
20
129.785561
42
-0.076871000000003561
10
106.28211899999999
20
128.65490400000002
42
-0.02547800000000738
10
107.617805
20
128.01483000000002
42
-0.021130000000009676
10
108.97013799999999
20
127.20405900000003
42
-0.021644999999988451
10
110.147547
20
126.353477
42
-0.052429000000007907
10
110.914097
20
125.604716
42
-0.036823999999997609
10
111.62298500000003
20
124.60914199999999
42
-0.15610899999998118
10
111.79150100000001
20
123.90662399999999
42
-0.14724900000001803
0
LWPOLYLINE
5
151
100
AcDbEntity
8
0
100
AcDbPolyline
90
28
70
1
43
0.0
10
116.64449900000001
20
115.02717800000001
42
-0.017266999999999002
10
114.44836500000001
20
113.18277900000001
42
-0.027737999999996276
10
112.44236399999998
20
111.78500800000002
42
-0.030044000000000536
10
110.76400800000002
20
110.88323100000002
42
-0.16257199999999211
10
109.75000000000001
20
110.770577
42
-0.061106999999992494
10
108.476642
20
111.21206299999999
42
-0.33350800000001884
10
108.16584200000001
20
111.82213600000003
42
-0.11341799999999827
10
108.59249500000001
20
112.83547400000002
42
-0.0068059999999925029
10
110.576734
20
115.51171699999999
42
-0.07662800000000286
10
115.85588999999999
20
120.59233400000002
42
-0.052588999999999803
10
123.12989899999999
20
124.643914
42
-0.05225499999999858
10
131.15266599999998
20
127.114221
42
-0.072244999999998713
10
138.664918
20
127.49048200000001
42
-0.0079539999999915772
10
140.75853600000002
20
127.25903300000002
42
-0.0087460000000029615
10
142.77826000000002
20
126.96719
42
-0.0082590000000102408
10
144.493314
20
126.65950600000002
42
-0.043120999999989792
10
145.414918
20
126.39427499999999
42
-0.093765999999985208
10
146.02092999999999
20
126.01989099999999
42
-0.066808999999997051
10
146.53438199999999
20
125.40657400000001
42
-0.064820000000001349
10
146.88151399999998
20
124.65782900000001
42
-0.076312999999976011
10
147
20
123.88602900000002
42
-0.14745500000000233
10
146.69963700000005
20
122.88968
42
-0.20370700000002273
10
145.92934700000001
20
122.381388
42
-0.062840000000001575
10
144.26425600000002
20
122.28829300000001
42
-0.0057529999999993593
10
140.124
20
122.62509299999999
42
0.043558000000002588
10
133.39257400000002
20
122.66287800000001
42
0.057943999999997851
10
127.39711000000001
20
121.464972
42
0.05872000000000098
10
121.89734399999999
20
118.94088300000001
42
0.046414999999997229
0
LWPOLYLINE
5
152
100
AcDbEntity
8
0
100
AcDbPolyline
90
16
70
1
43
0.0
10
103.41330900000001
20
118.095792
42
-0.034332000000001868
10
104.28331300000002
20
116.990692
42
-0.12439700000002103
10
104.58837800000001
20
116.15694500000001
42
-0.12843499999998589
10
104.455946
20
115.29373000000001
42
-0.037654000000000569
10
103.82775000000001
20
114.09579199999999
42
-0.12870399999999621
10
102.30181200000001
20
112.65545300000001
42
-0.11400999999999047
10
100.193753
20
112.064058
42
-0.11410500000000073
10
98.041329000000005
20
112.45741600000001
42
-0.1290870000000113
10
96.392045999999993
20
113.75
42
-0.028453000000007486
10
95.374693999999991
20
115.26153500000001
42
-0.14445400000000627
10
95.127612999999997
20
116.23486100000001
42
-0.15418599999999652
10
95.456307999999993
20
117.15155600000001
42
-0.033799999999993363
10
96.571429000000023
20
118.42857100000001
42
-0.088859999999998232
10
98.22168400000001
20
119.57741100000001
42
-0.12044999999999509
10
99.998143999999996
20
119.921167
42
-0.11690000000001266
10
101.77222399999999
20
119.408441
42
-0.08045899999999917
0
LWPOLYLINE
5
153
100
AcDbEntity
8
0
100
AcDbPolyline
90
28
70
1
43
0.0
10
79.083788999999996
20
112.88700300000002
42
-0.013473000000000554
10
80.724858000000012
20
111.681101
42
-0.043669999999994616
10
81.714733999999993
20
110.762721
42
-0.018193999999997591
10
82.751494999999991
20
109.529785
42
-0.17998099999999029
10
82.952434000000011
20
108.89517499999999
42
-0.20156699999999667
10
82.677460000000011
20
108.321994
42
-0.023584000000010322
10
81.548732999999999
20
107.411976
42
-0.039568999999996808
10
80.413899000000001
20
106.71264700000002
42
-0.1489249999999987
10
79.600544999999997
20
106.56674199999999
42
-0.1292259999999944
10
78.776771999999994
20
106.89119500000001
42
-0.026811999999995877
10
77.562009000000003
20
107.885322
42
0.076015000000000041
10
72.557465000000008
20
111.219605
42
0.066969000000001291
10
66.564312000000001
20
113.08821399999999
42
0.068768999999996791
10
60.451391000000001
20
113.27886700000001
42
0.089922999999997061
10
55.096361999999999
20
111.70702500000002
42
-0.0049939999999929589
10
52.160517000000006
20
110.27113100000001
42
-0.18541399999999958
10
51.431955000000016
20
110.21401900000001
42
-0.31713999999999026
10
51.060361
20
110.68483900000001
42
-0.013484999999993494
10
51.000000000000007
20
112.922448
42
-0.10060399999999582
10
51.381733000000011
20
114.80044900000001
42
-0.1513829999999956
10
52.452238999999999
20
116.067403
42
-0.072139000000004422
10
54.684597000000004
20
117.07700800000001
42
-0.010563999999993337
10
59.5
20
118.35581900000001
42
-0.074218999999995178
10
62.749465999999998
20
118.64998500000002
42
-0.034047999999998489
10
66.980035999999998
20
118.11429199999999
42
-0.033105999999998907
10
71.384760999999997
20
116.94154600000002
42
-0.042460000000000456
10
75.228009999999998
20
115.26534900000001
42
-0.014295999999999361
10
77.167102
20
114.14288700000002
42
-0.013363999999996285
0
LWPOLYLINE
5
154
100
AcDbEntity
8
0
100
AcDbPolyline
90
28
70
1
43
0.0
10
146.86990500000002
20
114.53753700000001
42
-0.066430999999978577
10
147
20
113.56268400000002
42
-0.045690999999992973
10
146.87062900000001
20
112.14992600000002
42
-0.30855900000001713
10
146.40129299999998
20
111.67665
42
-0.11663499999999737
10
145.41745600000002
20
111.71723
42
-0.0056370000000053383
10
142.25
20
112.64424900000002
42
0.067307999999997634
10
137.095415
20
113.48444000000001
42
0.065820000000000586
10
131.861738
20
112.93664700000001
42
0.064714999999997053
10
126.872916
20
111.03037900000002
42
0.061381000000001372
10
122.43799100000001
20
107.885322
42
-0.02704099999999135
10
121.229449
20
106.89721000000003
42
-0.12767799999999885
10
120.40395400000001
20
106.57004700000002
42
-0.14866199999999738
10
119.59206100000003
20
106.71092900000002
42
-0.041123000000001589
10
118.47573799999999
20
107.39408200000001
42
-0.030583999999989321
10
117.48067500000002
20
108.21956800000001
42
-0.16375999999998117
10
117.151993
20
108.83210700000001
42
-0.17903400000000336
10
117.27550200000002
20
109.48678899999999
42
-0.038004999999996791
10
117.95802500000001
20
110.44942300000001
42
-0.070849999999999969
10
120.079651
20
112.37350500000002
42
-0.019195999999995862
10
123.938613
20
114.77548400000003
42
-0.02008499999999987
10
128.08043999999998
20
116.92232500000001
42
-0.048319000000002596
10
131.33198200000004
20
118.077927
42
-0.057361999999994424
10
134.46281000000002
20
118.48825300000001
42
-0.025647000000000371
10
138.62088799999998
20
118.34030900000002
42
-0.025134999999996323
10
142.64806000000002
20
117.78466200000003
42
-0.076144000000003875
10
145.25
20
116.86612
42
-0.090731999999987642
10
145.91965300000001
20
116.33304199999999
42
-0.057647000000008788
10
146.48593799999998
20
115.50943500000002
42
-0.055514999999988927
0
LWPOLYLINE
5
155
100
AcDbEntity
8
0
100
AcDbPolyline
90
20
70
1
43
0.0
10
54.284396999999998
20
100.43564599999999
42
-0.040902999999991474
10
53.303279000000003
20
101.26815000000001
42
-0.36533499999999647
10
53.015281000000023
20
104.653901
42
-0.14906100000000164
10
56.946828000000011
20
107.69996499999999
42
-0.088111000000000966
10
63.813335999999993
20
109.002431
42
-0.12284700000000112
10
69.872493000000006
20
107.56593700000002
42
-0.028654999999999254
10
72.715691000000007
20
105.88266000000003
42
-0.12359099999999899
10
74.019936999999999
20
104.434106
42
-0.22159799999998386
10
74.091490000000007
20
103.03065600000002
42
-0.11298300000000315
10
73.057689000000011
20
101.55220800000001
42
-0.028392000000007047
10
71.862044999999995
20
100.587715
42
-0.1475740000000211
10
71.068772999999993
20
100.31689
42
-0.13862500000000677
10
70.231423000000007
20
100.52138800000002
42
-0.0240009999999935
10
68.83871400000001
20
101.40041600000002
42
0.09079500000000526
10
66.321229000000002
20
102.554739
42
0.063488000000003264
10
63.215046999999998
20
102.93564400000001
42
0.062583000000004316
10
60.062042000000005
20
102.524102
42
0.081491000000004296
10
57.40483900000001
20
101.345691
42
-0.019060999999999741
10
55.889756999999996
20
100.43354300000001
42
-0.1218229999999806
10
55.030356999999995
20
100.20367700000001
42
-0.16157999999998524
0
LWPOLYLINE
5
156
100
AcDbEntity
8
0
100
AcDbPolyline
90
32
70
1
43
0.0
10
100
20
102.410352
42
0.041587000000001303
10
93.691716
20
101.91820300000002
42
0.058249999999997519
10
88.260200999999995
20
100.37189499999999
42
0.058352000000003533
10
83.338712999999984
20
97.617118999999974
42
0.041918999999996619
10
78.559199000000007
20
93.503551000000002
42
-0.039442000000000962
10
75.816156000000007
20
91.118981999999988
42
-0.087487000000005352
10
73.344774000000001
20
89.887674000000004
42
-0.19714599999999324
10
71.727737000000005
20
90.052533999999994
42
-0.27673000000001402
10
71
20
91.266727000000003
42
-0.20358299999999763
10
72.003596999999985
20
93.62940900000001
42
-0.016904999999994553
10
77.063518999999985
20
98.190883000000014
42
-0.023153000000001953
10
82.638254000000003
20
102.45998399999999
42
-0.060217000000001547
10
87.098106000000001
20
104.82134600000001
42
-0.051766999999998967
10
93.079836999999998
20
106.43321700000001
42
-0.039721000000002206
10
99.830662000000018
20
106.97696200000003
42
-0.039586999999999505
10
106.61084099999999
20
106.44592900000001
42
-0.050223999999999554
10
112.681495
20
104.84621000000001
42
-0.029820999999998436
10
115.572543
20
103.56329600000001
42
-0.028886000000001858
10
118.32259300000001
20
101.93337100000001
42
-0.027214000000001959
10
121.011202
20
99.901350000000008
42
-0.020950000000000871
10
123.71900800000003
20
97.411427000000003
42
-0.0089550000000022788
10
127.39910900000001
20
93.597082999999998
42
-0.084082000000001891
10
128.64717999999999
20
91.699611000000004
42
-0.2999179999999721
10
128.450289
20
90.543785999999997
42
-0.1418209999999844
10
127.092569
20
89.734457999999989
42
-0.14353900000000891
10
125.98010799999999
20
89.767121000000003
42
-0.060943000000010752
10
124.61523999999999
20
90.403379000000001
42
-0.042185000000007147
10
122.956068
20
91.644576999999998
42
-0.017046000000001279
10
120.90669399999999
20
93.595072000000016
42
0.038873999999998646
10
116.18012100000001
20
97.716096999999991
42
0.060154000000000478
10
111.483267
20
100.40029200000001
42
0.06002199999999705
10
106.27482800000001
20
101.89309000000002
42
0.038508999999999287
0
LWPOLYLINE
5
157
100
AcDbEntity
8
0
100
AcDbPolyline
90
24
70
1
43
0.0
10
142.62052600000001
20
101.329071
42
0.08644900000000072
10
139.86339600000002
20
102.51944800000001
42
0.056642000000004342
10
136.42002099999999
20
102.94141600000002
42
0.058373000000004602
10
133.14292
20
102.586642
42
0.12847799999999512
10
130.924533
20
101.43170300000001
42
-0.039778999999984549
10
129.91932399999999
20
100.65790200000002
42
-0.12790799999999389
10
129.12482499999999
20
100.392764
42
-0.12223900000001776
10
128.28034499999998
20
100.542607
42
-0.034856000000001594
10
127.095792
20
101.17225000000002
42
-0.068983000000001543
10
125.48542400000001
20
102.51765500000002
42
-0.26096199999997866
10
125.20112400000001
20
103.75121200000001
42
-0.1622769999999967
10
126.11986399999999
20
105.07763500000003
42
-0.026598999999998839
10
128.75
20
106.83899600000001
42
-0.083271999999999763
10
132.64116100000001
20
108.35155900000002
42
-0.05620799999999964
10
137.39370099999999
20
108.79139000000001
42
-0.057956000000004088
10
141.89445499999999
20
108.17641999999999
42
-0.12158999999999778
10
144.98450299999999
20
106.51402500000002
42
-0.043027000000000655
10
146.301413
20
105.09823900000001
42
-0.11705400000000674
10
146.86875499999999
20
103.861778
42
-0.13089100000001028
10
146.788284
20
102.58952499999999
42
-0.060274999999993917
10
146.07003
20
101.079071
42
-0.078616999999993539
10
145.48320000000001
20
100.41159300000002
42
-0.19362799999998781
10
144.87285199999999
20
100.21596500000001
42
-0.10964200000000121
10
144.05337499999999
20
100.46118499999999
42
-0.017719000000004519
0
LWPOLYLINE
5
158
100
AcDbEntity
8
0
100
AcDbPolyline
90
12
70
1
43
0.0
10
66.382816000000005
20
97.709346000000011
42
-0.051366000000007746
10
67.273178000000001
20
96.906085000000019
42
-0.15171200000001595
10
67.614998
20
96.166649000000007
42
-0.1161189999999989
10
67.522528000000008
20
95.238660999999993
42
-0.024255999999999799
10
66.913430000000005
20
93.709345999999996
42
-0.11379700000000219
10
65.395002000000019
20
91.729042000000021
42
-0.16556399999999902
10
63.35403800000001
20
90.956431000000023
42
-0.17239500000000571
10
61.326853999999997
20
91.600669000000011
42
-0.12416499999999665
10
59.831539000000006
20
93.470386000000019
42
-0.14833000000000193
10
59.455163000000006
20
96.283297000000005
42
-0.21183699999999869
10
60.814343999999984
20
98.362376000000012
42
-0.18461800000000039
10
63.458940000000013
20
98.923757000000009
42
-0.11941700000000416
0
LWPOLYLINE
5
159
100
AcDbEntity
8
0
100
AcDbPolyline
90
24
70
1
43
0.0
10
83.831718000000009
20
86.335543999999999
42
-0.22499899999999712
10
81.092428000000012
20
86.195608000000007
42
-0.42684800000000001
10
80.414633999999992
20
87.931060000000002
42
-0.082549999999999166
10
82.537835999999999
20
91.03949200000001
42
-0.085899000000001891
10
88.226153000000011
20
95.234482999999997
42
-0.072178000000000478
10
95.345243000000011
20
97.593314000000007
42
-0.071195000000002576
10
102.93690699999999
20
97.849238000000014
42
-0.079319999999998517
10
110
20
95.919087000000019
42
-0.035956000000000113
10
113.28911599999999
20
94.135243000000003
42
-0.027074000000002187
10
116.63135
20
91.734192000000007
42
-0.021972000000006042
10
119.391268
20
89.308481
42
-0.20422499999999666
10
120
20
87.880296000000001
42
-0.19439000000003456
10
119.86685000000001
20
87.550756000000007
42
-0.049147000000028314
10
119.41781
20
87.168992000000003
42
-0.042766999999998175
10
118.77686000000003
20
86.801242000000002
42
-0.032033000000007583
10
118.01807700000001
20
86.505737000000011
42
-0.11530000000000919
10
116.88811100000002
20
86.417710999999997
42
-0.063973000000002722
10
115.55222100000002
20
86.801292000000018
42
-0.046521999999998488
10
113.96347500000002
20
87.669978
42
-0.020904000000002899
10
112.04715300000002
20
89.082348999999994
42
0.094016999999998546
10
106.40620900000002
20
92.087266999999997
42
0.076992999999998285
10
99.637908999999993
20
93.098409000000004
42
0.077989000000001779
10
92.964418000000023
20
92.014267000000004
42
0.10130000000000224
10
87.596603999999999
20
88.950676000000016
42
-0.056777000000005455
0
LWPOLYLINE
5
160
100
AcDbEntity
8
0
100
AcDbPolyline
90
12
70
1
43
0.0
10
146.888136
20
91.230589000000009
42
-0.088919999999985691
10
146.5625
20
90.583332999999996
42
-0.10213999999998381
10
146.07575400000002
20
90.15320899999999
42
-0.13077500000000961
10
145.5
20
90
42
-0.10256200000001353
10
144.483981
20
90.210624999999993
42
-0.2701059999999697
10
144.05947599999999
20
90.787548000000001
42
-0.17567200000001018
10
144.27795700000001
20
91.676264000000018
42
-0.049175999999991983
10
145.19999999999999
20
92.799999999999997
42
-0.015012000000000461
10
146.27551599999998
20
93.812801000000007
42
-0.2939469999999757
10
146.70516999999998
20
93.879304000000005
42
-0.28113199999998423
10
146.95733200000001
20
93.514220999999992
42
-0.014086000000004015
10
147
20
92.000000000000014
42
-0.072313999999979534
0
LWPOLYLINE
5
161
100
AcDbEntity
8
0
100
AcDbPolyline
90
16
70
1
43
0.0
10
140.793531
20
95.749281000000011
42
-0.092595000000004604
10
140.60561899999999
20
94.804325000000006
42
-0.027616000000004987
10
139.98175600000002
20
93.465911000000006
42
-0.11054499999999659
10
138.43195600000001
20
91.668628000000012
42
-0.16603600000000868
10
136.47762800000004
20
91.042733999999996
42
-0.16216899999999471
10
134.51438100000001
20
91.738685000000004
42
-0.10467800000000495
10
132.94620399999999
20
93.600518000000008
42
-0.022565000000004352
10
132.21323600000002
20
95.132420999999994
42
-0.13352399999999381
10
132.094122
20
96.004958999999999
42
-0.16464600000001092
10
132.446022
20
96.722119000000006
42
-0.039243000000005086
10
133.46835400000001
20
97.600518000000008
42
-0.064033000000004767
10
135.310261
20
98.615094999999997
42
-0.099350999999994458
10
137.090508
20
98.934515000000005
42
-0.11293800000000344
10
138.692802
20
98.533156999999989
42
-0.10228199999999313
10
140.028291
20
97.46591100000002
42
-0.05924099999999493
10
140.60810900000001
20
96.569979000000004
42
-0.117453000000017
0
LWPOLYLINE
5
162
100
AcDbEntity
8
0
100
AcDbPolyline
90
14
70
1
43
0.0
10
51.043816
20
92.503600000000006
42
-0.014437000000003336
10
51.004967000000008
20
93.916667000000004
10
51.009934000000001
20
97.5
10
53.469004000000012
20
94.500000000000014
42
-0.0089360000000004627
10
54.413568000000019
20
93.304710999999983
42
-0.01228699999999912
10
55.216285999999997
20
92.195198000000005
42
-0.0090259999999905676
10
55.840911000000006
20
91.249451000000022
42
-0.12792100000000209
10
55.964036999999998
20
90.866631000000012
42
-0.31552399999998659
10
55.585392999999996
20
90.255314999999996
42
-0.040570999999996943
10
54.041152000000004
20
89.736932999999993
42
-0.040860000000003428
10
52.390480000000004
20
89.468692000000004
42
-0.21963799999999456
10
51.557905000000005
20
89.775429000000017
42
-0.14748599999997228
10
51.339861999999997
20
90.181729000000018
42
-0.016736999999996512
10
51.165343999999997
20
91.222053000000017
42
-0.019096999999988866
0
LWPOLYLINE
5
163
100
AcDbEntity
8
0
100
AcDbPolyline
90
24
70
1
43
0.0
10
92.109810999999993
20
79.799068000000005
42
-0.15609299999999512
10
91.345647999999997
20
79.560608000000002
42
-0.18780200000000194
10
90.651995999999997
20
79.836445999999995
42
-0.021369999999998019
10
89.445748999999992
20
81.059946000000011
42
-0.023709000000007512
10
88.492272
20
82.219559000000032
42
-0.13333600000000359
10
88.200618999999989
20
82.959119000000001
42
-0.17781400000001032
10
88.365868999999989
20
83.630245000000002
42
-0.049911999999989978
10
89.066842000000008
20
84.474195000000009
42
-0.078336000000001238
10
92.969689999999986
20
87.269843000000009
42
-0.081256000000001785
10
97.494927000000018
20
88.684950000000015
42
-0.080131999999998996
10
102.289288
20
88.593851000000001
42
-0.073337000000000652
10
106.97198900000001
20
87.014290000000017
42
-0.020632000000002759
10
110.083803
20
85.261387000000013
42
-0.12176799999999446
10
111.38211000000001
20
83.933658999999992
42
-0.22919599999998669
10
111.490443
20
82.603154000000018
42
-0.091806000000004578
10
110.50657200000001
20
81.007261999999997
42
-0.0327579999999974
10
109.392415
20
79.927458999999999
42
-0.18105899999999397
10
108.62022400000001
20
79.649073000000001
42
-0.12257799999999201
10
107.69114600000002
20
79.892415999999997
42
-0.011864999999985439
10
105.65861100000001
20
81.066537000000011
42
0.063852999999996898
10
102.566754
20
82.447391000000025
42
0.074051999999998883
10
99.380082999999999
20
82.911631
42
0.078854999999996789
10
96.363928000000016
20
82.423166000000009
42
0.087365000000005716
10
93.763766000000004
20
81.028818000000001
42
-0.013587999999999991
0
LWPOLYLINE
5
164
100
AcDbEntity
8
0
100
AcDbPolyline
90
22
70
1
43
0.0
10
85.901100000000014
20
77.240073999999993
42
-0.018460999999998402
10
90.959590000000006
20
72.713973999999993
42
-0.20374299999999865
10
92.000000000000014
20
70.266727000000003
42
-0.28477900000000145
10
91.256559999999993
20
69.067289000000017
42
-0.19589099999999859
10
89.615831999999997
20
68.945363
42
-0.084056999999999715
10
87.081165999999996
20
70.266311000000016
42
-0.036548999999999957
10
84.219573999999994
20
72.78225900000001
42
0.063212000000002017
10
78.137176000000011
20
77.581500000000005
42
0.066817999999999489
10
71.158496999999997
20
80.600778000000005
42
0.067522000000000248
10
63.696546999999995
20
81.652715999999998
42
0.066824000000001049
10
56.196370999999999
20
80.685610000000011
10
50.892741000000008
20
79.265151000000003
10
51.196370999999999
20
81.843029000000001
42
-0.14879800000000021
10
52.041454999999999
20
83.773283000000006
42
-0.13507899999999004
10
53.848835000000008
20
84.994360000000015
42
-0.064830999999998501
10
57.167390000000005
20
85.65378299999999
42
-0.012956000000001888
10
63.21248700000001
20
85.900319999999965
42
-0.020084999999997792
10
66.555429000000004
20
85.815674000000001
42
-0.024190999999997281
10
69.677463000000003
20
85.458676000000011
42
-0.024926999999996285
10
72.668433999999991
20
84.814695000000015
42
-0.024031999999998669
10
75.617968000000005
20
83.869978000000017
42
-0.059221999999996694
10
80.254638999999997
20
81.477670000000003
42
-0.024594000000001868
0
LWPOLYLINE
5
165
100
AcDbEntity
8
0
100
AcDbPolyline
90
28
70
1
43
0.0
10
145.83254199999999
20
80.361981999999998
42
-0.021820000000000974
10
144.25
20
80.730947999999998
42
0.038123000000002578
10
142.78726599999999
20
81.022102000000004
42
0.011069000000005944
10
140.49727300000001
20
81.247551000000016
42
0.011057999999994789
10
137.897899
20
81.387742000000003
42
0.011605999999995504
10
135.33646000000002
20
81.409651000000011
42
0.054352000000002475
10
129.65691100000001
20
80.70605900000001
42
0.047987999999998414
10
124.00678400000002
20
78.784924000000004
42
0.048486000000001597
10
118.88580800000001
20
75.849096000000003
42
0.058594000000000153
10
114.77575300000001
20
72.137482999999989
42
-0.048995000000000052
10
112.424008
20
69.930544999999995
42
-0.104084999999996
10
110.185051
20
68.853673000000001
42
-0.22054799999998945
10
108.675296
20
69.149135000000001
42
-0.24031999999999845
10
108
20
70.472982000000002
42
-0.2066279999999964
10
108.99913300000001
20
72.787468999999987
42
-0.016529999999999007
10
114.10506900000001
20
77.290150000000011
42
-0.022963000000001371
10
119.727137
20
81.508639000000016
42
-0.057777999999998775
10
124.25696200000003
20
83.880605000000003
42
-0.048907999999997134
10
128.78705300000001
20
85.130481000000032
42
-0.024738000000000007
10
134.669128
20
85.851693999999995
42
-0.024620000000001627
10
140.48721699999999
20
85.987314999999995
42
-0.059047000000002695
10
144.75
20
85.369714000000002
42
-0.066144999999986367
10
145.751845
20
84.953283999999996
42
-0.10087099999998793
10
146.453114
20
84.329364000000012
42
-0.099083999999983241
10
146.86218700000001
20
83.471850000000018
42
-0.061976999999998304
10
147
20
82.364317
42
-0.035062999999999275
10
146.906487
20
81.032461999999995
42
-0.22746599999998476
10
146.543859
20
80.487945999999994
42
-0.18232700000002675
0
LWPOLYLINE
5
166
100
AcDbEntity
8
0
100
AcDbPolyline
90
16
70
1
43
0.0
10
99.990807000000004
20
78.872327999999996
42
-0.14675900000000855
10
101.16533500000001
20
78.53015000000002
42
-0.026439999999994118
10
103.02876300000001
20
77.177792000000011
42
-0.022665999999992935
10
104.37258
20
75.984874000000019
42
-0.1741700000000079
10
104.736773
20
75.239726000000005
42
-0.15638099999999708
10
104.56434600000001
20
74.391385
42
-0.017318999999998485
10
103.524537
20
72.677792000000011
42
-0.080240000000001602
10
101.78648500000001
20
70.774984000000003
42
-0.16747200000000192
10
99.916623000000016
20
70.116447999999991
42
-0.16907300000000028
10
98.050743000000011
20
70.751856000000004
42
-0.082071999999995801
10
96.323426000000012
20
72.629142000000002
42
-0.018791999999995482
10
95.313886999999994
20
74.303949000000003
42
-0.1600339999999941
10
95.152500000000003
20
75.154545999999996
42
-0.16986399999999799
10
95.532620999999992
20
75.909607999999992
42
-0.021811999999990499
10
96.911156999999989
20
77.129142000000002
42
-0.025144999999998287
10
98.810139000000007
20
78.514818999999989
42
-0.14401999999999854
0
LWPOLYLINE
5
167
100
AcDbEntity
8
0
100
AcDbPolyline
90
24
70
1
43
0.0
10
51.075179000000013
20
69.643163000000001
42
-0.019722999999994658
10
51.000000000000007
20
71.548273999999992
42
-0.069254999999997471
10
51.179856000000008
20
72.840551000000005
42
-0.10300099999999542
10
51.707426000000005
20
73.849343000000005
42
-0.084421999999999872
10
52.682341000000008
20
74.696194999999989
42
-0.034204999999996974
10
54.250000000000007
20
75.509131999999994
42
-0.06437100000000133
10
57.743977000000008
20
76.519304000000005
42
-0.033661999999998735
10
62.264051000000009
20
76.907081000000005
42
-0.032941000000000574
10
67.004905000000008
20
76.681357999999989
42
-0.044445000000001754
10
71.209102000000001
20
75.819206000000008
42
-0.067267999999997885
10
74.954592000000005
20
74.12212199999999
42
-0.035462999999998072
10
79.08601800000001
20
71.105674000000008
42
-0.030008000000003959
10
82.444411000000017
20
67.903757999999996
42
-0.33773400000000242
10
82.613275999999999
20
66.183284
42
-0.1520099999999992
10
81.568286999999998
20
65.275023000000004
42
-0.14365499999998785
10
80.166991000000024
20
65.094038999999995
42
-0.10150800000000296
10
78.495615000000001
20
65.721695999999994
42
-0.050765999999995613
10
76.708186999999995
20
67.117556000000008
42
0.086145999999999737
10
72.318595999999999
20
70.073068000000021
42
0.066016000000001088
10
66.764557999999994
20
71.723647000000014
42
0.064490999999999174
10
60.835339000000005
20
71.891066000000009
42
0.073934999999999959
10
55.345756999999992
20
70.5
42
-0.0046209999999947352
10
52.252679999999998
20
69.241077000000004
42
-0.15471499999999905
10
51.465636000000003
20
69.185656999999992
42
-0.32452699999998935
0
LWPOLYLINE
5
168
100
AcDbEntity
8
0
100
AcDbPolyline
90
32
70
1
43
0.0
10
146.85152299999999
20
73.709981999999997
42
-0.05905999999999105
10
147
20
72.457363000000015
42
-0.025775999999989328
10
146.92608799999999
20
71.024585999999999
42
-0.20267199999999497
10
146.611831
20
70.453434999999999
42
-0.22566699999996767
10
146.00656100000003
20
70.315563999999995
42
-0.032142000000004133
10
144.75
20
70.682612000000006
42
0.052890999999991244
10
143.47005100000001
20
70.999606000000014
42
0.011431000000008991
10
141.20141000000001
20
71.259892000000008
42
0.011805000000004277
10
138.548137
20
71.439964000000018
42
0.011038999999999756
10
135.82926899999998
20
71.5
42
0.015523000000003893
10
131.95612800000001
20
71.379722000000001
42
0.054667000000005177
10
129.50404800000001
20
70.955485999999993
42
0.060913000000002875
10
127.34149099999999
20
70.035518000000025
42
0.022586000000003964
10
124.550032
20
68.25
42
-0.0086429999999985043
10
122.71832400000001
20
67.005086999999989
42
-0.01188800000000589
10
121.02745
20
65.954688000000004
42
-0.0086589999999975784
10
119.59225600000002
20
65.142864000000003
42
-0.12501099999999013
10
119.029781
20
65
42
-0.15542600000000839
10
118.15021999999999
20
65.280181999999996
42
-0.1360149999999973
10
117.53858600000001
20
66.030906000000016
42
-0.11186299999999745
10
117.32822300000001
20
67.121863000000005
42
-0.083717999999999765
10
117.57140800000002
20
68.325491
42
-0.1285949999999994
10
118.796998
20
70.034278999999998
42
-0.022043000000002096
10
122.00725900000002
20
72.468331000000006
42
-0.025121000000000667
10
125.611507
20
74.700112000000018
42
-0.053332000000000192
10
128.63364099999998
20
75.969412000000005
42
-0.049541000000003881
10
132.16324600000002
20
76.655777999999998
42
-0.02239300000000042
10
136.875685
20
76.883477999999997
42
-0.021754999999999063
10
141.46352099999999
20
76.699864000000005
42
-0.070069000000000076
10
144.4349
20
76.024750999999995
42
-0.052358000000006955
10
145.62070900000003
20
75.425466
42
-0.093985000000003996
10
146.40854899999999
20
74.676686000000004
42
-0.097160999999999956
0
LWPOLYLINE
5
169
100
AcDbEntity
8
0
100
AcDbPolyline
90
32
70
1
43
0.0
10
59.948723000000008
20
67.569771000000003
42
-0.077013999999995905
10
62.125
20
67.960858000000002
42
-0.026996000000007552
10
62.950313000000008
20
67.936176000000017
42
-0.0091100000000053707
10
64.147630000000007
20
67.813507000000016
42
-0.0090319999999985742
10
65.469068000000007
20
67.629469999999998
42
-0.010237999999994795
10
66.728633000000002
20
67.404273000000003
42
-0.043003999999993409
10
68.077454000000003
20
67.011516999999998
42
-0.022432000000003543
10
69.681526000000005
20
66.306386000000003
42
-0.022137000000000042
10
71.273781999999997
20
65.429729000000009
42
-0.0314070000000077
10
72.598272999999992
20
64.503337999999999
42
-0.012119000000007334
10
74.417102999999997
20
62.979506000000008
42
-0.15643399999999363
10
74.865861999999993
20
62.228873
42
-0.2181010000000132
10
74.712401
20
61.475692000000002
42
-0.026277999999999961
10
73.615733000000006
20
60.127883000000004
42
-0.020215999999997545
10
72.367130000000003
20
58.855565000000006
42
-0.18500900000000378
10
71.662458000000001
20
58.567143000000009
42
-0.15954399999999511
10
70.891914000000014
20
58.800280000000015
42
-0.014074000000004225
10
69.236233999999996
20
60.028818000000008
42
0.089547000000000557
10
66.558430999999999
20
61.449906000000006
42
0.080490999999997259
10
63.449112
20
61.915520999999998
42
0.079575999999997968
10
60.320006000000006
20
61.375779000000001
42
0.084422000000000302
10
57.586143000000014
20
59.889100000000006
42
-0.015342999999994781
10
55.88234400000001
20
58.631549000000007
42
-0.13392900000000285
10
55.003948000000008
20
58.321939
42
-0.17369099999999438
10
54.197963999999992
20
58.546171999999999
42
-0.030075000000001701
10
52.943187999999999
20
59.551414000000008
42
-0.021398000000001489
10
51.792434000000007
20
60.686070000000001
42
-0.17577600000001603
10
51.509138000000007
20
61.353046000000006
42
-0.17570000000000363
10
51.719296999999997
20
62.046681000000007
42
-0.021376000000005519
10
52.741904000000012
20
63.298941000000006
42
-0.06315499999999917
10
54.568849999999998
20
64.892014000000003
42
-0.032476999999996294
10
57.198793999999999
20
66.419015000000002
42
-0.032408000000002893
0
LWPOLYLINE
5
170
100
AcDbEntity
8
0
100
AcDbPolyline
90
24
70
1
43
0.0
10
146.07774900000004
20
64.15972099999999
42
-0.11754300000000568
10
146.88044299999999
20
62.477233000000005
42
-0.13357700000000972
10
146.787477
20
60.771393000000003
42
-0.11687099999999959
10
145.847431
20
59.247431000000006
42
-0.11232700000001421
10
145.15880900000005
20
58.814085000000006
42
-0.13954600000000733
10
144.40643600000001
20
58.768387000000004
42
-0.087409999999993687
10
143.48006800000002
20
59.150273999999996
42
-0.025286999999992968
10
142.21257199999999
20
60.047431000000003
42
0.089430000000002619
10
139.60145600000001
20
61.43390500000001
42
0.07639299999999534
10
136.52016699999999
20
61.922487000000004
42
0.076707000000001593
10
133.44625000000002
20
61.463102000000006
42
0.091517999999997074
10
130.85622599999999
20
60.101548000000008
42
-0.023527000000004804
10
129.438368
20
59.090458000000005
42
-0.11662600000000214
10
128.52132900000001
20
58.765838000000002
42
-0.1435320000000084
10
127.656216
20
58.920670000000001
42
-0.042315000000002809
10
126.49345100000002
20
59.628447999999999
42
-0.15273700000000928
10
125.415341
20
61.087725000000006
42
-0.20936800000000394
10
125.54357299999999
20
62.69501600000001
42
-0.11382199999999802
10
127.07542700000002
20
64.444916000000006
42
-0.035056999999998562
10
130.07488799999999
20
66.304552000000001
42
-0.07801799999999845
10
133.410357
20
67.443988000000004
42
-0.05561100000000143
10
137.356989
20
67.690393999999998
42
-0.055565999999999602
10
141.26485199999999
20
67.060660999999996
42
-0.07746699999999869
10
144.48557199999999
20
65.601410000000001
42
-0.078055999999998182
0
LWPOLYLINE
5
171
100
AcDbEntity
8
0
100
AcDbPolyline
90
28
70
1
43
0.0
10
126.73378300000002
20
47.207667000000001
42
-0.08552900000000295
10
124.290453
20
48.527104000000001
42
-0.034065000000000074
10
121.45294800000001
20
51.086397999999988
42
0.040297999999999209
10
116.59460800000002
20
55.359912999999999
42
0.058077999999998187
10
111.64518100000002
20
58.225824000000003
42
0.05907699999999854
10
106.235274
20
59.845050000000015
42
0.043563999999999763
10
100
20
60.380915000000002
42
0.040384000000000239
10
93.65300400000001
20
59.858865000000002
42
0.05929800000000144
10
88.279499000000001
20
58.306435000000008
42
0.059599000000001387
10
83.440033999999997
20
55.543510000000005
42
0.04130499999999987
10
78.699718000000004
20
51.382754999999989
42
-0.030302000000000235
10
75.725461999999993
20
48.654109000000005
42
-0.082934000000002089
10
73.253105000000005
20
47.250709999999998
42
-0.2155640000000047
10
71.713436999999999
20
47.364603000000002
42
-0.27469399999999816
10
71
20
48.565217000000004
42
-0.19073600000000002
10
72.077557999999996
20
51.28719199999999
42
-0.022331000000000725
10
76.847917000000024
20
55.933758000000005
42
-0.027535000000000816
10
82.334756999999996
20
60.303484000000005
42
-0.060904999999998953
10
87.034512000000021
20
62.845569999999995
42
-0.060793999999999619
10
93.427561000000011
20
64.496588000000003
42
-0.040197000000000462
10
101.01211600000001
20
64.883291
42
-0.04044500000000055
10
108.47814700000001
20
64.056763000000004
42
-0.066307999999999687
10
114.5
20
62.037593999999999
42
-0.048238999999997853
10
118.89202500000002
20
59.330587000000001
42
-0.025148000000000552
10
123.81970000000001
20
55.188124000000009
42
-0.019515000000002777
10
128.08324800000003
20
50.899293000000014
42
-0.18802400000000127
10
129
20
48.547618999999997
42
-0.27393000000000423
10
128.28793300000001
20
47.345421000000002
42
-0.20943799999999593
0
LWPOLYLINE
5
172
100
AcDbEntity
8
0
100
AcDbPolyline
90
12
70
1
43
0.0
10
65.444119000000001
20
56.730105000000002
42
-0.1618780000000031
10
67.485173000000003
20
55.023990000000005
42
-0.22915199999999256
10
67.637203999999997
20
53.553898000000004
42
-0.041336999999999111
10
66.458213000000001
20
50.983866000000006
42
-0.041365999999998807
10
64.871387999999996
20
48.641441999999998
42
-0.2269540000000016
10
63.531024000000009
20
48.000000000000007
42
-0.18253600000000192
10
62.143229000000005
20
48.524108000000005
42
-0.055475999999995272
10
60.605304000000011
20
50.215998999999996
42
-0.054554000000002476
10
59.39819
20
52.334449999999997
42
-0.10258899999999903
10
59
20
54.254730000000002
42
-0.23778299999999708
10
59.980733000000001
20
56.200371000000004
42
-0.13750499999999943
10
62.486630000000005
20
57.154221999999997
42
-0.11695200000000164
0
LWPOLYLINE
5
173
100
AcDbEntity
8
0
100
AcDbPolyline
90
12
70
1
43
0.0
10
140.811905
20
54.696439000000005
42
-0.14556600000000422
10
140.646365
20
52.939457999999995
42
-0.047295000000005367
10
139.434957
20
50.598647
42
-0.046518999999999255
10
137.85395700000004
20
48.582665000000006
42
-0.20603700000001063
10
136.5
20
48.000000000000007
42
-0.20196399999999623
10
135.239791
20
48.530680000000004
42
-0.042000999999996166
10
133.678539
20
50.423453000000009
42
-0.04371500000000237
10
132.401736
20
52.661823000000005
42
-0.10817099999999787
10
132
20
54.49704100000001
42
-0.27517699999999151
10
133.148425
20
56.425736000000001
42
-0.1190699999999984
10
136.14702399999999
20
57.222303000000004
42
-0.1116009999999988
10
139.31199799999999
20
56.581858999999994
42
-0.24304699999999943
0
LWPOLYLINE
5
174
100
AcDbEntity
8
0
100
AcDbPolyline
90
14
70
1
43
0.0
10
52.101314000000009
20
47.158414000000008
42
-0.20645699999999659
10
51.397554999999997
20
47.674503000000001
42
-0.11934399999999162
10
51.073224000000003
20
48.748444000000006
42
-0.014224999999995408
10
51.004967000000008
20
51.25
10
51.009934000000001
20
55.500000000000007
10
53.469004000000012
20
52.5
42
-0.018012000000001884
10
54.41303400000001
20
51.259766999999997
42
-0.020936999999996864
10
55.216285999999997
20
50.014063
42
-0.02047499999999864
10
55.801859
20
48.915991000000005
42
-0.10543899999999165
10
55.964036999999998
20
48.25
42
-0.19405000000001157
10
55.787388
20
47.772855000000007
42
-0.091105000000010455
10
55.255061000000005
20
47.367187999999999
42
-0.069390999999998107
10
54.454177000000001
20
47.092050999999998
42
-0.048123999999992687
10
53.500000000000007
20
47
42
-0.056448999999997904
0
LWPOLYLINE
5
175
100
AcDbEntity
8
0
100
AcDbPolyline
90
28
70
1
43
0.0
10
85.148415999999997
20
44.811405000000008
42
-0.043208999999997486
10
83.719355000000007
20
43.964573999999999
42
-0.054743000000002463
10
82.504530000000003
20
43.535934000000005
42
-0.15017300000000181
10
81.606976000000003
20
43.597323000000003
42
-0.13273099999999763
10
80.418178000000012
20
44.464689
42
-0.22255199999998967
10
80.131506999999999
20
45.643357000000002
42
-0.12069199999999163
10
80.86770700000001
20
47.208746000000012
42
-0.032067000000002323
10
82.75
20
49.253958000000004
42
-0.079967999999999054
10
88.58875500000002
20
53.275493999999995
42
-0.06860599999999939
10
95.709268000000009
20
55.529344999999992
42
-0.068650999999999379
10
103.16941300000002
20
55.771640000000005
42
-0.080283999999998648
10
110
20
53.919087000000005
42
-0.035918000000002698
10
113.53356500000001
20
52.003017000000007
42
-0.033954999999997904
10
116.827299
20
49.56824300000001
42
-0.032815999999992108
10
119.34147299999999
20
47.130060999999998
42
-0.18588099999998975
10
120
20
45.419897999999996
42
-0.21063399999998941
10
119.42175300000002
20
44.108159999999998
42
-0.18439399999998651
10
118.01867800000002
20
43.554722000000005
42
-0.1176249999999993
10
116.045289
20
44.002553000000006
42
-0.073647999999997618
10
114.087177
20
45.354742000000002
42
0.041515000000000767
10
110.92300000000002
20
47.853384000000005
42
0.050405000000000914
10
107.580867
20
49.613346000000007
42
0.051162999999995996
10
103.99712600000001
20
50.650615000000002
42
0.044906000000002673
10
100.11476000000002
20
51.000000000000014
42
0.028855000000001314
10
95.94780200000001
20
50.759326999999999
42
0.059587000000001479
10
92.778897999999998
20
50.002558000000008
42
0.060751999999997551
10
89.916541000000038
20
48.531220000000005
42
0.031101999999998145
10
86.718067000000019
20
46.057321999999999
42
-0.024810999999999452
0
LWPOLYLINE
5
176
100
AcDbEntity
8
0
100
AcDbPolyline
90
12
70
1
43
0.0
10
144.04919799999999
20
48.274298000000002
42
-0.1360449999999882
10
144.29530800000003
20
49.542725000000004
42
-0.081006999999995041
10
145.19999999999999
20
50.799999999999997
42
-0.017410999999999389
10
146.294084
20
51.820428000000007
42
-0.34847000000000733
10
146.72070500000001
20
51.839697999999991
42
-0.23066799999996948
10
146.96368700000002
20
51.386235999999997
42
-0.0096249999999926325
10
147
20
49.5
42
-0.047159999999986775
10
146.90136999999999
20
48.456621000000013
42
-0.088208000000004699
10
146.59999999999999
20
47.666667000000004
42
-0.1184839999999919
10
146.11998
20
47.177821000000002
42
-0.1405750000000045
10
145.5
20
47
42
-0.17939299999998537
10
144.50977700000004
20
47.367092
42
-0.19802699999999027
0
ENDSEC
0
SECTION
2
OBJECTS
0
DICTIONARY
5
C
100
AcDbDictionary
3
ACAD_GROUP
350
D
3
ACAD_MLINESTYLE
350
17
0
DICTIONARY
5
D
100
AcDbDictionary
0
DICTIONARY
5
1A
330
C
100
AcDbDictionary
0
DICTIONARY
5
17
100
AcDbDictionary
0
ENDSEC
0
EOF
